{
.appVersion = "1342";
copyright = "Copyright 2020 The Blue Ocean Project Authors (https://github.com/eliheuer/blue-ocean)";
customParameters = (
{
name = license;
value = "This Font Software is licensed under the SIL Open Font License, Version 1.1. This license is available with a FAQ at: http://scripts.sil.org/OFL";
},
{
name = licenseURL;
value = "http://scripts.sil.org/OFL";
},
{
name = fsType;
value = (
);
},
{
name = "Disable Last Change";
value = 1;
},
{
name = "Use Line Breaks";
value = 1;
},
{
name = "Use Typo Metrics";
value = 1;
},
{
name = "Variable Font Origin";
value = "02ADBE8D-B3BB-4EC7-92FE-8DBAAB138109";
},
{
name = Axes;
value = (
{
Name = weight;
Tag = wght;
}
);
}
);
date = "2020-07-10 22:46:00 +0000";
designer = "Jean-Baptiste Morizot, Eli Heuer";
designerURL = "http://cargocollective.com/jbmrz";
disablesAutomaticAlignment = 1;
disablesNiceNames = 1;
familyName = "Blue Ocean";
featurePrefixes = (
{
automatic = 1;
code = "languagesystem DFLT dflt;

languagesystem latn dflt;
languagesystem latn CAT;
";
name = Languagesystems;
}
);
features = (
{
automatic = 1;
code = "feature locl;
feature sups;
feature numr;
feature dnom;
feature frac;
feature lnum;
feature onum;
feature case;
feature zero;
";
name = aalt;
},
{
automatic = 1;
code = "lookup locl_latn_0 {
	script latn;
	language CAT;
	sub  l' periodcentered' l by ldot;
	sub  L' periodcentered' L by Ldot;
} locl_latn_0;
";
name = locl;
},
{
automatic = 1;
code = "sub zero by zerosuperior;
sub one by onesuperior;
sub two by twosuperior;
sub three by threesuperior;
sub four by foursuperior;
sub five by fivesuperior;
sub six by sixsuperior;
sub seven by sevensuperior;
sub eight by eightsuperior;
sub nine by ninesuperior;
";
name = sups;
},
{
automatic = 1;
code = "sub zero by zero.numr;
sub one by one.numr;
sub two by two.numr;
sub three by three.numr;
sub four by four.numr;
sub five by five.numr;
sub six by six.numr;
sub seven by seven.numr;
sub eight by eight.numr;
sub nine by nine.numr;
";

glyphs = (
{
color = 7;
glyphname = A;
layers = (
{
anchors = (
{
name = bottom;
position = "{621, 0}";
},
{
name = top;
position = "{685, 1372}";
}
);
layerId = master01;
paths = (
{
closed = 1;
nodes = (
"181 0 OFFCURVE",
"348 -10 OFFCURVE",
"388 -10 OFFCURVE",
"404 26 OFFCURVE",
"312 82 OFFCURVE",
"237 156 OFFCURVE",
"303 326 OFFCURVE",
"337 404 OFFCURVE",
"361 424 OFFCURVE",
"405 432 OFFCURVE",
"601 432 QCURVE SMOOTH",
"824 432 OFFCURVE",
"856 426 OFFCURVE",
"874 406 OFFCURVE",
"910 325 OFFCURVE",
"987 138 OFFCURVE",
"919 78 OFFCURVE",
"827 26 OFFCURVE",
"844 -10 OFFCURVE",
"892 -10 OFFCURVE",
"1105 0 OFFCURVE",
"1313 -10 OFFCURVE",
"1366 -10 OFFCURVE",
"1388 36 OFFCURVE",
"1309 88 OFFCURVE",
"1271 132 OFFCURVE",
"739 1367 OFFCURVE",
"709 1404 OFFCURVE",
"685 1404 QCURVE SMOOTH",
"654 1404 OFFCURVE",
"625 1367 OFFCURVE",
"127 158 OFFCURVE",
"81 96 OFFCURVE",
"-6 26 OFFCURVE",
"9 -10 OFFCURVE",
"61 -10 OFFCURVE"
);
},
{
closed = 1;
nodes = (
"450 514 OFFCURVE",
"402 520 OFFCURVE",
"395 556 OFFCURVE",
"573 1004 OFFCURVE",
"587 1036 OFFCURVE",
"601 1036 QCURVE SMOOTH",
"615 1036 OFFCURVE",
"631 1004 OFFCURVE",
"817 550 OFFCURVE",
"806 518 OFFCURVE",
"756 514 OFFCURVE",
"595 514 QCURVE SMOOTH"
);
}
);
userData = {
com.schriftgestaltung.Glyphs.lastChange = "2020-04-17 19:24:36 +0000";
};
width = 1389;
},
{
anchors = (
{
name = bottom;
position = "{599, 0}";
},
{
name = top;
position = "{685, 1394}";
}
);
layerId = "F16CA8CE-DA8C-4EBD-81D6-AE00C3431B7F";
paths = (
{
closed = 1;
nodes = (
"179 0 OFFCURVE",
"320 -20 OFFCURVE",
"359 -20 OFFCURVE",
"371 26 OFFCURVE",
"247 163 OFFCURVE",
"223 206 OFFCURVE",
"238 245 OFFCURVE",
"295 372 OFFCURVE",
"316 400 OFFCURVE",
"361 400 OFFCURVE",
"519 400 QCURVE SMOOTH",
"694 400 OFFCURVE",
"733 400 OFFCURVE",
"769 384 OFFCURVE",
"823 250 OFFCURVE",
"843 208 OFFCURVE",
"817 172 OFFCURVE",
"687 26 OFFCURVE",
"708 -30 OFFCURVE",
"754 -30 OFFCURVE",
"1043 0 OFFCURVE",
"1305 -30 OFFCURVE",
"1363 -30 OFFCURVE",
"1382 31 OFFCURVE",
"1265 176 OFFCURVE",
"1239 212 OFFCURVE",
"759 1313 OFFCURVE",
"722 1370 OFFCURVE",
"683 1370 QCURVE SMOOTH",
"651 1370 OFFCURVE",
"609 1315 OFFCURVE",
"107 166 OFFCURVE",
"85 135 OFFCURVE",
"-9 26 OFFCURVE",
"12 -20 OFFCURVE",
"57 -20 OFFCURVE"
);
},
{
closed = 1;
nodes = (
"383 478 OFFCURVE",
"355 484 OFFCURVE",
"354 514 OFFCURVE",
"504 864 OFFCURVE",
"518 896 OFFCURVE",
"532 896 QCURVE SMOOTH",
"546 896 OFFCURVE",
"562 864 OFFCURVE",
"707 516 OFFCURVE",
"699 482 OFFCURVE",
"649 478 OFFCURVE",
"513 478 QCURVE SMOOTH"
);
}
);
userData = {
com.schriftgestaltung.Glyphs.lastChange = "2020-04-17 19:24:36 +0000";
};
width = 1404;
},
{
anchors = (
{
name = bottom;
position = "{587, 0}";
},
{
name = top;
position = "{653, 1372}";
}
);
layerId = "02ADBE8D-B3BB-4EC7-92FE-8DBAAB138109";
paths = (
{
closed = 1;
nodes = (
"167 0 OFFCURVE",
"309 0 OFFCURVE",
"355 0 OFFCURVE",
"365 25 OFFCURVE",
"236 105 OFFCURVE",
"219 132 OFFCURVE",
"228 160 OFFCURVE",
"311 365 OFFCURVE",
"326 406 OFFCURVE",
"362 406 OFFCURVE",
"568 406 QCURVE SMOOTH",
"798 406 OFFCURVE",
"839 406 OFFCURVE",
"854 373 OFFCURVE",
"941 143 OFFCURVE",
"950 113 OFFCURVE",
"930 95 OFFCURVE",
"807 27 OFFCURVE",
"814 0 OFFCURVE",
"863 0 OFFCURVE",
"1069 0 OFFCURVE",
"1210 0 OFFCURVE",
"1267 0 OFFCURVE",
"1273 34 OFFCURVE",
"1211 79 OFFCURVE",
"1131 164 OFFCURVE",
"687 1318 OFFCURVE",
"663 1372 OFFCURVE",
"644 1372 QCURVE SMOOTH",
"615 1372 OFFCURVE",
"592 1322 OFFCURVE",
"133 124 OFFCURVE",
"89 82 OFFCURVE",
"-5 25 OFFCURVE",
"6 0 OFFCURVE",
"33 0 OFFCURVE"
);
},
{
closed = 1;
nodes = (
"392 478 OFFCURVE",
"357 478 OFFCURVE",
"365 514 OFFCURVE",
"554 1026 OFFCURVE",
"566 1044 OFFCURVE",
"577 1044 QCURVE SMOOTH",
"587 1044 OFFCURVE",
"599 1026 OFFCURVE",
"798 525 OFFCURVE",
"812 478 OFFCURVE",
"765 478 OFFCURVE",
"561 478 QCURVE SMOOTH"
);
}
);
userData = {
com.schriftgestaltung.Glyphs.lastChange = "2020-04-17 19:24:36 +0000";
};
width = 1270;
}
);
unicode = 0041;
},
{
color = 7;
glyphname = AE;
layers = (
{
layerId = master01;
paths = (
{
closed = 1;
nodes = (
"670 434 OFFCURVE",
"841 430 OFFCURVE",
"864 420 OFFCURVE",
"866 396 OFFCURVE",
"871 310 OFFCURVE",
"870 223 OFFCURVE",
"866 203 OFFCURVE",
"831 138 OFFCURVE",
"748 32 OFFCURVE",
"743 -8 OFFCURVE",
"794 -11 OFFCURVE",
"1254 10 OFFCURVE",
"1690 -4 OFFCURVE",
"1742 -3 OFFCURVE",
"1758 38 OFFCURVE",
"1764 241 OFFCURVE",
"1776 377 OFFCURVE",
"1784 431 OFFCURVE",
"1752 443 OFFCURVE",
"1722 400 OFFCURVE",
"1636 262 OFFCURVE",
"1510 122 OFFCURVE",
"1488 92 OFFCURVE",
"1447 72 OFFCURVE",
"1302 70 OFFCURVE",
"1152 66 OFFCURVE",
"1122 70 OFFCURVE",
"1119 104 OFFCURVE",
"1113 360 OFFCURVE",
"1118 619 OFFCURVE",
"1130 659 OFFCURVE",
"1172 665 OFFCURVE",
"1400 669 OFFCURVE",
"1607 654 OFFCURVE",
"1665 653 OFFCURVE",
"1659 757 OFFCURVE",
"1606 754 OFFCURVE",
"1402 743 OFFCURVE",
"1172 747 OFFCURVE",
"1130 759 OFFCURVE",
"1118 800 OFFCURVE",
"1117 1064 OFFCURVE",
"1119 1247 OFFCURVE",
"1129 1298 OFFCURVE",
"1166 1304 OFFCURVE",
"1301 1302 OFFCURVE",
"1414 1299 OFFCURVE",
"1448 1296 OFFCURVE",
"1478 1266 OFFCURVE",
"1571 1140 OFFCURVE",
"1676 966 OFFCURVE",
"1706 952 OFFCURVE",
"1724 982 OFFCURVE",
"1715 1212 OFFCURVE",
"1724 1336 OFFCURVE",
"1714 1374 OFFCURVE",
"1662 1378 OFFCURVE",
"1154 1373 OFFCURVE",
"1052 1370 QCURVE SMOOTH",
"981 1368 OFFCURVE",
"684 1381 OFFCURVE",
"644 1380 OFFCURVE",
"642 1347 OFFCURVE",
"719 1316 OFFCURVE",
"775 1271 OFFCURVE",
"792 1249 OFFCURVE",
"782 1220 OFFCURVE",
"501 746 OFFCURVE",
"156 170 OFFCURVE",
"148 162 OFFCURVE",
"80 86 OFFCURVE",
"19 35 OFFCURVE",
"-2 8 OFFCURVE",
"17 -8 OFFCURVE",
"216 3 OFFCURVE",
"382 -8 OFFCURVE",
"419 -8 OFFCURVE",
"417 19 OFFCURVE",
"324 81 OFFCURVE",
"272 128 OFFCURVE",
"259 145 OFFCURVE",
"260 169 OFFCURVE",
"340 316 OFFCURVE",
"395 397 OFFCURVE",
"415 423 OFFCURVE",
"451 427 OFFCURVE",
"624 434 OFFCURVE",
"650 434 QCURVE SMOOTH"
);
},
{
closed = 1;
nodes = (
"595 503 OFFCURVE",
"486 504 OFFCURVE",
"467 519 OFFCURVE",
"479 545 OFFCURVE",
"632 815 OFFCURVE",
"842 1174 OFFCURVE",
"854 1190 OFFCURVE",
"858 1190 QCURVE SMOOTH",
"862 1190 OFFCURVE",
"868 1175 OFFCURVE",
"868 878 OFFCURVE",
"870 540 OFFCURVE",
"866 514 OFFCURVE",
"837 508 OFFCURVE",
"721 505 OFFCURVE",
"648 504 QCURVE SMOOTH"
);
}
);
width = 1820;
},
{
layerId = "F16CA8CE-DA8C-4EBD-81D6-AE00C3431B7F";
paths = (
{
closed = 1;
nodes = (
"670 434 OFFCURVE",
"841 430 OFFCURVE",
"864 420 OFFCURVE",
"866 396 OFFCURVE",
"871 310 OFFCURVE",
"870 223 OFFCURVE",
"866 203 OFFCURVE",
"831 138 OFFCURVE",
"748 32 OFFCURVE",
"743 -8 OFFCURVE",
"794 -11 OFFCURVE",
"1254 10 OFFCURVE",
"1690 -4 OFFCURVE",
"1742 -3 OFFCURVE",
"1758 38 OFFCURVE",
"1764 241 OFFCURVE",
"1776 377 OFFCURVE",
"1784 431 OFFCURVE",
"1752 443 OFFCURVE",
"1722 400 OFFCURVE",
"1636 262 OFFCURVE",
"1510 122 OFFCURVE",
"1488 92 OFFCURVE",
"1447 72 OFFCURVE",
"1302 70 OFFCURVE",
"1152 66 OFFCURVE",
"1122 70 OFFCURVE",
"1119 104 OFFCURVE",
"1113 360 OFFCURVE",
"1118 619 OFFCURVE",
"1130 659 OFFCURVE",
"1172 665 OFFCURVE",
"1400 669 OFFCURVE",
"1607 654 OFFCURVE",
"1665 653 OFFCURVE",
"1659 757 OFFCURVE",
"1606 754 OFFCURVE",
"1402 743 OFFCURVE",
"1172 747 OFFCURVE",
"1130 759 OFFCURVE",
"1118 800 OFFCURVE",
"1117 1064 OFFCURVE",
"1119 1247 OFFCURVE",
"1129 1298 OFFCURVE",
"1166 1304 OFFCURVE",
"1301 1302 OFFCURVE",
"1414 1299 OFFCURVE",
"1448 1296 OFFCURVE",
"1478 1266 OFFCURVE",
"1571 1140 OFFCURVE",
"1676 966 OFFCURVE",
"1706 952 OFFCURVE",
"1724 982 OFFCURVE",
"1715 1212 OFFCURVE",
"1724 1336 OFFCURVE",
"1714 1374 OFFCURVE",
"1662 1378 OFFCURVE",
"1154 1373 OFFCURVE",
"1052 1370 QCURVE SMOOTH",
"981 1368 OFFCURVE",
"684 1381 OFFCURVE",
"644 1380 OFFCURVE",
"642 1347 OFFCURVE",
"719 1316 OFFCURVE",
"775 1271 OFFCURVE",
"792 1249 OFFCURVE",
"782 1220 OFFCURVE",
"501 746 OFFCURVE",
"156 170 OFFCURVE",
"148 162 OFFCURVE",
"80 86 OFFCURVE",
"19 35 OFFCURVE",
"-2 8 OFFCURVE",
"17 -8 OFFCURVE",
"216 3 OFFCURVE",
"382 -8 OFFCURVE",
"419 -8 OFFCURVE",
"417 19 OFFCURVE",
"324 81 OFFCURVE",
"272 128 OFFCURVE",
"259 145 OFFCURVE",
"260 169 OFFCURVE",
"340 316 OFFCURVE",
"395 397 OFFCURVE",
"415 423 OFFCURVE",
"451 427 OFFCURVE",
"624 434 OFFCURVE",
"650 434 QCURVE SMOOTH"
);
},
{
closed = 1;
nodes = (
"595 503 OFFCURVE",
"486 504 OFFCURVE",
"467 519 OFFCURVE",
"479 545 OFFCURVE",
"632 815 OFFCURVE",
"842 1174 OFFCURVE",
"854 1190 OFFCURVE",
"858 1190 QCURVE SMOOTH",
"862 1190 OFFCURVE",
"868 1175 OFFCURVE",
"868 878 OFFCURVE",
"870 540 OFFCURVE",
"866 514 OFFCURVE",
"837 508 OFFCURVE",
"721 505 OFFCURVE",
"648 504 QCURVE SMOOTH"
);
}
);
width = 1820;
},
{
layerId = "02ADBE8D-B3BB-4EC7-92FE-8DBAAB138109";
paths = (
{
closed = 1;
nodes = (
"670 434 OFFCURVE",
"841 430 OFFCURVE",
"864 420 OFFCURVE",
"866 396 OFFCURVE",
"871 310 OFFCURVE",
"870 223 OFFCURVE",
"866 203 OFFCURVE",
"831 138 OFFCURVE",
"748 32 OFFCURVE",
"743 -8 OFFCURVE",
"794 -11 OFFCURVE",
"1254 10 OFFCURVE",
"1690 -4 OFFCURVE",
"1742 -3 OFFCURVE",
"1758 38 OFFCURVE",
"1764 241 OFFCURVE",
"1776 377 OFFCURVE",
"1784 431 OFFCURVE",
"1752 443 OFFCURVE",
"1722 400 OFFCURVE",
"1636 262 OFFCURVE",
"1510 122 OFFCURVE",
"1488 92 OFFCURVE",
"1447 72 OFFCURVE",
"1302 70 OFFCURVE",
"1152 66 OFFCURVE",
"1122 70 OFFCURVE",
"1119 104 OFFCURVE",
"1113 360 OFFCURVE",
"1118 619 OFFCURVE",
"1130 659 OFFCURVE",
"1172 665 OFFCURVE",
"1400 669 OFFCURVE",
"1607 654 OFFCURVE",
"1665 653 OFFCURVE",
"1659 757 OFFCURVE",
"1606 754 OFFCURVE",
"1402 743 OFFCURVE",
"1172 747 OFFCURVE",
"1130 759 OFFCURVE",
"1118 800 OFFCURVE",
"1117 1064 OFFCURVE",
"1119 1247 OFFCURVE",
"1129 1298 OFFCURVE",
"1166 1304 OFFCURVE",
"1301 1302 OFFCURVE",
"1414 1299 OFFCURVE",
"1448 1296 OFFCURVE",
"1478 1266 OFFCURVE",
"1571 1140 OFFCURVE",
"1676 966 OFFCURVE",
"1706 952 OFFCURVE",
"1724 982 OFFCURVE",
"1715 1212 OFFCURVE",
"1724 1336 OFFCURVE",
"1714 1374 OFFCURVE",
"1662 1378 OFFCURVE",
"1154 1373 OFFCURVE",
"1052 1370 QCURVE SMOOTH",
"981 1368 OFFCURVE",
"684 1381 OFFCURVE",
"644 1380 OFFCURVE",
"642 1347 OFFCURVE",
"719 1316 OFFCURVE",
"775 1271 OFFCURVE",
"792 1249 OFFCURVE",
"782 1220 OFFCURVE",
"501 746 OFFCURVE",
"156 170 OFFCURVE",
"148 162 OFFCURVE",
"80 86 OFFCURVE",
"19 35 OFFCURVE",
"-2 8 OFFCURVE",
"17 -8 OFFCURVE",
"216 3 OFFCURVE",
"382 -8 OFFCURVE",
"419 -8 OFFCURVE",
"417 19 OFFCURVE",
"324 81 OFFCURVE",
"272 128 OFFCURVE",
"259 145 OFFCURVE",
"260 169 OFFCURVE",
"340 316 OFFCURVE",
"395 397 OFFCURVE",
"415 423 OFFCURVE",
"451 427 OFFCURVE",
"624 434 OFFCURVE",
"650 434 QCURVE SMOOTH"
);
},
{
closed = 1;
nodes = (
"595 503 OFFCURVE",
"486 504 OFFCURVE",
"467 519 OFFCURVE",
"479 545 OFFCURVE",
"632 815 OFFCURVE",
"842 1174 OFFCURVE",
"854 1190 OFFCURVE",
"858 1190 QCURVE SMOOTH",
"862 1190 OFFCURVE",
"868 1175 OFFCURVE",
"868 878 OFFCURVE",
"870 540 OFFCURVE",
"866 514 OFFCURVE",
"837 508 OFFCURVE",
"721 505 OFFCURVE",
"648 504 QCURVE SMOOTH"
);
}
);
width = 1820;
}
);
unicode = 00C6;
},
{
color = 7;
glyphname = B;
layers = (
{
layerId = master01;
paths = (
{
closed = 1;
nodes = (
"393 0 OFFCURVE",
"778 -20 OFFCURVE",
"985 43 OFFCURVE",
"1140 242 OFFCURVE",
"1140 554 OFFCURVE",
"983 696 OFFCURVE",
"780 733 OFFCURVE",
"766 739 OFFCURVE",
"766 755 OFFCURVE",
"781 765 OFFCURVE",
"905 818 OFFCURVE",
"1050 947 OFFCURVE",
"1052 1184 OFFCURVE",
"922 1354 OFFCURVE",
"675 1390 OFFCURVE",
"403 1370 OFFCURVE",
"308 1370 QCURVE SMOOTH",
"239 1370 OFFCURVE",
"110 1380 OFFCURVE",
"44 1380 OFFCURVE",
"28 1338 OFFCURVE",
"130 1200 OFFCURVE",
"144 1160 OFFCURVE",
"144 1115 OFFCURVE",
"154 725 OFFCURVE",
"144 263 OFFCURVE",
"144 215 OFFCURVE",
"121 170 OFFCURVE",
"24 17 OFFCURVE",
"38 -20 OFFCURVE",
"78 -20 OFFCURVE",
"220 0 OFFCURVE",
"318 0 QCURVE SMOOTH"
);
},
{
closed = 1;
nodes = (
"411 1220 OFFCURVE",
"414 1288 OFFCURVE",
"439 1308 OFFCURVE",
"667 1308 OFFCURVE",
"793 1158 OFFCURVE",
"793 1027 QCURVE SMOOTH",
"793 880 OFFCURVE",
"635 760 OFFCURVE",
"472 760 OFFCURVE",
"423 768 OFFCURVE",
"411 819 OFFCURVE",
"411 1030 QCURVE SMOOTH"
);
},
{
closed = 1;
nodes = (
"412 654 OFFCURVE",
"423 703 OFFCURVE",
"472 704 OFFCURVE",
"689 705 OFFCURVE",
"845 540 OFFCURVE",
"845 376 QCURVE SMOOTH",
"845 215 OFFCURVE",
"683 78 OFFCURVE",
"526 78 OFFCURVE",
"429 78 OFFCURVE",
"412 140 OFFCURVE",
"412 396 QCURVE SMOOTH"
);
}
);
userData = {
com.schriftgestaltung.Glyphs.lastChange = "2020-04-17 19:24:36 +0000";
};
width = 1140;
},
{
layerId = "F16CA8CE-DA8C-4EBD-81D6-AE00C3431B7F";
paths = (
{
closed = 1;
nodes = (
"473 0 OFFCURVE",
"763 -30 OFFCURVE",
"1086 25 OFFCURVE",
"1260 242 OFFCURVE",
"1260 554 OFFCURVE",
"1095 696 OFFCURVE",
"891 736 OFFCURVE",
"877 742 OFFCURVE",
"877 758 OFFCURVE",
"892 768 OFFCURVE",
"1035 818 OFFCURVE",
"1155 947 OFFCURVE",
"1157 1184 OFFCURVE",
"1023 1358 OFFCURVE",
"768 1390 OFFCURVE",
"493 1370 OFFCURVE",
"368 1370 QCURVE SMOOTH",
"299 1370 OFFCURVE",
"110 1387 OFFCURVE",
"35 1393 OFFCURVE",
"28 1337 OFFCURVE",
"89 1273 OFFCURVE",
"158 1163 OFFCURVE",
"169 1062 OFFCURVE",
"183 725 OFFCURVE",
"177 289 OFFCURVE",
"154 190 OFFCURVE",
"109 123 OFFCURVE",
"15 30 OFFCURVE",
"26 -15 OFFCURVE",
"78 -20 OFFCURVE",
"250 0 OFFCURVE",
"368 0 QCURVE SMOOTH"
);
},
{
closed = 1;
nodes = (
"534 1190 OFFCURVE",
"536 1258 OFFCURVE",
"561 1278 OFFCURVE",
"683 1275 OFFCURVE",
"779 1178 OFFCURVE",
"779 1007 QCURVE SMOOTH",
"779 900 OFFCURVE",
"725 760 OFFCURVE",
"570 760 OFFCURVE",
"534 792 OFFCURVE",
"534 969 OFFCURVE",
"534 1030 QCURVE SMOOTH"
);
},
{
closed = 1;
nodes = (
"534 618 OFFCURVE",
"536 661 OFFCURVE",
"567 684 OFFCURVE",
"736 684 OFFCURVE",
"874 546 OFFCURVE",
"874 376 QCURVE SMOOTH",
"874 215 OFFCURVE",
"733 94 OFFCURVE",
"578 94 OFFCURVE",
"539 127 OFFCURVE",
"534 226 OFFCURVE",
"534 396 QCURVE SMOOTH"
);
}
);
userData = {
com.schriftgestaltung.Glyphs.lastChange = "2020-04-17 19:24:36 +0000";
};
width = 1260;
},
{
layerId = "02ADBE8D-B3BB-4EC7-92FE-8DBAAB138109";
paths = (
{
closed = 1;
nodes = (
"424 0 OFFCURVE",
"734 0 OFFCURVE",
"986 66 OFFCURVE",
"1130 262 OFFCURVE",
"1130 554 OFFCURVE",
"956 696 OFFCURVE",
"833 732 OFFCURVE",
"817 742 OFFCURVE",
"817 761 OFFCURVE",
"834 774 OFFCURVE",
"946 838 OFFCURVE",
"1043 947 OFFCURVE",
"1043 1184 OFFCURVE",
"860 1350 OFFCURVE",
"609 1370 OFFCURVE",
"484 1370 OFFCURVE",
"369 1370 QCURVE SMOOTH",
"280 1370 OFFCURVE",
"112 1370 OFFCURVE",
"47 1369 OFFCURVE",
"34 1323 OFFCURVE",
"181 1266 OFFCURVE",
"217 1242 OFFCURVE",
"217 1191 OFFCURVE",
"217 725 OFFCURVE",
"217 198 OFFCURVE",
"217 140 OFFCURVE",
"181 111 OFFCURVE",
"47 31 OFFCURVE",
"51 0 OFFCURVE",
"86 0 OFFCURVE",
"256 0 OFFCURVE",
"369 0 QCURVE SMOOTH"
);
},
{
closed = 1;
nodes = (
"413 1255 OFFCURVE",
"413 1313 OFFCURVE",
"461 1313 OFFCURVE",
"643 1310 OFFCURVE",
"841 1188 OFFCURVE",
"841 1037 QCURVE SMOOTH",
"841 900 OFFCURVE",
"695 755 OFFCURVE",
"467 755 OFFCURVE",
"413 755 OFFCURVE",
"413 804 OFFCURVE",
"413 1030 QCURVE SMOOTH"
);
},
{
closed = 1;
nodes = (
"413 636 OFFCURVE",
"413 684 OFFCURVE",
"468 684 OFFCURVE",
"737 684 OFFCURVE",
"930 549 OFFCURVE",
"930 379 QCURVE SMOOTH",
"930 218 OFFCURVE",
"734 62 OFFCURVE",
"495 62 OFFCURVE",
"413 62 OFFCURVE",
"413 149 OFFCURVE",
"413 394 QCURVE SMOOTH"
);
}
);
userData = {
com.schriftgestaltung.Glyphs.lastChange = "2020-04-17 19:24:36 +0000";
};
width = 1150;
}
);
unicode = 0042;
},
{
color = 7;
glyphname = C;
layers = (
{
layerId = master01;
paths = (
{
closed = 1;
nodes = (
"896 -24 OFFCURVE",
"1144 204 OFFCURVE",
"1226 368 OFFCURVE",
"1234 422 OFFCURVE",
"1190 426 OFFCURVE",
"1140 360 OFFCURVE",
"954 210 OFFCURVE",
"574 210 OFFCURVE",
"360 546 OFFCURVE",
"360 1024 OFFCURVE",
"534 1288 OFFCURVE",
"856 1288 OFFCURVE",
"1034 1114 OFFCURVE",
"1082 990 OFFCURVE",
"1112 970 OFFCURVE",
"1134 984 OFFCURVE",
"1134 1172 OFFCURVE",
"1130 1326 OFFCURVE",
"1096 1372 OFFCURVE",
"934 1370 OFFCURVE",
"836 1370 QCURVE SMOOTH",
"478 1370 OFFCURVE",
"70 930 OFFCURVE",
"70 362 OFFCURVE",
"376 -24 OFFCURVE",
"654 -24 QCURVE SMOOTH"
);
}
);
userData = {
com.schriftgestaltung.Glyphs.lastChange = "2020-04-17 20:02:37 +0000";
};
width = 1302;
},
{
layerId = "F16CA8CE-DA8C-4EBD-81D6-AE00C3431B7F";
paths = (
{
closed = 1;
nodes = (
"896 -24 OFFCURVE",
"1144 204 OFFCURVE",
"1226 368 OFFCURVE",
"1234 422 OFFCURVE",
"1190 426 OFFCURVE",
"1140 360 OFFCURVE",
"954 210 OFFCURVE",
"574 210 OFFCURVE",
"360 546 OFFCURVE",
"360 1024 OFFCURVE",
"534 1288 OFFCURVE",
"856 1288 OFFCURVE",
"1034 1114 OFFCURVE",
"1082 990 OFFCURVE",
"1112 970 OFFCURVE",
"1134 984 OFFCURVE",
"1134 1172 OFFCURVE",
"1130 1326 OFFCURVE",
"1096 1372 OFFCURVE",
"934 1370 OFFCURVE",
"836 1370 QCURVE SMOOTH",
"478 1370 OFFCURVE",
"70 930 OFFCURVE",
"70 362 OFFCURVE",
"376 -24 OFFCURVE",
"654 -24 QCURVE SMOOTH"
);
}
);
userData = {
com.schriftgestaltung.Glyphs.lastChange = "2020-04-17 20:02:37 +0000";
};
width = 1302;
},
{
layerId = "02ADBE8D-B3BB-4EC7-92FE-8DBAAB138109";
paths = (
{
closed = 1;
nodes = (
"896 -24 OFFCURVE",
"1144 204 OFFCURVE",
"1226 368 OFFCURVE",
"1234 422 OFFCURVE",
"1190 426 OFFCURVE",
"1140 360 OFFCURVE",
"954 210 OFFCURVE",
"574 210 OFFCURVE",
"360 546 OFFCURVE",
"360 1024 OFFCURVE",
"534 1288 OFFCURVE",
"856 1288 OFFCURVE",
"1034 1114 OFFCURVE",
"1082 990 OFFCURVE",
"1112 970 OFFCURVE",
"1134 984 OFFCURVE",
"1134 1172 OFFCURVE",
"1130 1326 OFFCURVE",
"1096 1372 OFFCURVE",
"934 1370 OFFCURVE",
"836 1370 QCURVE SMOOTH",
"478 1370 OFFCURVE",
"70 930 OFFCURVE",
"70 362 OFFCURVE",
"376 -24 OFFCURVE",
"654 -24 QCURVE SMOOTH"
);
}
);
userData = {
com.schriftgestaltung.Glyphs.lastChange = "2020-04-17 20:02:37 +0000";
};
width = 1302;
}
);
unicode = 0043;
},
{
color = 7;
glyphname = Ccedilla;
layers = (
{
layerId = master01;
paths = (
{
closed = 1;
nodes = (
"74 357 OFFCURVE",
"329 31 OFFCURVE",
"596 -22 OFFCURVE",
"620 -24 OFFCURVE",
"612 -36 OFFCURVE",
"584 -76 OFFCURVE",
"533 -144 OFFCURVE",
"525 -155 OFFCURVE",
"532 -163 OFFCURVE",
"562 -166 OFFCURVE",
"680 -186 OFFCURVE",
"747 -218 OFFCURVE",
"746 -277 OFFCURVE",
"668 -294 OFFCURVE",
"573 -294 OFFCURVE",
"516 -245 OFFCURVE",
"497 -240 OFFCURVE",
"483 -253 OFFCURVE",
"477 -274 OFFCURVE",
"493 -295 OFFCURVE",
"580 -342 OFFCURVE",
"642 -342 QCURVE SMOOTH",
"744 -342 OFFCURVE",
"838 -244 OFFCURVE",
"838 -161 OFFCURVE",
"786 -117 OFFCURVE",
"672 -73 OFFCURVE",
"660 -65 OFFCURVE",
"669 -43 OFFCURVE",
"682 -25 OFFCURVE",
"703 -22 OFFCURVE",
"876 3 OFFCURVE",
"1099 177 OFFCURVE",
"1227 388 OFFCURVE",
"1240 419 OFFCURVE",
"1219 443 OFFCURVE",
"1193 441 OFFCURVE",
"1175 410 OFFCURVE",
"1098 316 OFFCURVE",
"938 213 OFFCURVE",
"579 210 OFFCURVE",
"360 549 OFFCURVE",
"360 1044 OFFCURVE",
"551 1290 OFFCURVE",
"854 1290 OFFCURVE",
"1053 1074 OFFCURVE",
"1082 984 OFFCURVE",
"1106 954 OFFCURVE",
"1140 960 OFFCURVE",
"1143 1017 OFFCURVE",
"1127 1188 OFFCURVE",
"1146 1346 OFFCURVE",
"1128 1388 OFFCURVE",
"1024 1370 OFFCURVE",
"818 1370 QCURVE SMOOTH",
"500 1370 OFFCURVE",
"74 962 OFFCURVE"
);
}
);
width = 1302;
},
{
layerId = "F16CA8CE-DA8C-4EBD-81D6-AE00C3431B7F";
paths = (
{
closed = 1;
nodes = (
"74 357 OFFCURVE",
"329 31 OFFCURVE",
"596 -22 OFFCURVE",
"620 -24 OFFCURVE",
"612 -36 OFFCURVE",
"584 -76 OFFCURVE",
"533 -144 OFFCURVE",
"525 -155 OFFCURVE",
"532 -163 OFFCURVE",
"562 -166 OFFCURVE",
"680 -186 OFFCURVE",
"747 -218 OFFCURVE",
"746 -277 OFFCURVE",
"668 -294 OFFCURVE",
"573 -294 OFFCURVE",
"516 -245 OFFCURVE",
"497 -240 OFFCURVE",
"483 -253 OFFCURVE",
"477 -274 OFFCURVE",
"493 -295 OFFCURVE",
"580 -342 OFFCURVE",
"642 -342 QCURVE SMOOTH",
"744 -342 OFFCURVE",
"838 -244 OFFCURVE",
"838 -161 OFFCURVE",
"786 -117 OFFCURVE",
"672 -73 OFFCURVE",
"660 -65 OFFCURVE",
"669 -43 OFFCURVE",
"682 -25 OFFCURVE",
"703 -22 OFFCURVE",
"876 3 OFFCURVE",
"1099 177 OFFCURVE",
"1227 388 OFFCURVE",
"1240 419 OFFCURVE",
"1219 443 OFFCURVE",
"1193 441 OFFCURVE",
"1175 410 OFFCURVE",
"1098 316 OFFCURVE",
"938 213 OFFCURVE",
"579 210 OFFCURVE",
"360 549 OFFCURVE",
"360 1044 OFFCURVE",
"551 1290 OFFCURVE",
"854 1290 OFFCURVE",
"1053 1074 OFFCURVE",
"1082 984 OFFCURVE",
"1106 954 OFFCURVE",
"1140 960 OFFCURVE",
"1143 1017 OFFCURVE",
"1127 1188 OFFCURVE",
"1146 1346 OFFCURVE",
"1128 1388 OFFCURVE",
"1024 1370 OFFCURVE",
"818 1370 QCURVE SMOOTH",
"500 1370 OFFCURVE",
"74 962 OFFCURVE"
);
}
);
width = 1302;
},
{
layerId = "02ADBE8D-B3BB-4EC7-92FE-8DBAAB138109";
paths = (
{
closed = 1;
nodes = (
"74 357 OFFCURVE",
"329 31 OFFCURVE",
"596 -22 OFFCURVE",
"620 -24 OFFCURVE",
"612 -36 OFFCURVE",
"584 -76 OFFCURVE",
"533 -144 OFFCURVE",
"525 -155 OFFCURVE",
"532 -163 OFFCURVE",
"562 -166 OFFCURVE",
"680 -186 OFFCURVE",
"747 -218 OFFCURVE",
"746 -277 OFFCURVE",
"668 -294 OFFCURVE",
"573 -294 OFFCURVE",
"516 -245 OFFCURVE",
"497 -240 OFFCURVE",
"483 -253 OFFCURVE",
"477 -274 OFFCURVE",
"493 -295 OFFCURVE",
"580 -342 OFFCURVE",
"642 -342 QCURVE SMOOTH",
"744 -342 OFFCURVE",
"838 -244 OFFCURVE",
"838 -161 OFFCURVE",
"786 -117 OFFCURVE",
"672 -73 OFFCURVE",
"660 -65 OFFCURVE",
"669 -43 OFFCURVE",
"682 -25 OFFCURVE",
"703 -22 OFFCURVE",
"876 3 OFFCURVE",
"1099 177 OFFCURVE",
"1227 388 OFFCURVE",
"1240 419 OFFCURVE",
"1219 443 OFFCURVE",
"1193 441 OFFCURVE",
"1175 410 OFFCURVE",
"1098 316 OFFCURVE",
"938 213 OFFCURVE",
"579 210 OFFCURVE",
"360 549 OFFCURVE",
"360 1044 OFFCURVE",
"551 1290 OFFCURVE",
"854 1290 OFFCURVE",
"1053 1074 OFFCURVE",
"1082 984 OFFCURVE",
"1106 954 OFFCURVE",
"1140 960 OFFCURVE",
"1143 1017 OFFCURVE",
"1127 1188 OFFCURVE",
"1146 1346 OFFCURVE",
"1128 1388 OFFCURVE",
"1024 1370 OFFCURVE",
"818 1370 QCURVE SMOOTH",
"500 1370 OFFCURVE",
"74 962 OFFCURVE"
);
}
);
width = 1302;
}
);
unicode = 00C7;
},
{
color = 7;
glyphname = D;
layers = (
{
layerId = master01;
paths = (
{
closed = 1;
nodes = (
"1004 0 OFFCURVE",
"1400 456 OFFCURVE",
"1400 1002 OFFCURVE",
"1018 1370 OFFCURVE",
"612 1370 QCURVE SMOOTH",
"338 1370 OFFCURVE",
"142 1382 OFFCURVE",
"98 1374 OFFCURVE",
"98 1334 OFFCURVE",
"170 1264 OFFCURVE",
"226 1158 OFFCURVE",
"240 714 OFFCURVE",
"224 210 OFFCURVE",
"164 90 OFFCURVE",
"100 28 OFFCURVE",
"110 -8 OFFCURVE",
"162 -4 OFFCURVE",
"454 0 OFFCURVE",
"578 0 QCURVE SMOOTH"
);
},
{
closed = 1;
nodes = (
"520 76 OFFCURVE",
"490 86 OFFCURVE",
"484 120 OFFCURVE",
"482 714 OFFCURVE",
"482 1252 OFFCURVE",
"494 1298 OFFCURVE",
"536 1306 OFFCURVE",
"628 1306 QCURVE SMOOTH",
"864 1306 OFFCURVE",
"1124 988 OFFCURVE",
"1124 396 OFFCURVE",
"850 76 OFFCURVE",
"614 76 QCURVE SMOOTH"
);
}
);
userData = {
com.schriftgestaltung.Glyphs.lastChange = "2020-04-18 01:16:45 +0000";
};
width = 1470;
},
{
layerId = "F16CA8CE-DA8C-4EBD-81D6-AE00C3431B7F";
paths = (
{
closed = 1;
nodes = (
"1004 0 OFFCURVE",
"1400 456 OFFCURVE",
"1400 1002 OFFCURVE",
"1018 1370 OFFCURVE",
"612 1370 QCURVE SMOOTH",
"338 1370 OFFCURVE",
"142 1382 OFFCURVE",
"98 1374 OFFCURVE",
"98 1334 OFFCURVE",
"170 1264 OFFCURVE",
"226 1158 OFFCURVE",
"240 714 OFFCURVE",
"224 210 OFFCURVE",
"164 90 OFFCURVE",
"100 28 OFFCURVE",
"110 -8 OFFCURVE",
"162 -4 OFFCURVE",
"454 0 OFFCURVE",
"578 0 QCURVE SMOOTH"
);
},
{
closed = 1;
nodes = (
"520 76 OFFCURVE",
"490 86 OFFCURVE",
"484 120 OFFCURVE",
"482 714 OFFCURVE",
"482 1252 OFFCURVE",
"494 1298 OFFCURVE",
"536 1306 OFFCURVE",
"628 1306 QCURVE SMOOTH",
"864 1306 OFFCURVE",
"1124 988 OFFCURVE",
"1124 396 OFFCURVE",
"850 76 OFFCURVE",
"614 76 QCURVE SMOOTH"
);
}
);
userData = {
com.schriftgestaltung.Glyphs.lastChange = "2020-04-18 01:16:45 +0000";
};
width = 1470;
},
{
layerId = "02ADBE8D-B3BB-4EC7-92FE-8DBAAB138109";
paths = (
{
closed = 1;
nodes = (
"1004 0 OFFCURVE",
"1400 456 OFFCURVE",
"1400 1002 OFFCURVE",
"1018 1370 OFFCURVE",
"612 1370 QCURVE SMOOTH",
"338 1370 OFFCURVE",
"142 1382 OFFCURVE",
"98 1374 OFFCURVE",
"98 1334 OFFCURVE",
"170 1264 OFFCURVE",
"226 1158 OFFCURVE",
"240 714 OFFCURVE",
"224 210 OFFCURVE",
"164 90 OFFCURVE",
"100 28 OFFCURVE",
"110 -8 OFFCURVE",
"162 -4 OFFCURVE",
"454 0 OFFCURVE",
"578 0 QCURVE SMOOTH"
);
},
{
closed = 1;
nodes = (
"520 76 OFFCURVE",
"490 86 OFFCURVE",
"484 120 OFFCURVE",
"482 714 OFFCURVE",
"482 1252 OFFCURVE",
"494 1298 OFFCURVE",
"536 1306 OFFCURVE",
"628 1306 QCURVE SMOOTH",
"864 1306 OFFCURVE",
"1124 988 OFFCURVE",
"1124 396 OFFCURVE",
"850 76 OFFCURVE",
"614 76 QCURVE SMOOTH"
);
}
);
userData = {
com.schriftgestaltung.Glyphs.lastChange = "2020-04-18 01:16:45 +0000";
};
width = 1470;
}
);
unicode = 0044;
},
{
color = 7;
glyphname = Eth;
layers = (
{
layerId = master01;
paths = (
{
closed = 1;
nodes = (
"68 1334 OFFCURVE",
"138 1258 OFFCURVE",
"192 1168 OFFCURVE",
"202 1146 OFFCURVE",
"202 960 OFFCURVE",
"198 764 OFFCURVE",
"186 752 OFFCURVE",
"136 756 OFFCURVE",
"66 762 OFFCURVE",
"48 750 OFFCURVE",
"48 662 OFFCURVE",
"68 652 OFFCURVE",
"134 656 OFFCURVE",
"182 654 OFFCURVE",
"198 634 OFFCURVE",
"202 460 OFFCURVE",
"198 220 OFFCURVE",
"190 202 OFFCURVE",
"148 126 OFFCURVE",
"58 32 OFFCURVE",
"48 -4 OFFCURVE",
"82 -8 OFFCURVE",
"210 -3 OFFCURVE",
"332 0 QCURVE SMOOTH",
"414 2 OFFCURVE",
"914 -9 OFFCURVE",
"1346 409 OFFCURVE",
"1346 1017 OFFCURVE",
"996 1377 OFFCURVE",
"582 1370 QCURVE SMOOTH",
"336 1366 OFFCURVE",
"98 1380 OFFCURVE",
"60 1368 OFFCURVE"
);
},
{
closed = 1;
nodes = (
"458 99 OFFCURVE",
"452 396 OFFCURVE",
"452 627 OFFCURVE",
"470 652 OFFCURVE",
"599 658 OFFCURVE",
"734 646 OFFCURVE",
"750 660 OFFCURVE",
"752 740 OFFCURVE",
"736 762 OFFCURVE",
"604 760 OFFCURVE",
"472 754 OFFCURVE",
"458 782 OFFCURVE",
"454 1060 OFFCURVE",
"454 1290 OFFCURVE",
"472 1308 OFFCURVE",
"598 1306 QCURVE SMOOTH",
"830 1302 OFFCURVE",
"1070 975 OFFCURVE",
"1071 436 OFFCURVE",
"840 78 OFFCURVE",
"584 76 QCURVE SMOOTH",
"486 75 OFFCURVE"
);
}
);
width = 1416;
},
{
layerId = "F16CA8CE-DA8C-4EBD-81D6-AE00C3431B7F";
paths = (
{
closed = 1;
nodes = (
"68 1334 OFFCURVE",
"138 1258 OFFCURVE",
"192 1168 OFFCURVE",
"202 1146 OFFCURVE",
"202 960 OFFCURVE",
"198 764 OFFCURVE",
"186 752 OFFCURVE",
"136 756 OFFCURVE",
"66 762 OFFCURVE",
"48 750 OFFCURVE",
"48 662 OFFCURVE",
"68 652 OFFCURVE",
"134 656 OFFCURVE",
"182 654 OFFCURVE",
"198 634 OFFCURVE",
"202 460 OFFCURVE",
"198 220 OFFCURVE",
"190 202 OFFCURVE",
"148 126 OFFCURVE",
"58 32 OFFCURVE",
"48 -4 OFFCURVE",
"82 -8 OFFCURVE",
"210 -3 OFFCURVE",
"332 0 QCURVE SMOOTH",
"414 2 OFFCURVE",
"914 -9 OFFCURVE",
"1346 409 OFFCURVE",
"1346 1017 OFFCURVE",
"996 1377 OFFCURVE",
"582 1370 QCURVE SMOOTH",
"336 1366 OFFCURVE",
"98 1380 OFFCURVE",
"60 1368 OFFCURVE"
);
},
{
closed = 1;
nodes = (
"458 99 OFFCURVE",
"452 396 OFFCURVE",
"452 627 OFFCURVE",
"470 652 OFFCURVE",
"599 658 OFFCURVE",
"734 646 OFFCURVE",
"750 660 OFFCURVE",
"752 740 OFFCURVE",
"736 762 OFFCURVE",
"604 760 OFFCURVE",
"472 754 OFFCURVE",
"458 782 OFFCURVE",
"454 1060 OFFCURVE",
"454 1290 OFFCURVE",
"472 1308 OFFCURVE",
"598 1306 QCURVE SMOOTH",
"830 1302 OFFCURVE",
"1070 975 OFFCURVE",
"1071 436 OFFCURVE",
"840 78 OFFCURVE",
"584 76 QCURVE SMOOTH",
"486 75 OFFCURVE"
);
}
);
width = 1416;
},
{
layerId = "02ADBE8D-B3BB-4EC7-92FE-8DBAAB138109";
paths = (
{
closed = 1;
nodes = (
"68 1334 OFFCURVE",
"138 1258 OFFCURVE",
"192 1168 OFFCURVE",
"202 1146 OFFCURVE",
"202 960 OFFCURVE",
"198 764 OFFCURVE",
"186 752 OFFCURVE",
"136 756 OFFCURVE",
"66 762 OFFCURVE",
"48 750 OFFCURVE",
"48 662 OFFCURVE",
"68 652 OFFCURVE",
"134 656 OFFCURVE",
"182 654 OFFCURVE",
"198 634 OFFCURVE",
"202 460 OFFCURVE",
"198 220 OFFCURVE",
"190 202 OFFCURVE",
"148 126 OFFCURVE",
"58 32 OFFCURVE",
"48 -4 OFFCURVE",
"82 -8 OFFCURVE",
"210 -3 OFFCURVE",
"332 0 QCURVE SMOOTH",
"414 2 OFFCURVE",
"914 -9 OFFCURVE",
"1346 409 OFFCURVE",
"1346 1017 OFFCURVE",
"996 1377 OFFCURVE",
"582 1370 QCURVE SMOOTH",
"336 1366 OFFCURVE",
"98 1380 OFFCURVE",
"60 1368 OFFCURVE"
);
},
{
closed = 1;
nodes = (
"458 99 OFFCURVE",
"452 396 OFFCURVE",
"452 627 OFFCURVE",
"470 652 OFFCURVE",
"599 658 OFFCURVE",
"734 646 OFFCURVE",
"750 660 OFFCURVE",
"752 740 OFFCURVE",
"736 762 OFFCURVE",
"604 760 OFFCURVE",
"472 754 OFFCURVE",
"458 782 OFFCURVE",
"454 1060 OFFCURVE",
"454 1290 OFFCURVE",
"472 1308 OFFCURVE",
"598 1306 QCURVE SMOOTH",
"830 1302 OFFCURVE",
"1070 975 OFFCURVE",
"1071 436 OFFCURVE",
"840 78 OFFCURVE",
"584 76 QCURVE SMOOTH",
"486 75 OFFCURVE"
);
}
);
width = 1416;
}
);
unicode = 00D0;
},
{
color = 7;
glyphname = E;
layers = (
{
layerId = master01;
paths = (
{
closed = 1;
nodes = (
"802 0 OFFCURVE",
"1020 -18 OFFCURVE",
"1082 18 OFFCURVE",
"1096 222 OFFCURVE",
"1114 396 OFFCURVE",
"1092 424 OFFCURVE",
"1060 414 OFFCURVE",
"950 242 OFFCURVE",
"820 72 OFFCURVE",
"646 68 OFFCURVE",
"500 72 OFFCURVE",
"460 116 OFFCURVE",
"450 374 OFFCURVE",
"458 618 OFFCURVE",
"494 654 OFFCURVE",
"735 662 OFFCURVE",
"962 649 OFFCURVE",
"1015 648 OFFCURVE",
"1015 748 OFFCURVE",
"962 748 OFFCURVE",
"735 740 OFFCURVE",
"494 744 OFFCURVE",
"458 794 OFFCURVE",
"454 1014 OFFCURVE",
"462 1256 OFFCURVE",
"516 1302 OFFCURVE",
"632 1308 OFFCURVE",
"798 1302 OFFCURVE",
"904 1152 OFFCURVE",
"994 982 OFFCURVE",
"1034 974 OFFCURVE",
"1042 1012 OFFCURVE",
"1036 1166 OFFCURVE",
"1042 1324 OFFCURVE",
"1034 1372 OFFCURVE",
"984 1380 OFFCURVE",
"726 1368 OFFCURVE",
"602 1368 QCURVE SMOOTH",
"426 1368 OFFCURVE",
"152 1382 OFFCURVE",
"102 1374 OFFCURVE",
"106 1330 OFFCURVE",
"158 1256 OFFCURVE",
"196 1160 OFFCURVE",
"208 712 OFFCURVE",
"200 212 OFFCURVE",
"158 116 OFFCURVE",
"94 38 OFFCURVE",
"92 -16 OFFCURVE",
"152 -16 OFFCURVE",
"392 0 OFFCURVE",
"548 0 QCURVE SMOOTH"
);
}
);
userData = {
com.schriftgestaltung.Glyphs.lastChange = "2020-04-18 01:24:33 +0000";
};
width = 1184;
},
{
layerId = "F16CA8CE-DA8C-4EBD-81D6-AE00C3431B7F";
paths = (
{
closed = 1;
nodes = (
"802 0 OFFCURVE",
"1020 -18 OFFCURVE",
"1082 18 OFFCURVE",
"1096 222 OFFCURVE",
"1114 396 OFFCURVE",
"1092 424 OFFCURVE",
"1060 414 OFFCURVE",
"950 242 OFFCURVE",
"820 72 OFFCURVE",
"646 68 OFFCURVE",
"500 72 OFFCURVE",
"460 116 OFFCURVE",
"450 374 OFFCURVE",
"458 618 OFFCURVE",
"494 654 OFFCURVE",
"735 662 OFFCURVE",
"962 649 OFFCURVE",
"1015 648 OFFCURVE",
"1015 748 OFFCURVE",
"962 748 OFFCURVE",
"735 740 OFFCURVE",
"494 744 OFFCURVE",
"458 794 OFFCURVE",
"454 1014 OFFCURVE",
"462 1256 OFFCURVE",
"516 1302 OFFCURVE",
"632 1308 OFFCURVE",
"798 1302 OFFCURVE",
"904 1152 OFFCURVE",
"994 982 OFFCURVE",
"1034 974 OFFCURVE",
"1042 1012 OFFCURVE",
"1036 1166 OFFCURVE",
"1042 1324 OFFCURVE",
"1034 1372 OFFCURVE",
"984 1380 OFFCURVE",
"726 1368 OFFCURVE",
"602 1368 QCURVE SMOOTH",
"426 1368 OFFCURVE",
"152 1382 OFFCURVE",
"102 1374 OFFCURVE",
"106 1330 OFFCURVE",
"158 1256 OFFCURVE",
"196 1160 OFFCURVE",
"208 712 OFFCURVE",
"200 212 OFFCURVE",
"158 116 OFFCURVE",
"94 38 OFFCURVE",
"92 -16 OFFCURVE",
"152 -16 OFFCURVE",
"392 0 OFFCURVE",
"548 0 QCURVE SMOOTH"
);
}
);
userData = {
com.schriftgestaltung.Glyphs.lastChange = "2020-04-18 01:24:33 +0000";
};
width = 1184;
},
{
layerId = "02ADBE8D-B3BB-4EC7-92FE-8DBAAB138109";
paths = (
{
closed = 1;
nodes = (
"802 0 OFFCURVE",
"1020 -18 OFFCURVE",
"1082 18 OFFCURVE",
"1096 222 OFFCURVE",
"1114 396 OFFCURVE",
"1092 424 OFFCURVE",
"1060 414 OFFCURVE",
"950 242 OFFCURVE",
"820 72 OFFCURVE",
"646 68 OFFCURVE",
"500 72 OFFCURVE",
"460 116 OFFCURVE",
"450 374 OFFCURVE",
"458 618 OFFCURVE",
"494 654 OFFCURVE",
"735 662 OFFCURVE",
"972 649 OFFCURVE",
"1015 648 OFFCURVE",
"1015 748 OFFCURVE",
"972 748 OFFCURVE",
"735 740 OFFCURVE",
"494 744 OFFCURVE",
"458 794 OFFCURVE",
"454 1014 OFFCURVE",
"462 1256 OFFCURVE",
"516 1302 OFFCURVE",
"632 1308 OFFCURVE",
"798 1302 OFFCURVE",
"904 1152 OFFCURVE",
"994 982 OFFCURVE",
"1034 974 OFFCURVE",
"1042 1012 OFFCURVE",
"1036 1166 OFFCURVE",
"1042 1324 OFFCURVE",
"1034 1372 OFFCURVE",
"984 1380 OFFCURVE",
"726 1368 OFFCURVE",
"602 1368 QCURVE SMOOTH",
"426 1368 OFFCURVE",
"152 1382 OFFCURVE",
"102 1374 OFFCURVE",
"106 1330 OFFCURVE",
"158 1256 OFFCURVE",
"196 1160 OFFCURVE",
"208 712 OFFCURVE",
"200 212 OFFCURVE",
"158 116 OFFCURVE",
"94 38 OFFCURVE",
"92 -16 OFFCURVE",
"152 -16 OFFCURVE",
"392 0 OFFCURVE",
"548 0 QCURVE SMOOTH"
);
}
);
userData = {
com.schriftgestaltung.Glyphs.lastChange = "2020-04-18 01:24:33 +0000";
};
width = 1184;
}
);
unicode = 0045;
},
{
color = 7;
glyphname = F;
layers = (
{
layerId = master01;
paths = (
{
closed = 1;
nodes = (
"498 0 OFFCURVE",
"622 -6 OFFCURVE",
"652 -6 OFFCURVE",
"652 36 OFFCURVE",
"554 110 OFFCURVE",
"460 214 OFFCURVE",
"450 374 OFFCURVE",
"458 617 OFFCURVE",
"475 648 OFFCURVE",
"738 652 OFFCURVE",
"944 641 OFFCURVE",
"981 660 OFFCURVE",
"980 727 OFFCURVE",
"942 742 OFFCURVE",
"738 734 OFFCURVE",
"475 736 OFFCURVE",
"458 777 OFFCURVE",
"454 1014 OFFCURVE",
"462 1259 OFFCURVE",
"499 1296 OFFCURVE",
"632 1302 OFFCURVE",
"798 1296 OFFCURVE",
"906 1152 OFFCURVE",
"998 968 OFFCURVE",
"1038 966 OFFCURVE",
"1048 998 OFFCURVE",
"1038 1166 OFFCURVE",
"1044 1310 OFFCURVE",
"1034 1368 OFFCURVE",
"980 1376 OFFCURVE",
"680 1368 OFFCURVE",
"568 1368 QCURVE SMOOTH",
"408 1368 OFFCURVE",
"134 1380 OFFCURVE",
"94 1368 OFFCURVE",
"102 1324 OFFCURVE",
"158 1254 OFFCURVE",
"196 1164 OFFCURVE",
"208 712 OFFCURVE",
"200 212 OFFCURVE",
"158 128 OFFCURVE",
"88 36 OFFCURVE",
"86 -8 OFFCURVE",
"152 -8 OFFCURVE",
"262 0 OFFCURVE",
"368 0 QCURVE SMOOTH"
);
}
);
userData = {
com.schriftgestaltung.Glyphs.lastChange = "2020-04-18 01:25:07 +0000";
};
width = 1124;
},
{
layerId = "F16CA8CE-DA8C-4EBD-81D6-AE00C3431B7F";
paths = (
{
closed = 1;
nodes = (
"498 0 OFFCURVE",
"622 -6 OFFCURVE",
"652 -6 OFFCURVE",
"652 36 OFFCURVE",
"554 110 OFFCURVE",
"460 214 OFFCURVE",
"450 374 OFFCURVE",
"458 617 OFFCURVE",
"475 648 OFFCURVE",
"738 652 OFFCURVE",
"944 641 OFFCURVE",
"981 660 OFFCURVE",
"980 727 OFFCURVE",
"942 742 OFFCURVE",
"738 734 OFFCURVE",
"475 736 OFFCURVE",
"458 777 OFFCURVE",
"454 1014 OFFCURVE",
"462 1259 OFFCURVE",
"499 1296 OFFCURVE",
"632 1302 OFFCURVE",
"798 1296 OFFCURVE",
"906 1152 OFFCURVE",
"998 968 OFFCURVE",
"1038 966 OFFCURVE",
"1048 998 OFFCURVE",
"1038 1166 OFFCURVE",
"1044 1310 OFFCURVE",
"1034 1368 OFFCURVE",
"980 1376 OFFCURVE",
"680 1368 OFFCURVE",
"568 1368 QCURVE SMOOTH",
"408 1368 OFFCURVE",
"134 1380 OFFCURVE",
"94 1368 OFFCURVE",
"102 1324 OFFCURVE",
"158 1254 OFFCURVE",
"196 1164 OFFCURVE",
"208 712 OFFCURVE",
"200 212 OFFCURVE",
"158 128 OFFCURVE",
"88 36 OFFCURVE",
"86 -8 OFFCURVE",
"152 -8 OFFCURVE",
"262 0 OFFCURVE",
"368 0 QCURVE SMOOTH"
);
}
);
userData = {
com.schriftgestaltung.Glyphs.lastChange = "2020-04-18 01:25:07 +0000";
};
width = 1124;
},
{
layerId = "02ADBE8D-B3BB-4EC7-92FE-8DBAAB138109";
paths = (
{
closed = 1;
nodes = (
"498 0 OFFCURVE",
"622 -6 OFFCURVE",
"652 -6 OFFCURVE",
"652 36 OFFCURVE",
"554 110 OFFCURVE",
"460 214 OFFCURVE",
"450 374 OFFCURVE",
"458 617 OFFCURVE",
"475 648 OFFCURVE",
"738 652 OFFCURVE",
"944 641 OFFCURVE",
"981 660 OFFCURVE",
"980 727 OFFCURVE",
"942 742 OFFCURVE",
"738 734 OFFCURVE",
"475 736 OFFCURVE",
"458 777 OFFCURVE",
"454 1014 OFFCURVE",
"462 1259 OFFCURVE",
"499 1296 OFFCURVE",
"632 1302 OFFCURVE",
"798 1296 OFFCURVE",
"906 1152 OFFCURVE",
"998 968 OFFCURVE",
"1038 966 OFFCURVE",
"1048 998 OFFCURVE",
"1038 1166 OFFCURVE",
"1044 1310 OFFCURVE",
"1034 1368 OFFCURVE",
"980 1376 OFFCURVE",
"680 1368 OFFCURVE",
"568 1368 QCURVE SMOOTH",
"408 1368 OFFCURVE",
"134 1380 OFFCURVE",
"94 1368 OFFCURVE",
"102 1324 OFFCURVE",
"158 1254 OFFCURVE",
"196 1164 OFFCURVE",
"208 712 OFFCURVE",
"200 212 OFFCURVE",
"158 128 OFFCURVE",
"88 36 OFFCURVE",
"86 -8 OFFCURVE",
"152 -8 OFFCURVE",
"262 0 OFFCURVE",
"368 0 QCURVE SMOOTH"
);
}
);
userData = {
com.schriftgestaltung.Glyphs.lastChange = "2020-04-18 01:25:07 +0000";
};
width = 1124;
}
);
unicode = 0046;
},
{
color = 7;
glyphname = G;
layers = (
{
layerId = master01;
paths = (
{
closed = 1;
nodes = (
"792 -26 OFFCURVE",
"986 92 OFFCURVE",
"1016 92 OFFCURVE",
"1098 48 OFFCURVE",
"1184 -16 OFFCURVE",
"1206 -20 OFFCURVE",
"1226 4 OFFCURVE",
"1214 312 OFFCURVE",
"1216 516 OFFCURVE",
"1232 534 OFFCURVE",
"1328 590 OFFCURVE",
"1332 622 OFFCURVE",
"1304 630 OFFCURVE",
"1082 616 OFFCURVE",
"780 634 OFFCURVE",
"756 622 OFFCURVE",
"756 588 OFFCURVE",
"868 546 OFFCURVE",
"942 508 OFFCURVE",
"964 484 OFFCURVE",
"968 388 OFFCURVE",
"968 198 OFFCURVE",
"966 162 OFFCURVE",
"934 142 OFFCURVE",
"820 120 OFFCURVE",
"704 120 OFFCURVE",
"490 236 OFFCURVE",
"370 544 OFFCURVE",
"368 1046 OFFCURVE",
"528 1288 OFFCURVE",
"814 1288 OFFCURVE",
"996 1144 OFFCURVE",
"1088 976 OFFCURVE",
"1116 956 OFFCURVE",
"1136 972 OFFCURVE",
"1124 1176 OFFCURVE",
"1130 1336 OFFCURVE",
"1130 1368 OFFCURVE",
"1104 1372 OFFCURVE",
"996 1360 OFFCURVE",
"844 1368 OFFCURVE",
"820 1368 QCURVE SMOOTH",
"588 1368 OFFCURVE",
"248 1156 OFFCURVE",
"70 820 OFFCURVE",
"70 440 OFFCURVE",
"212 140 OFFCURVE",
"476 -26 OFFCURVE",
"654 -26 QCURVE SMOOTH"
);
}
);
userData = {
com.schriftgestaltung.Glyphs.lastChange = "2020-04-17 19:36:31 +0000";
};
width = 1374;
},
{
layerId = "F16CA8CE-DA8C-4EBD-81D6-AE00C3431B7F";
paths = (
{
closed = 1;
nodes = (
"792 -26 OFFCURVE",
"986 92 OFFCURVE",
"1016 92 OFFCURVE",
"1098 48 OFFCURVE",
"1184 -16 OFFCURVE",
"1206 -20 OFFCURVE",
"1226 4 OFFCURVE",
"1214 312 OFFCURVE",
"1216 516 OFFCURVE",
"1232 534 OFFCURVE",
"1328 590 OFFCURVE",
"1332 622 OFFCURVE",
"1304 630 OFFCURVE",
"1082 616 OFFCURVE",
"780 634 OFFCURVE",
"756 622 OFFCURVE",
"756 588 OFFCURVE",
"868 546 OFFCURVE",
"942 508 OFFCURVE",
"964 484 OFFCURVE",
"968 388 OFFCURVE",
"968 198 OFFCURVE",
"964 162 OFFCURVE",
"934 142 OFFCURVE",
"820 120 OFFCURVE",
"704 120 OFFCURVE",
"490 236 OFFCURVE",
"370 544 OFFCURVE",
"368 1046 OFFCURVE",
"528 1288 OFFCURVE",
"814 1288 OFFCURVE",
"996 1144 OFFCURVE",
"1088 976 OFFCURVE",
"1116 956 OFFCURVE",
"1136 972 OFFCURVE",
"1124 1176 OFFCURVE",
"1130 1336 OFFCURVE",
"1130 1368 OFFCURVE",
"1104 1372 OFFCURVE",
"996 1360 OFFCURVE",
"844 1368 OFFCURVE",
"820 1368 QCURVE SMOOTH",
"588 1368 OFFCURVE",
"248 1156 OFFCURVE",
"70 820 OFFCURVE",
"70 440 OFFCURVE",
"212 140 OFFCURVE",
"476 -26 OFFCURVE",
"654 -26 QCURVE SMOOTH"
);
}
);
userData = {
com.schriftgestaltung.Glyphs.lastChange = "2020-04-17 19:36:31 +0000";
};
width = 1374;
},
{
layerId = "02ADBE8D-B3BB-4EC7-92FE-8DBAAB138109";
paths = (
{
closed = 1;
nodes = (
"792 -26 OFFCURVE",
"986 92 OFFCURVE",
"1016 92 OFFCURVE",
"1098 48 OFFCURVE",
"1184 -16 OFFCURVE",
"1206 -20 OFFCURVE",
"1226 4 OFFCURVE",
"1214 312 OFFCURVE",
"1216 516 OFFCURVE",
"1232 534 OFFCURVE",
"1328 590 OFFCURVE",
"1332 622 OFFCURVE",
"1304 630 OFFCURVE",
"1082 616 OFFCURVE",
"780 634 OFFCURVE",
"756 622 OFFCURVE",
"756 588 OFFCURVE",
"868 546 OFFCURVE",
"942 508 OFFCURVE",
"964 484 OFFCURVE",
"968 388 OFFCURVE",
"968 198 OFFCURVE",
"964 162 OFFCURVE",
"934 142 OFFCURVE",
"820 120 OFFCURVE",
"704 120 OFFCURVE",
"490 236 OFFCURVE",
"370 544 OFFCURVE",
"368 1046 OFFCURVE",
"528 1288 OFFCURVE",
"814 1288 OFFCURVE",
"996 1144 OFFCURVE",
"1088 976 OFFCURVE",
"1116 956 OFFCURVE",
"1136 972 OFFCURVE",
"1124 1176 OFFCURVE",
"1130 1336 OFFCURVE",
"1130 1368 OFFCURVE",
"1104 1372 OFFCURVE",
"996 1360 OFFCURVE",
"844 1368 OFFCURVE",
"820 1368 QCURVE SMOOTH",
"588 1368 OFFCURVE",
"248 1156 OFFCURVE",
"70 820 OFFCURVE",
"70 440 OFFCURVE",
"212 140 OFFCURVE",
"476 -26 OFFCURVE",
"654 -26 QCURVE SMOOTH"
);
}
);
userData = {
com.schriftgestaltung.Glyphs.lastChange = "2020-04-17 19:36:31 +0000";
};
width = 1374;
}
);
unicode = 0047;
},
{
color = 7;
glyphname = H;
layers = (
{
layerId = master01;
paths = (
{
closed = 1;
nodes = (
"892 676 OFFCURVE",
"1040 664 OFFCURVE",
"1072 660 OFFCURVE",
"1076 632 OFFCURVE",
"1082 464 OFFCURVE",
"1076 232 OFFCURVE",
"1064 200 OFFCURVE",
"1018 122 OFFCURVE",
"934 44 OFFCURVE",
"926 18 OFFCURVE",
"960 -4 OFFCURVE",
"1234 10 OFFCURVE",
"1448 -10 OFFCURVE",
"1474 2 OFFCURVE",
"1458 38 OFFCURVE",
"1396 108 OFFCURVE",
"1340 200 OFFCURVE",
"1330 224 OFFCURVE",
"1328 732 OFFCURVE",
"1328 1128 OFFCURVE",
"1340 1174 OFFCURVE",
"1408 1284 OFFCURVE",
"1472 1348 OFFCURVE",
"1476 1366 OFFCURVE",
"1444 1380 OFFCURVE",
"1204 1364 OFFCURVE",
"964 1376 OFFCURVE",
"932 1368 OFFCURVE",
"934 1344 OFFCURVE",
"1006 1266 OFFCURVE",
"1066 1164 OFFCURVE",
"1076 1120 OFFCURVE",
"1076 980 OFFCURVE",
"1078 788 OFFCURVE",
"1064 756 OFFCURVE",
"1034 752 OFFCURVE",
"788 748 OFFCURVE",
"748 748 QCURVE SMOOTH",
"664 748 OFFCURVE",
"504 750 OFFCURVE",
"474 756 OFFCURVE",
"464 784 OFFCURVE",
"462 956 OFFCURVE",
"470 1146 OFFCURVE",
"478 1174 OFFCURVE",
"532 1260 OFFCURVE",
"620 1346 OFFCURVE",
"616 1380 OFFCURVE",
"564 1382 OFFCURVE",
"340 1364 OFFCURVE",
"110 1386 OFFCURVE",
"62 1370 OFFCURVE",
"68 1348 OFFCURVE",
"148 1260 OFFCURVE",
"200 1180 OFFCURVE",
"210 1144 OFFCURVE",
"218 732 OFFCURVE",
"208 232 OFFCURVE",
"204 200 OFFCURVE",
"160 128 OFFCURVE",
"76 36 OFFCURVE",
"64 -2 OFFCURVE",
"98 -8 OFFCURVE",
"322 12 OFFCURVE",
"592 -4 OFFCURVE",
"616 8 OFFCURVE",
"600 40 OFFCURVE",
"526 120 OFFCURVE",
"480 192 OFFCURVE",
"468 220 OFFCURVE",
"458 460 OFFCURVE",
"464 636 OFFCURVE",
"468 664 OFFCURVE",
"492 668 OFFCURVE",
"612 676 OFFCURVE",
"762 676 QCURVE SMOOTH"
);
}
);
userData = {
com.schriftgestaltung.Glyphs.lastChange = "2020-04-18 01:31:56 +0000";
};
width = 1560;
},
{
layerId = "F16CA8CE-DA8C-4EBD-81D6-AE00C3431B7F";
paths = (
{
closed = 1;
nodes = (
"892 676 OFFCURVE",
"1040 664 OFFCURVE",
"1072 660 OFFCURVE",
"1076 632 OFFCURVE",
"1082 464 OFFCURVE",
"1076 232 OFFCURVE",
"1064 200 OFFCURVE",
"1018 122 OFFCURVE",
"934 44 OFFCURVE",
"926 18 OFFCURVE",
"960 -4 OFFCURVE",
"1234 10 OFFCURVE",
"1448 -10 OFFCURVE",
"1474 2 OFFCURVE",
"1458 38 OFFCURVE",
"1396 108 OFFCURVE",
"1340 200 OFFCURVE",
"1330 224 OFFCURVE",
"1328 732 OFFCURVE",
"1328 1128 OFFCURVE",
"1340 1174 OFFCURVE",
"1408 1284 OFFCURVE",
"1472 1348 OFFCURVE",
"1476 1366 OFFCURVE",
"1444 1380 OFFCURVE",
"1204 1364 OFFCURVE",
"964 1376 OFFCURVE",
"932 1368 OFFCURVE",
"934 1344 OFFCURVE",
"1006 1266 OFFCURVE",
"1066 1164 OFFCURVE",
"1076 1120 OFFCURVE",
"1076 980 OFFCURVE",
"1078 788 OFFCURVE",
"1064 756 OFFCURVE",
"1034 752 OFFCURVE",
"788 748 OFFCURVE",
"748 748 QCURVE SMOOTH",
"664 748 OFFCURVE",
"504 750 OFFCURVE",
"474 756 OFFCURVE",
"464 784 OFFCURVE",
"462 956 OFFCURVE",
"470 1146 OFFCURVE",
"478 1174 OFFCURVE",
"532 1260 OFFCURVE",
"620 1346 OFFCURVE",
"616 1380 OFFCURVE",
"564 1382 OFFCURVE",
"340 1364 OFFCURVE",
"110 1386 OFFCURVE",
"62 1370 OFFCURVE",
"68 1348 OFFCURVE",
"148 1260 OFFCURVE",
"200 1180 OFFCURVE",
"210 1144 OFFCURVE",
"218 732 OFFCURVE",
"208 232 OFFCURVE",
"204 200 OFFCURVE",
"160 128 OFFCURVE",
"76 36 OFFCURVE",
"64 -2 OFFCURVE",
"98 -8 OFFCURVE",
"322 12 OFFCURVE",
"592 -4 OFFCURVE",
"616 8 OFFCURVE",
"600 40 OFFCURVE",
"526 120 OFFCURVE",
"480 192 OFFCURVE",
"468 220 OFFCURVE",
"458 460 OFFCURVE",
"464 636 OFFCURVE",
"468 664 OFFCURVE",
"492 668 OFFCURVE",
"612 676 OFFCURVE",
"762 676 QCURVE SMOOTH"
);
}
);
userData = {
com.schriftgestaltung.Glyphs.lastChange = "2020-04-18 01:31:56 +0000";
};
width = 1560;
},
{
layerId = "02ADBE8D-B3BB-4EC7-92FE-8DBAAB138109";
paths = (
{
closed = 1;
nodes = (
"892 676 OFFCURVE",
"1040 664 OFFCURVE",
"1072 660 OFFCURVE",
"1076 632 OFFCURVE",
"1082 464 OFFCURVE",
"1076 232 OFFCURVE",
"1064 200 OFFCURVE",
"1018 122 OFFCURVE",
"934 44 OFFCURVE",
"926 18 OFFCURVE",
"960 -4 OFFCURVE",
"1234 10 OFFCURVE",
"1448 -10 OFFCURVE",
"1474 2 OFFCURVE",
"1458 38 OFFCURVE",
"1396 108 OFFCURVE",
"1340 200 OFFCURVE",
"1330 224 OFFCURVE",
"1328 732 OFFCURVE",
"1328 1128 OFFCURVE",
"1340 1174 OFFCURVE",
"1408 1284 OFFCURVE",
"1472 1348 OFFCURVE",
"1476 1366 OFFCURVE",
"1444 1380 OFFCURVE",
"1204 1364 OFFCURVE",
"964 1376 OFFCURVE",
"932 1368 OFFCURVE",
"934 1344 OFFCURVE",
"1006 1266 OFFCURVE",
"1066 1164 OFFCURVE",
"1076 1120 OFFCURVE",
"1076 980 OFFCURVE",
"1078 788 OFFCURVE",
"1064 756 OFFCURVE",
"1034 752 OFFCURVE",
"788 748 OFFCURVE",
"748 748 QCURVE SMOOTH",
"664 748 OFFCURVE",
"504 750 OFFCURVE",
"474 756 OFFCURVE",
"464 784 OFFCURVE",
"462 956 OFFCURVE",
"470 1146 OFFCURVE",
"478 1174 OFFCURVE",
"532 1260 OFFCURVE",
"620 1346 OFFCURVE",
"616 1380 OFFCURVE",
"564 1382 OFFCURVE",
"340 1364 OFFCURVE",
"110 1386 OFFCURVE",
"62 1370 OFFCURVE",
"68 1348 OFFCURVE",
"148 1260 OFFCURVE",
"200 1180 OFFCURVE",
"210 1144 OFFCURVE",
"218 732 OFFCURVE",
"208 232 OFFCURVE",
"204 200 OFFCURVE",
"160 128 OFFCURVE",
"76 36 OFFCURVE",
"64 -2 OFFCURVE",
"98 -8 OFFCURVE",
"322 12 OFFCURVE",
"592 -4 OFFCURVE",
"616 8 OFFCURVE",
"600 40 OFFCURVE",
"526 120 OFFCURVE",
"480 192 OFFCURVE",
"468 220 OFFCURVE",
"458 460 OFFCURVE",
"464 636 OFFCURVE",
"468 664 OFFCURVE",
"492 668 OFFCURVE",
"612 676 OFFCURVE",
"762 676 QCURVE SMOOTH"
);
}
);
userData = {
com.schriftgestaltung.Glyphs.lastChange = "2020-04-18 01:31:56 +0000";
};
width = 1560;
}
);
unicode = 0048;
},
{
color = 7;
glyphname = I;
layers = (
{
layerId = master01;
paths = (
{
closed = 1;
nodes = (
"416 12 OFFCURVE",
"556 -8 OFFCURVE",
"620 -2 OFFCURVE",
"614 46 OFFCURVE",
"548 108 OFFCURVE",
"484 196 OFFCURVE",
"476 224 OFFCURVE",
"468 786 OFFCURVE",
"480 1136 OFFCURVE",
"500 1180 OFFCURVE",
"556 1260 OFFCURVE",
"622 1330 OFFCURVE",
"642 1380 OFFCURVE",
"590 1390 OFFCURVE",
"472 1372 OFFCURVE",
"360 1372 QCURVE SMOOTH",
"270 1372 OFFCURVE",
"134 1394 OFFCURVE",
"82 1370 OFFCURVE",
"102 1310 OFFCURVE",
"172 1256 OFFCURVE",
"216 1184 OFFCURVE",
"232 1146 OFFCURVE",
"244 770 OFFCURVE",
"232 228 OFFCURVE",
"228 196 OFFCURVE",
"182 122 OFFCURVE",
"104 56 OFFCURVE",
"70 10 OFFCURVE",
"112 -14 OFFCURVE",
"300 12 OFFCURVE",
"352 12 QCURVE SMOOTH"
);
}
);
userData = {
com.schriftgestaltung.Glyphs.lastChange = "2020-04-17 19:36:31 +0000";
};
width = 716;
},
{
layerId = "F16CA8CE-DA8C-4EBD-81D6-AE00C3431B7F";
paths = (
{
closed = 1;
nodes = (
"416 12 OFFCURVE",
"556 -8 OFFCURVE",
"620 -2 OFFCURVE",
"614 46 OFFCURVE",
"548 108 OFFCURVE",
"484 196 OFFCURVE",
"476 224 OFFCURVE",
"468 786 OFFCURVE",
"480 1136 OFFCURVE",
"500 1180 OFFCURVE",
"556 1260 OFFCURVE",
"622 1330 OFFCURVE",
"642 1380 OFFCURVE",
"590 1390 OFFCURVE",
"472 1372 OFFCURVE",
"360 1372 QCURVE SMOOTH",
"270 1372 OFFCURVE",
"134 1394 OFFCURVE",
"82 1370 OFFCURVE",
"102 1310 OFFCURVE",
"172 1256 OFFCURVE",
"216 1184 OFFCURVE",
"232 1146 OFFCURVE",
"244 770 OFFCURVE",
"232 228 OFFCURVE",
"228 196 OFFCURVE",
"182 122 OFFCURVE",
"104 56 OFFCURVE",
"70 10 OFFCURVE",
"112 -14 OFFCURVE",
"300 12 OFFCURVE",
"352 12 QCURVE SMOOTH"
);
}
);
userData = {
com.schriftgestaltung.Glyphs.lastChange = "2020-04-17 19:36:31 +0000";
};
width = 716;
},
{
layerId = "02ADBE8D-B3BB-4EC7-92FE-8DBAAB138109";
paths = (
{
closed = 1;
nodes = (
"416 12 OFFCURVE",
"556 -8 OFFCURVE",
"620 -2 OFFCURVE",
"614 46 OFFCURVE",
"548 108 OFFCURVE",
"484 196 OFFCURVE",
"476 224 OFFCURVE",
"468 786 OFFCURVE",
"480 1136 OFFCURVE",
"500 1180 OFFCURVE",
"556 1260 OFFCURVE",
"622 1330 OFFCURVE",
"642 1380 OFFCURVE",
"590 1390 OFFCURVE",
"472 1372 OFFCURVE",
"360 1372 QCURVE SMOOTH",
"270 1372 OFFCURVE",
"134 1394 OFFCURVE",
"82 1370 OFFCURVE",
"102 1310 OFFCURVE",
"172 1256 OFFCURVE",
"216 1184 OFFCURVE",
"232 1146 OFFCURVE",
"244 770 OFFCURVE",
"232 228 OFFCURVE",
"228 196 OFFCURVE",
"182 122 OFFCURVE",
"104 56 OFFCURVE",
"70 10 OFFCURVE",
"112 -14 OFFCURVE",
"300 12 OFFCURVE",
"352 12 QCURVE SMOOTH"
);
}
);
userData = {
com.schriftgestaltung.Glyphs.lastChange = "2020-04-17 19:36:31 +0000";
};
width = 716;
}
);
unicode = 0049;
},
{
color = 7;
glyphname = J;
layers = (
{
layerId = master01;
paths = (
{
closed = 1;
nodes = (
"194 -380 OFFCURVE",
"306 -310 OFFCURVE",
"468 -98 OFFCURVE",
"468 130 OFFCURVE",
"456 728 OFFCURVE",
"468 1160 OFFCURVE",
"532 1260 OFFCURVE",
"596 1326 OFFCURVE",
"608 1360 OFFCURVE",
"586 1378 OFFCURVE",
"404 1364 OFFCURVE",
"332 1364 QCURVE SMOOTH",
"284 1364 OFFCURVE",
"108 1376 OFFCURVE",
"76 1368 OFFCURVE",
"80 1332 OFFCURVE",
"144 1256 OFFCURVE",
"208 1160 OFFCURVE",
"218 678 OFFCURVE",
"208 -194 OFFCURVE",
"176 -320 OFFCURVE",
"160 -350 OFFCURVE",
"164 -380 OFFCURVE",
"184 -380 QCURVE SMOOTH"
);
}
);
userData = {
com.schriftgestaltung.Glyphs.lastChange = "2020-04-18 20:40:42 +0000";
};
width = 676;
},
{
layerId = "F16CA8CE-DA8C-4EBD-81D6-AE00C3431B7F";
paths = (
{
closed = 1;
nodes = (
"194 -380 OFFCURVE",
"306 -310 OFFCURVE",
"468 -98 OFFCURVE",
"468 130 OFFCURVE",
"456 728 OFFCURVE",
"468 1160 OFFCURVE",
"532 1260 OFFCURVE",
"596 1326 OFFCURVE",
"608 1360 OFFCURVE",
"586 1378 OFFCURVE",
"404 1364 OFFCURVE",
"332 1364 QCURVE SMOOTH",
"284 1364 OFFCURVE",
"108 1376 OFFCURVE",
"76 1368 OFFCURVE",
"80 1332 OFFCURVE",
"144 1256 OFFCURVE",
"208 1160 OFFCURVE",
"218 678 OFFCURVE",
"208 -194 OFFCURVE",
"176 -320 OFFCURVE",
"160 -350 OFFCURVE",
"164 -380 OFFCURVE",
"184 -380 QCURVE SMOOTH"
);
}
);
userData = {
com.schriftgestaltung.Glyphs.lastChange = "2020-04-18 20:40:42 +0000";
};
width = 676;
},
{
layerId = "02ADBE8D-B3BB-4EC7-92FE-8DBAAB138109";
paths = (
{
closed = 1;
nodes = (
"194 -380 OFFCURVE",
"306 -310 OFFCURVE",
"468 -98 OFFCURVE",
"468 130 OFFCURVE",
"456 728 OFFCURVE",
"468 1160 OFFCURVE",
"532 1260 OFFCURVE",
"596 1326 OFFCURVE",
"608 1360 OFFCURVE",
"586 1378 OFFCURVE",
"404 1364 OFFCURVE",
"332 1364 QCURVE SMOOTH",
"284 1364 OFFCURVE",
"108 1376 OFFCURVE",
"76 1368 OFFCURVE",
"80 1332 OFFCURVE",
"144 1256 OFFCURVE",
"208 1160 OFFCURVE",
"218 678 OFFCURVE",
"208 -194 OFFCURVE",
"176 -320 OFFCURVE",
"160 -350 OFFCURVE",
"164 -380 OFFCURVE",
"184 -380 QCURVE SMOOTH"
);
}
);
userData = {
com.schriftgestaltung.Glyphs.lastChange = "2020-04-18 20:40:42 +0000";
};
width = 676;
}
);
unicode = 004A;
},
{
color = 7;
glyphname = K;
layers = (
{
layerId = master01;
paths = (
{
closed = 1;
nodes = (
"394 0 OFFCURVE",
"596 -12 OFFCURVE",
"624 -12 OFFCURVE",
"628 20 OFFCURVE",
"552 100 OFFCURVE",
"486 212 OFFCURVE",
"484 420 OFFCURVE",
"490 552 OFFCURVE",
"498 572 OFFCURVE",
"556 632 OFFCURVE",
"574 640 OFFCURVE",
"594 616 OFFCURVE",
"758 408 OFFCURVE",
"940 146 OFFCURVE",
"950 124 OFFCURVE",
"936 106 OFFCURVE",
"912 74 OFFCURVE",
"866 22 OFFCURVE",
"866 -4 OFFCURVE",
"888 -8 OFFCURVE",
"1184 8 OFFCURVE",
"1484 -8 OFFCURVE",
"1492 8 OFFCURVE",
"1472 36 OFFCURVE",
"1396 72 OFFCURVE",
"1276 152 OFFCURVE",
"996 520 OFFCURVE",
"776 820 OFFCURVE",
"764 840 OFFCURVE",
"776 860 OFFCURVE",
"952 1038 OFFCURVE",
"1126 1200 OFFCURVE",
"1244 1280 OFFCURVE",
"1372 1344 OFFCURVE",
"1390 1366 OFFCURVE",
"1374 1376 OFFCURVE",
"1182 1364 OFFCURVE",
"962 1376 OFFCURVE",
"944 1362 OFFCURVE",
"954 1342 OFFCURVE",
"976 1298 OFFCURVE",
"998 1250 OFFCURVE",
"1004 1230 OFFCURVE",
"992 1212 OFFCURVE",
"784 988 OFFCURVE",
"514 714 OFFCURVE",
"492 700 OFFCURVE",
"484 722 OFFCURVE",
"482 956 OFFCURVE",
"482 1150 OFFCURVE",
"494 1172 OFFCURVE",
"546 1258 OFFCURVE",
"626 1348 OFFCURVE",
"622 1378 OFFCURVE",
"592 1380 OFFCURVE",
"424 1364 OFFCURVE",
"368 1364 QCURVE SMOOTH",
"310 1364 OFFCURVE",
"110 1382 OFFCURVE",
"80 1372 OFFCURVE",
"84 1350 OFFCURVE",
"156 1270 OFFCURVE",
"228 1160 OFFCURVE",
"228 1072 OFFCURVE",
"234 674 OFFCURVE",
"228 212 OFFCURVE",
"170 120 OFFCURVE",
"108 42 OFFCURVE",
"86 2 OFFCURVE",
"116 -10 OFFCURVE",
"286 0 OFFCURVE",
"340 0 QCURVE SMOOTH"
);
}
);
userData = {
com.schriftgestaltung.Glyphs.lastChange = "2020-04-18 21:16:26 +0000";
};
width = 1538;
},
{
layerId = "F16CA8CE-DA8C-4EBD-81D6-AE00C3431B7F";
paths = (
{
closed = 1;
nodes = (
"394 0 OFFCURVE",
"596 -12 OFFCURVE",
"624 -12 OFFCURVE",
"628 20 OFFCURVE",
"552 100 OFFCURVE",
"486 212 OFFCURVE",
"484 420 OFFCURVE",
"490 552 OFFCURVE",
"498 572 OFFCURVE",
"556 632 OFFCURVE",
"574 640 OFFCURVE",
"594 616 OFFCURVE",
"758 408 OFFCURVE",
"940 146 OFFCURVE",
"950 124 OFFCURVE",
"936 106 OFFCURVE",
"912 74 OFFCURVE",
"866 22 OFFCURVE",
"866 -4 OFFCURVE",
"888 -8 OFFCURVE",
"1184 8 OFFCURVE",
"1484 -8 OFFCURVE",
"1492 8 OFFCURVE",
"1472 36 OFFCURVE",
"1396 72 OFFCURVE",
"1276 152 OFFCURVE",
"996 520 OFFCURVE",
"776 820 OFFCURVE",
"764 840 OFFCURVE",
"776 860 OFFCURVE",
"952 1038 OFFCURVE",
"1126 1200 OFFCURVE",
"1244 1280 OFFCURVE",
"1372 1344 OFFCURVE",
"1390 1366 OFFCURVE",
"1374 1376 OFFCURVE",
"1182 1364 OFFCURVE",
"962 1376 OFFCURVE",
"944 1362 OFFCURVE",
"954 1342 OFFCURVE",
"976 1298 OFFCURVE",
"998 1250 OFFCURVE",
"1004 1230 OFFCURVE",
"992 1212 OFFCURVE",
"784 988 OFFCURVE",
"514 714 OFFCURVE",
"492 700 OFFCURVE",
"484 722 OFFCURVE",
"482 956 OFFCURVE",
"482 1150 OFFCURVE",
"494 1172 OFFCURVE",
"546 1258 OFFCURVE",
"626 1348 OFFCURVE",
"622 1378 OFFCURVE",
"592 1380 OFFCURVE",
"424 1364 OFFCURVE",
"368 1364 QCURVE SMOOTH",
"310 1364 OFFCURVE",
"110 1382 OFFCURVE",
"80 1372 OFFCURVE",
"84 1350 OFFCURVE",
"156 1270 OFFCURVE",
"228 1160 OFFCURVE",
"228 1072 OFFCURVE",
"234 674 OFFCURVE",
"228 212 OFFCURVE",
"170 120 OFFCURVE",
"108 42 OFFCURVE",
"86 2 OFFCURVE",
"116 -10 OFFCURVE",
"286 0 OFFCURVE",
"340 0 QCURVE SMOOTH"
);
}
);
userData = {
com.schriftgestaltung.Glyphs.lastChange = "2020-04-18 21:16:26 +0000";
};
width = 1538;
},
{
layerId = "02ADBE8D-B3BB-4EC7-92FE-8DBAAB138109";
paths = (
{
closed = 1;
nodes = (
"394 0 OFFCURVE",
"596 -12 OFFCURVE",
"624 -12 OFFCURVE",
"628 20 OFFCURVE",
"552 100 OFFCURVE",
"486 212 OFFCURVE",
"484 420 OFFCURVE",
"490 552 OFFCURVE",
"498 572 OFFCURVE",
"556 632 OFFCURVE",
"574 640 OFFCURVE",
"594 616 OFFCURVE",
"758 408 OFFCURVE",
"940 146 OFFCURVE",
"950 124 OFFCURVE",
"936 106 OFFCURVE",
"912 74 OFFCURVE",
"866 22 OFFCURVE",
"866 -4 OFFCURVE",
"888 -8 OFFCURVE",
"1184 8 OFFCURVE",
"1484 -8 OFFCURVE",
"1492 8 OFFCURVE",
"1472 36 OFFCURVE",
"1396 72 OFFCURVE",
"1276 152 OFFCURVE",
"996 520 OFFCURVE",
"776 820 OFFCURVE",
"764 840 OFFCURVE",
"776 860 OFFCURVE",
"952 1038 OFFCURVE",
"1126 1200 OFFCURVE",
"1244 1280 OFFCURVE",
"1372 1344 OFFCURVE",
"1390 1366 OFFCURVE",
"1374 1376 OFFCURVE",
"1182 1364 OFFCURVE",
"962 1376 OFFCURVE",
"944 1362 OFFCURVE",
"954 1342 OFFCURVE",
"976 1298 OFFCURVE",
"998 1250 OFFCURVE",
"1004 1230 OFFCURVE",
"992 1212 OFFCURVE",
"784 988 OFFCURVE",
"514 714 OFFCURVE",
"492 700 OFFCURVE",
"484 722 OFFCURVE",
"482 956 OFFCURVE",
"482 1150 OFFCURVE",
"494 1172 OFFCURVE",
"546 1258 OFFCURVE",
"626 1348 OFFCURVE",
"622 1378 OFFCURVE",
"592 1380 OFFCURVE",
"424 1364 OFFCURVE",
"368 1364 QCURVE SMOOTH",
"310 1364 OFFCURVE",
"110 1382 OFFCURVE",
"80 1372 OFFCURVE",
"84 1350 OFFCURVE",
"156 1270 OFFCURVE",
"228 1160 OFFCURVE",
"228 1072 OFFCURVE",
"234 674 OFFCURVE",
"228 212 OFFCURVE",
"170 120 OFFCURVE",
"108 42 OFFCURVE",
"86 2 OFFCURVE",
"116 -10 OFFCURVE",
"286 0 OFFCURVE",
"340 0 QCURVE SMOOTH"
);
}
);
userData = {
com.schriftgestaltung.Glyphs.lastChange = "2020-04-18 21:16:26 +0000";
};
width = 1538;
}
);
unicode = 004B;
},
{
color = 7;
glyphname = L;
layers = (
{
layerId = master01;
paths = (
{
closed = 1;
nodes = (
"1158 212 OFFCURVE",
"1160 416 OFFCURVE",
"1142 430 OFFCURVE",
"1124 416 OFFCURVE",
"1002 238 OFFCURVE",
"886 96 OFFCURVE",
"864 84 OFFCURVE",
"676 84 OFFCURVE",
"476 86 OFFCURVE",
"456 130 OFFCURVE",
"456 748 OFFCURVE",
"460 1138 OFFCURVE",
"464 1168 OFFCURVE",
"532 1272 OFFCURVE",
"592 1342 OFFCURVE",
"608 1364 OFFCURVE",
"588 1380 OFFCURVE",
"392 1364 OFFCURVE",
"344 1364 QCURVE SMOOTH",
"296 1364 OFFCURVE",
"120 1380 OFFCURVE",
"92 1372 OFFCURVE",
"96 1340 OFFCURVE",
"140 1278 OFFCURVE",
"200 1162 OFFCURVE",
"200 1132 OFFCURVE",
"200 680 OFFCURVE",
"204 242 OFFCURVE",
"200 212 OFFCURVE",
"154 114 OFFCURVE",
"88 28 OFFCURVE",
"84 -4 OFFCURVE",
"120 -16 OFFCURVE",
"488 0 OFFCURVE",
"572 0 QCURVE SMOOTH",
"668 0 OFFCURVE",
"1092 -4 OFFCURVE",
"1128 0 OFFCURVE",
"1144 36 OFFCURVE"
);
}
);
userData = {
com.schriftgestaltung.Glyphs.lastChange = "2020-04-18 21:25:10 +0000";
};
width = 1220;
},
{
layerId = "F16CA8CE-DA8C-4EBD-81D6-AE00C3431B7F";
paths = (
{
closed = 1;
nodes = (
"1158 212 OFFCURVE",
"1160 416 OFFCURVE",
"1142 430 OFFCURVE",
"1124 416 OFFCURVE",
"1002 238 OFFCURVE",
"886 96 OFFCURVE",
"864 84 OFFCURVE",
"676 84 OFFCURVE",
"476 86 OFFCURVE",
"456 130 OFFCURVE",
"456 748 OFFCURVE",
"460 1138 OFFCURVE",
"464 1168 OFFCURVE",
"532 1272 OFFCURVE",
"592 1342 OFFCURVE",
"608 1364 OFFCURVE",
"588 1380 OFFCURVE",
"392 1364 OFFCURVE",
"344 1364 QCURVE SMOOTH",
"296 1364 OFFCURVE",
"120 1380 OFFCURVE",
"92 1372 OFFCURVE",
"96 1340 OFFCURVE",
"140 1278 OFFCURVE",
"200 1162 OFFCURVE",
"200 1132 OFFCURVE",
"200 680 OFFCURVE",
"204 242 OFFCURVE",
"200 212 OFFCURVE",
"154 114 OFFCURVE",
"88 28 OFFCURVE",
"84 -4 OFFCURVE",
"120 -16 OFFCURVE",
"488 0 OFFCURVE",
"572 0 QCURVE SMOOTH",
"668 0 OFFCURVE",
"1092 -4 OFFCURVE",
"1128 0 OFFCURVE",
"1144 36 OFFCURVE"
);
}
);
userData = {
com.schriftgestaltung.Glyphs.lastChange = "2020-04-18 21:25:10 +0000";
};
width = 1220;
},
{
layerId = "02ADBE8D-B3BB-4EC7-92FE-8DBAAB138109";
paths = (
{
closed = 1;
nodes = (
"1158 212 OFFCURVE",
"1160 416 OFFCURVE",
"1142 430 OFFCURVE",
"1124 416 OFFCURVE",
"1002 238 OFFCURVE",
"886 96 OFFCURVE",
"864 84 OFFCURVE",
"676 84 OFFCURVE",
"476 86 OFFCURVE",
"456 130 OFFCURVE",
"456 748 OFFCURVE",
"460 1138 OFFCURVE",
"464 1168 OFFCURVE",
"532 1272 OFFCURVE",
"592 1342 OFFCURVE",
"608 1364 OFFCURVE",
"588 1380 OFFCURVE",
"392 1364 OFFCURVE",
"344 1364 QCURVE SMOOTH",
"296 1364 OFFCURVE",
"120 1380 OFFCURVE",
"92 1372 OFFCURVE",
"96 1340 OFFCURVE",
"140 1278 OFFCURVE",
"200 1162 OFFCURVE",
"200 1132 OFFCURVE",
"200 680 OFFCURVE",
"204 242 OFFCURVE",
"200 212 OFFCURVE",
"154 114 OFFCURVE",
"88 28 OFFCURVE",
"84 -4 OFFCURVE",
"120 -16 OFFCURVE",
"488 0 OFFCURVE",
"572 0 QCURVE SMOOTH",
"668 0 OFFCURVE",
"1092 -4 OFFCURVE",
"1128 0 OFFCURVE",
"1144 36 OFFCURVE"
);
}
);
userData = {
com.schriftgestaltung.Glyphs.lastChange = "2020-04-18 21:25:10 +0000";
};
width = 1220;
}
);
unicode = 004C;
},
{
color = 7;
glyphname = Lslash;
layers = (
{
layerId = master01;
paths = (
{
closed = 1;
nodes = (
"1162 6 OFFCURVE",
"1168 36 OFFCURVE",
"1180 218 OFFCURVE",
"1182 404 OFFCURVE",
"1170 434 OFFCURVE",
"1138 418 OFFCURVE",
"1024 246 OFFCURVE",
"890 80 OFFCURVE",
"860 66 OFFCURVE",
"690 64 OFFCURVE",
"500 66 OFFCURVE",
"474 90 OFFCURVE",
"472 394 OFFCURVE",
"474 634 OFFCURVE",
"494 658 OFFCURVE",
"599 686 OFFCURVE",
"720 713 OFFCURVE",
"748 729 OFFCURVE",
"741 853 OFFCURVE",
"702 852 OFFCURVE",
"617 817 OFFCURVE",
"496 781 OFFCURVE",
"474 792 OFFCURVE",
"472 961 OFFCURVE",
"472 1118 OFFCURVE",
"478 1162 OFFCURVE",
"558 1270 OFFCURVE",
"640 1336 OFFCURVE",
"638 1382 OFFCURVE",
"590 1386 OFFCURVE",
"357 1374 OFFCURVE",
"306 1372 QCURVE SMOOTH",
"251 1370 OFFCURVE",
"148 1380 OFFCURVE",
"100 1379 OFFCURVE",
"102 1344 OFFCURVE",
"168 1258 OFFCURVE",
"211 1178 OFFCURVE",
"222 1145 OFFCURVE",
"228 948 OFFCURVE",
"226 714 OFFCURVE",
"210 692 OFFCURVE",
"115 668 OFFCURVE",
"25 648 OFFCURVE",
"14 620 OFFCURVE",
"18 528 OFFCURVE",
"34 520 OFFCURVE",
"134 558 OFFCURVE",
"206 582 OFFCURVE",
"220 564 OFFCURVE",
"226 442 OFFCURVE",
"224 238 OFFCURVE",
"222 202 OFFCURVE",
"165 110 OFFCURVE",
"95 16 OFFCURVE",
"107 -6 OFFCURVE",
"148 -8 OFFCURVE",
"345 0 OFFCURVE",
"504 0 QCURVE SMOOTH",
"792 0 OFFCURVE",
"1124 -4 OFFCURVE"
);
}
);
width = 1248;
},
{
layerId = "F16CA8CE-DA8C-4EBD-81D6-AE00C3431B7F";
paths = (
{
closed = 1;
nodes = (
"1162 6 OFFCURVE",
"1168 36 OFFCURVE",
"1180 218 OFFCURVE",
"1182 404 OFFCURVE",
"1170 434 OFFCURVE",
"1138 418 OFFCURVE",
"1024 246 OFFCURVE",
"890 80 OFFCURVE",
"860 66 OFFCURVE",
"690 64 OFFCURVE",
"500 66 OFFCURVE",
"474 90 OFFCURVE",
"472 394 OFFCURVE",
"474 634 OFFCURVE",
"494 658 OFFCURVE",
"599 686 OFFCURVE",
"720 713 OFFCURVE",
"748 729 OFFCURVE",
"741 853 OFFCURVE",
"702 852 OFFCURVE",
"617 817 OFFCURVE",
"496 781 OFFCURVE",
"474 792 OFFCURVE",
"472 961 OFFCURVE",
"472 1118 OFFCURVE",
"478 1162 OFFCURVE",
"558 1270 OFFCURVE",
"640 1336 OFFCURVE",
"638 1382 OFFCURVE",
"590 1386 OFFCURVE",
"357 1374 OFFCURVE",
"306 1372 QCURVE SMOOTH",
"251 1370 OFFCURVE",
"148 1380 OFFCURVE",
"100 1379 OFFCURVE",
"102 1344 OFFCURVE",
"168 1258 OFFCURVE",
"211 1178 OFFCURVE",
"222 1145 OFFCURVE",
"228 948 OFFCURVE",
"226 714 OFFCURVE",
"210 692 OFFCURVE",
"115 668 OFFCURVE",
"25 648 OFFCURVE",
"14 620 OFFCURVE",
"18 528 OFFCURVE",
"34 520 OFFCURVE",
"134 558 OFFCURVE",
"206 582 OFFCURVE",
"220 564 OFFCURVE",
"226 442 OFFCURVE",
"224 238 OFFCURVE",
"222 202 OFFCURVE",
"165 110 OFFCURVE",
"95 16 OFFCURVE",
"107 -6 OFFCURVE",
"148 -8 OFFCURVE",
"345 0 OFFCURVE",
"504 0 QCURVE SMOOTH",
"792 0 OFFCURVE",
"1124 -4 OFFCURVE"
);
}
);
width = 1248;
},
{
layerId = "02ADBE8D-B3BB-4EC7-92FE-8DBAAB138109";
paths = (
{
closed = 1;
nodes = (
"1162 6 OFFCURVE",
"1168 36 OFFCURVE",
"1180 218 OFFCURVE",
"1182 404 OFFCURVE",
"1170 434 OFFCURVE",
"1138 418 OFFCURVE",
"1024 246 OFFCURVE",
"890 80 OFFCURVE",
"860 66 OFFCURVE",
"690 64 OFFCURVE",
"500 66 OFFCURVE",
"474 90 OFFCURVE",
"472 394 OFFCURVE",
"474 634 OFFCURVE",
"494 658 OFFCURVE",
"599 686 OFFCURVE",
"720 713 OFFCURVE",
"748 729 OFFCURVE",
"741 853 OFFCURVE",
"702 852 OFFCURVE",
"617 817 OFFCURVE",
"496 781 OFFCURVE",
"474 792 OFFCURVE",
"472 961 OFFCURVE",
"472 1118 OFFCURVE",
"478 1162 OFFCURVE",
"558 1270 OFFCURVE",
"640 1336 OFFCURVE",
"638 1382 OFFCURVE",
"590 1386 OFFCURVE",
"357 1374 OFFCURVE",
"306 1372 QCURVE SMOOTH",
"251 1370 OFFCURVE",
"148 1380 OFFCURVE",
"100 1379 OFFCURVE",
"102 1344 OFFCURVE",
"168 1258 OFFCURVE",
"211 1178 OFFCURVE",
"222 1145 OFFCURVE",
"228 948 OFFCURVE",
"226 714 OFFCURVE",
"210 692 OFFCURVE",
"115 668 OFFCURVE",
"25 648 OFFCURVE",
"14 620 OFFCURVE",
"18 528 OFFCURVE",
"34 520 OFFCURVE",
"134 558 OFFCURVE",
"206 582 OFFCURVE",
"220 564 OFFCURVE",
"226 442 OFFCURVE",
"224 238 OFFCURVE",
"222 202 OFFCURVE",
"165 110 OFFCURVE",
"95 16 OFFCURVE",
"107 -6 OFFCURVE",
"148 -8 OFFCURVE",
"345 0 OFFCURVE",
"504 0 QCURVE SMOOTH",
"792 0 OFFCURVE",
"1124 -4 OFFCURVE"
);
}
);
width = 1248;
}
);
unicode = 0141;
},
{
color = 7;
glyphname = M;
layers = (
{
layerId = master01;
paths = (
{
closed = 1;
nodes = (
"1542 4 OFFCURVE",
"1720 -6 OFFCURVE",
"1756 2 OFFCURVE",
"1740 46 OFFCURVE",
"1674 110 OFFCURVE",
"1616 214 OFFCURVE",
"1604 650 OFFCURVE",
"1616 1180 OFFCURVE",
"1620 1218 OFFCURVE",
"1676 1292 OFFCURVE",
"1740 1338 OFFCURVE",
"1738 1374 OFFCURVE",
"1710 1376 OFFCURVE",
"1602 1366 OFFCURVE",
"1536 1368 QCURVE SMOOTH",
"1492 1370 OFFCURVE",
"1362 1378 OFFCURVE",
"1332 1366 OFFCURVE",
"1316 1332 OFFCURVE",
"1156 924 OFFCURVE",
"936 414 OFFCURVE",
"912 388 OFFCURVE",
"888 418 OFFCURVE",
"660 884 OFFCURVE",
"456 1334 OFFCURVE",
"432 1372 OFFCURVE",
"394 1372 OFFCURVE",
"226 1364 OFFCURVE",
"72 1376 OFFCURVE",
"46 1368 OFFCURVE",
"60 1336 OFFCURVE",
"134 1270 OFFCURVE",
"202 1174 OFFCURVE",
"212 1142 OFFCURVE",
"218 744 OFFCURVE",
"212 224 OFFCURVE",
"212 180 OFFCURVE",
"160 104 OFFCURVE",
"82 34 OFFCURVE",
"64 6 OFFCURVE",
"82 -8 OFFCURVE",
"256 4 OFFCURVE",
"430 -8 OFFCURVE",
"460 -8 OFFCURVE",
"456 18 OFFCURVE",
"376 96 OFFCURVE",
"308 188 OFFCURVE",
"304 228 OFFCURVE",
"300 720 OFFCURVE",
"304 962 OFFCURVE",
"314 982 OFFCURVE",
"334 964 OFFCURVE",
"538 568 OFFCURVE",
"804 2 OFFCURVE",
"832 -30 OFFCURVE",
"858 6 OFFCURVE",
"1094 592 OFFCURVE",
"1334 1130 OFFCURVE",
"1350 1150 OFFCURVE",
"1362 1128 OFFCURVE",
"1360 664 OFFCURVE",
"1350 210 OFFCURVE",
"1292 116 OFFCURVE",
"1206 34 OFFCURVE",
"1196 -2 OFFCURVE",
"1232 -8 OFFCURVE",
"1408 4 OFFCURVE",
"1484 4 QCURVE SMOOTH"
);
}
);
userData = {
com.schriftgestaltung.Glyphs.lastChange = "2020-04-18 21:56:32 +0000";
};
width = 1832;
},
{
layerId = "F16CA8CE-DA8C-4EBD-81D6-AE00C3431B7F";
paths = (
{
closed = 1;
nodes = (
"1542 4 OFFCURVE",
"1720 -6 OFFCURVE",
"1756 2 OFFCURVE",
"1740 46 OFFCURVE",
"1674 110 OFFCURVE",
"1616 214 OFFCURVE",
"1604 650 OFFCURVE",
"1616 1180 OFFCURVE",
"1620 1218 OFFCURVE",
"1676 1292 OFFCURVE",
"1740 1338 OFFCURVE",
"1738 1374 OFFCURVE",
"1710 1376 OFFCURVE",
"1602 1366 OFFCURVE",
"1536 1368 QCURVE SMOOTH",
"1492 1370 OFFCURVE",
"1362 1378 OFFCURVE",
"1332 1366 OFFCURVE",
"1316 1332 OFFCURVE",
"1156 924 OFFCURVE",
"936 414 OFFCURVE",
"912 388 OFFCURVE",
"888 418 OFFCURVE",
"660 884 OFFCURVE",
"456 1334 OFFCURVE",
"432 1372 OFFCURVE",
"394 1372 OFFCURVE",
"226 1364 OFFCURVE",
"72 1376 OFFCURVE",
"46 1368 OFFCURVE",
"60 1336 OFFCURVE",
"134 1270 OFFCURVE",
"202 1174 OFFCURVE",
"212 1142 OFFCURVE",
"218 744 OFFCURVE",
"212 224 OFFCURVE",
"212 180 OFFCURVE",
"160 104 OFFCURVE",
"82 34 OFFCURVE",
"64 6 OFFCURVE",
"82 -8 OFFCURVE",
"256 4 OFFCURVE",
"430 -8 OFFCURVE",
"460 -8 OFFCURVE",
"456 18 OFFCURVE",
"376 96 OFFCURVE",
"308 188 OFFCURVE",
"304 228 OFFCURVE",
"300 720 OFFCURVE",
"304 962 OFFCURVE",
"314 982 OFFCURVE",
"334 964 OFFCURVE",
"538 568 OFFCURVE",
"804 2 OFFCURVE",
"832 -30 OFFCURVE",
"858 6 OFFCURVE",
"1094 592 OFFCURVE",
"1334 1130 OFFCURVE",
"1350 1150 OFFCURVE",
"1362 1128 OFFCURVE",
"1360 664 OFFCURVE",
"1350 210 OFFCURVE",
"1292 116 OFFCURVE",
"1206 34 OFFCURVE",
"1196 -2 OFFCURVE",
"1232 -8 OFFCURVE",
"1408 4 OFFCURVE",
"1484 4 QCURVE SMOOTH"
);
}
);
userData = {
com.schriftgestaltung.Glyphs.lastChange = "2020-04-18 21:56:32 +0000";
};
width = 1832;
},
{
layerId = "02ADBE8D-B3BB-4EC7-92FE-8DBAAB138109";
paths = (
{
closed = 1;
nodes = (
"1542 4 OFFCURVE",
"1720 -6 OFFCURVE",
"1756 2 OFFCURVE",
"1740 46 OFFCURVE",
"1674 110 OFFCURVE",
"1616 214 OFFCURVE",
"1604 650 OFFCURVE",
"1616 1180 OFFCURVE",
"1620 1218 OFFCURVE",
"1676 1292 OFFCURVE",
"1740 1338 OFFCURVE",
"1738 1374 OFFCURVE",
"1710 1376 OFFCURVE",
"1602 1366 OFFCURVE",
"1536 1368 QCURVE SMOOTH",
"1492 1370 OFFCURVE",
"1362 1378 OFFCURVE",
"1332 1366 OFFCURVE",
"1316 1332 OFFCURVE",
"1156 924 OFFCURVE",
"936 414 OFFCURVE",
"912 388 OFFCURVE",
"888 418 OFFCURVE",
"660 884 OFFCURVE",
"456 1334 OFFCURVE",
"432 1372 OFFCURVE",
"394 1372 OFFCURVE",
"226 1364 OFFCURVE",
"72 1376 OFFCURVE",
"46 1368 OFFCURVE",
"60 1336 OFFCURVE",
"134 1270 OFFCURVE",
"202 1174 OFFCURVE",
"212 1142 OFFCURVE",
"218 744 OFFCURVE",
"212 224 OFFCURVE",
"212 180 OFFCURVE",
"160 104 OFFCURVE",
"82 34 OFFCURVE",
"64 6 OFFCURVE",
"82 -8 OFFCURVE",
"256 4 OFFCURVE",
"430 -8 OFFCURVE",
"460 -8 OFFCURVE",
"456 18 OFFCURVE",
"376 96 OFFCURVE",
"308 188 OFFCURVE",
"304 228 OFFCURVE",
"300 720 OFFCURVE",
"304 962 OFFCURVE",
"314 982 OFFCURVE",
"334 964 OFFCURVE",
"538 568 OFFCURVE",
"804 2 OFFCURVE",
"832 -30 OFFCURVE",
"858 6 OFFCURVE",
"1094 592 OFFCURVE",
"1334 1130 OFFCURVE",
"1350 1150 OFFCURVE",
"1362 1128 OFFCURVE",
"1360 664 OFFCURVE",
"1350 210 OFFCURVE",
"1292 116 OFFCURVE",
"1206 34 OFFCURVE",
"1196 -2 OFFCURVE",
"1232 -8 OFFCURVE",
"1408 4 OFFCURVE",
"1484 4 QCURVE SMOOTH"
);
}
);
userData = {
com.schriftgestaltung.Glyphs.lastChange = "2020-04-18 21:56:32 +0000";
};
width = 1832;
}
);
unicode = 004D;
},
{
color = 7;
glyphname = N;
layers = (
{
layerId = master01;
paths = (
{
closed = 1;
nodes = (
"1292 136 OFFCURVE",
"1292 720 OFFCURVE",
"1296 1172 OFFCURVE",
"1304 1200 OFFCURVE",
"1368 1284 OFFCURVE",
"1440 1356 OFFCURVE",
"1450 1372 OFFCURVE",
"1424 1380 OFFCURVE",
"1276 1368 OFFCURVE",
"1240 1368 QCURVE SMOOTH",
"1208 1368 OFFCURVE",
"1056 1386 OFFCURVE",
"1034 1374 OFFCURVE",
"1040 1358 OFFCURVE",
"1132 1276 OFFCURVE",
"1188 1208 OFFCURVE",
"1200 1184 OFFCURVE",
"1204 708 OFFCURVE",
"1208 264 OFFCURVE",
"1192 240 OFFCURVE",
"1164 256 OFFCURVE",
"736 872 OFFCURVE",
"396 1344 OFFCURVE",
"380 1372 OFFCURVE",
"352 1372 OFFCURVE",
"224 1364 OFFCURVE",
"80 1380 OFFCURVE",
"60 1378 OFFCURVE",
"60 1352 OFFCURVE",
"156 1244 OFFCURVE",
"244 1112 OFFCURVE",
"244 1092 OFFCURVE",
"250 540 OFFCURVE",
"246 198 OFFCURVE",
"242 178 OFFCURVE",
"194 112 OFFCURVE",
"110 20 OFFCURVE",
"102 0 OFFCURVE",
"120 -8 OFFCURVE",
"250 0 OFFCURVE",
"296 0 QCURVE SMOOTH",
"336 0 OFFCURVE",
"484 -10 OFFCURVE",
"500 -4 OFFCURVE",
"500 14 OFFCURVE",
"418 82 OFFCURVE",
"348 164 OFFCURVE",
"336 186 OFFCURVE",
"330 520 OFFCURVE",
"332 952 OFFCURVE",
"340 962 OFFCURVE",
"354 956 OFFCURVE",
"688 532 OFFCURVE",
"1052 6 OFFCURVE",
"1080 -10 OFFCURVE",
"1232 4 OFFCURVE",
"1352 -10 OFFCURVE",
"1376 -6 OFFCURVE",
"1372 14 OFFCURVE",
"1336 52 OFFCURVE",
"1302 106 OFFCURVE"
);
}
);
userData = {
com.schriftgestaltung.Glyphs.lastChange = "2020-04-18 22:38:42 +0000";
};
width = 1512;
},
{
layerId = "F16CA8CE-DA8C-4EBD-81D6-AE00C3431B7F";
paths = (
{
closed = 1;
nodes = (
"1292 136 OFFCURVE",
"1292 720 OFFCURVE",
"1296 1172 OFFCURVE",
"1304 1200 OFFCURVE",
"1368 1284 OFFCURVE",
"1440 1356 OFFCURVE",
"1450 1372 OFFCURVE",
"1424 1380 OFFCURVE",
"1276 1368 OFFCURVE",
"1240 1368 QCURVE SMOOTH",
"1208 1368 OFFCURVE",
"1056 1386 OFFCURVE",
"1034 1374 OFFCURVE",
"1040 1358 OFFCURVE",
"1132 1276 OFFCURVE",
"1188 1208 OFFCURVE",
"1200 1184 OFFCURVE",
"1204 708 OFFCURVE",
"1208 264 OFFCURVE",
"1192 240 OFFCURVE",
"1164 256 OFFCURVE",
"736 872 OFFCURVE",
"396 1344 OFFCURVE",
"380 1372 OFFCURVE",
"352 1372 OFFCURVE",
"224 1364 OFFCURVE",
"80 1380 OFFCURVE",
"60 1378 OFFCURVE",
"60 1352 OFFCURVE",
"156 1244 OFFCURVE",
"244 1112 OFFCURVE",
"244 1092 OFFCURVE",
"250 540 OFFCURVE",
"246 198 OFFCURVE",
"242 178 OFFCURVE",
"194 112 OFFCURVE",
"110 20 OFFCURVE",
"102 0 OFFCURVE",
"120 -8 OFFCURVE",
"250 0 OFFCURVE",
"296 0 QCURVE SMOOTH",
"336 0 OFFCURVE",
"484 -10 OFFCURVE",
"500 -4 OFFCURVE",
"500 14 OFFCURVE",
"418 82 OFFCURVE",
"348 164 OFFCURVE",
"336 186 OFFCURVE",
"330 520 OFFCURVE",
"332 952 OFFCURVE",
"340 962 OFFCURVE",
"354 956 OFFCURVE",
"688 532 OFFCURVE",
"1052 6 OFFCURVE",
"1080 -10 OFFCURVE",
"1232 4 OFFCURVE",
"1352 -10 OFFCURVE",
"1376 -6 OFFCURVE",
"1372 14 OFFCURVE",
"1336 52 OFFCURVE",
"1302 106 OFFCURVE"
);
}
);
userData = {
com.schriftgestaltung.Glyphs.lastChange = "2020-04-18 22:38:42 +0000";
};
width = 1512;
},
{
layerId = "02ADBE8D-B3BB-4EC7-92FE-8DBAAB138109";
paths = (
{
closed = 1;
nodes = (
"1292 136 OFFCURVE",
"1292 720 OFFCURVE",
"1296 1172 OFFCURVE",
"1304 1200 OFFCURVE",
"1368 1284 OFFCURVE",
"1440 1356 OFFCURVE",
"1450 1372 OFFCURVE",
"1424 1380 OFFCURVE",
"1276 1368 OFFCURVE",
"1240 1368 QCURVE SMOOTH",
"1208 1368 OFFCURVE",
"1056 1386 OFFCURVE",
"1034 1374 OFFCURVE",
"1040 1358 OFFCURVE",
"1132 1276 OFFCURVE",
"1188 1208 OFFCURVE",
"1200 1184 OFFCURVE",
"1204 708 OFFCURVE",
"1208 264 OFFCURVE",
"1192 240 OFFCURVE",
"1164 256 OFFCURVE",
"736 872 OFFCURVE",
"396 1344 OFFCURVE",
"380 1372 OFFCURVE",
"352 1372 OFFCURVE",
"224 1364 OFFCURVE",
"80 1380 OFFCURVE",
"60 1378 OFFCURVE",
"60 1352 OFFCURVE",
"156 1244 OFFCURVE",
"244 1112 OFFCURVE",
"244 1092 OFFCURVE",
"250 540 OFFCURVE",
"246 198 OFFCURVE",
"242 178 OFFCURVE",
"194 112 OFFCURVE",
"110 20 OFFCURVE",
"102 0 OFFCURVE",
"120 -8 OFFCURVE",
"250 0 OFFCURVE",
"296 0 QCURVE SMOOTH",
"336 0 OFFCURVE",
"484 -10 OFFCURVE",
"500 -4 OFFCURVE",
"500 14 OFFCURVE",
"418 82 OFFCURVE",
"348 164 OFFCURVE",
"336 186 OFFCURVE",
"330 520 OFFCURVE",
"332 952 OFFCURVE",
"340 962 OFFCURVE",
"354 956 OFFCURVE",
"688 532 OFFCURVE",
"1052 6 OFFCURVE",
"1080 -10 OFFCURVE",
"1232 4 OFFCURVE",
"1352 -10 OFFCURVE",
"1376 -6 OFFCURVE",
"1372 14 OFFCURVE",
"1336 52 OFFCURVE",
"1302 106 OFFCURVE"
);
}
);
userData = {
com.schriftgestaltung.Glyphs.lastChange = "2020-04-18 22:38:42 +0000";
};
width = 1512;
}
);
unicode = 004E;
},
{
color = 7;
glyphname = O;
layers = (
{
layerId = master01;
paths = (
{
closed = 1;
nodes = (
"1034 -20 OFFCURVE",
"1356 400 OFFCURVE",
"1356 1002 OFFCURVE",
"976 1390 OFFCURVE",
"724 1390 QCURVE SMOOTH",
"364 1390 OFFCURVE",
"20 948 OFFCURVE",
"20 382 OFFCURVE",
"370 -20 OFFCURVE",
"642 -20 QCURVE SMOOTH"
);
},
{
closed = 1;
nodes = (
"576 60 OFFCURVE",
"308 496 OFFCURVE",
"308 1034 OFFCURVE",
"444 1310 OFFCURVE",
"622 1310 QCURVE SMOOTH",
"826 1310 OFFCURVE",
"1076 832 OFFCURVE",
"1076 306 OFFCURVE",
"892 60 OFFCURVE",
"754 60 QCURVE SMOOTH"
);
}
);
userData = {
com.schriftgestaltung.Glyphs.lastChange = "2020-04-18 22:29:15 +0000";
};
width = 1376;
},
{
layerId = "F16CA8CE-DA8C-4EBD-81D6-AE00C3431B7F";
paths = (
{
closed = 1;
nodes = (
"1092 -30 OFFCURVE",
"1410 390 OFFCURVE",
"1410 980 OFFCURVE",
"1092 1400 OFFCURVE",
"732 1400 QCURVE SMOOTH",
"372 1400 OFFCURVE",
"30 957 OFFCURVE",
"30 391 OFFCURVE",
"372 -30 OFFCURVE",
"732 -30 QCURVE SMOOTH"
);
},
{
closed = 1;
nodes = (
"603 47 OFFCURVE",
"424 510 OFFCURVE",
"424 1099 OFFCURVE",
"555 1310 OFFCURVE",
"655 1310 QCURVE SMOOTH",
"855 1310 OFFCURVE",
"1030 819 OFFCURVE",
"1030 283 OFFCURVE",
"903 47 OFFCURVE",
"803 47 QCURVE SMOOTH"
);
}
);
userData = {
com.schriftgestaltung.Glyphs.lastChange = "2020-04-18 22:29:15 +0000";
};
width = 1440;
},
{
layerId = "02ADBE8D-B3BB-4EC7-92FE-8DBAAB138109";
paths = (
{
closed = 1;
nodes = (
"992 -30 OFFCURVE",
"1290 450 OFFCURVE",
"1290 995 OFFCURVE",
"990 1400 OFFCURVE",
"700 1400 QCURVE SMOOTH",
"390 1400 OFFCURVE",
"60 948 OFFCURVE",
"60 362 OFFCURVE",
"390 -30 OFFCURVE",
"622 -30 QCURVE SMOOTH"
);
},
{
closed = 1;
nodes = (
"550 60 OFFCURVE",
"278 460 OFFCURVE",
"278 1034 OFFCURVE",
"464 1325 OFFCURVE",
"608 1325 QCURVE SMOOTH",
"792 1325 OFFCURVE",
"1080 855 OFFCURVE",
"1080 336 OFFCURVE",
"890 60 OFFCURVE",
"744 60 QCURVE SMOOTH"
);
}
);
userData = {
com.schriftgestaltung.Glyphs.lastChange = "2020-04-18 22:29:15 +0000";
};
width = 1350;
}
);
unicode = 004F;
},
{
color = 7;
glyphname = Oslash;
layers = (
{
layerId = master01;
paths = (
{
closed = 1;
nodes = (
"1432 1370 OFFCURVE",
"1416 1382 OFFCURVE",
"1322 1387 OFFCURVE",
"1294 1368 OFFCURVE",
"1260 1329 OFFCURVE",
"1208 1269 OFFCURVE",
"1188 1276 OFFCURVE",
"992 1396 OFFCURVE",
"834 1396 QCURVE SMOOTH",
"448 1396 OFFCURVE",
"90 908 OFFCURVE",
"90 447 OFFCURVE",
"222 202 OFFCURVE",
"234 178 OFFCURVE",
"154 92 OFFCURVE",
"94 34 OFFCURVE",
"66 16 OFFCURVE",
"80 -16 OFFCURVE",
"185 -14 OFFCURVE",
"214 -6 OFFCURVE",
"262 62 OFFCURVE",
"308 120 OFFCURVE",
"348 82 OFFCURVE",
"540 -24 OFFCURVE",
"682 -24 QCURVE SMOOTH",
"1067 -24 OFFCURVE",
"1426 495 OFFCURVE",
"1426 938 OFFCURVE",
"1288 1172 OFFCURVE",
"1284 1200 OFFCURVE",
"1359 1289 OFFCURVE",
"1418 1348 OFFCURVE"
);
},
{
closed = 1;
nodes = (
"431 425 OFFCURVE",
"371 690 OFFCURVE",
"371 1098 OFFCURVE",
"559 1310 OFFCURVE",
"692 1310 QCURVE SMOOTH",
"839 1310 OFFCURVE",
"1018 1084 OFFCURVE",
"1014 1048 OFFCURVE",
"764 770 OFFCURVE",
"460 427 OFFCURVE",
"446 426 QCURVE SMOOTH"
);
},
{
closed = 1;
nodes = (
"1093 959 OFFCURVE",
"1146 650 OFFCURVE",
"1146 359 OFFCURVE",
"987 60 OFFCURVE",
"824 60 QCURVE SMOOTH",
"669 60 OFFCURVE",
"502 290 OFFCURVE",
"504 334 OFFCURVE",
"820 698 OFFCURVE",
"1052 964 OFFCURVE",
"1068 962 QCURVE SMOOTH"
);
}
);
width = 1504;
},
{
layerId = "F16CA8CE-DA8C-4EBD-81D6-AE00C3431B7F";
paths = (
{
closed = 1;
nodes = (
"1432 1370 OFFCURVE",
"1416 1382 OFFCURVE",
"1322 1387 OFFCURVE",
"1294 1368 OFFCURVE",
"1260 1329 OFFCURVE",
"1208 1269 OFFCURVE",
"1188 1276 OFFCURVE",
"992 1396 OFFCURVE",
"834 1396 QCURVE SMOOTH",
"448 1396 OFFCURVE",
"90 908 OFFCURVE",
"90 447 OFFCURVE",
"222 202 OFFCURVE",
"234 178 OFFCURVE",
"154 92 OFFCURVE",
"94 34 OFFCURVE",
"66 16 OFFCURVE",
"80 -16 OFFCURVE",
"185 -14 OFFCURVE",
"214 -6 OFFCURVE",
"262 62 OFFCURVE",
"308 120 OFFCURVE",
"348 82 OFFCURVE",
"540 -24 OFFCURVE",
"682 -24 QCURVE SMOOTH",
"1067 -24 OFFCURVE",
"1426 495 OFFCURVE",
"1426 938 OFFCURVE",
"1288 1172 OFFCURVE",
"1284 1200 OFFCURVE",
"1359 1289 OFFCURVE",
"1418 1348 OFFCURVE"
);
},
{
closed = 1;
nodes = (
"431 425 OFFCURVE",
"371 690 OFFCURVE",
"371 1098 OFFCURVE",
"559 1310 OFFCURVE",
"692 1310 QCURVE SMOOTH",
"839 1310 OFFCURVE",
"1018 1084 OFFCURVE",
"1014 1048 OFFCURVE",
"764 770 OFFCURVE",
"460 427 OFFCURVE",
"446 426 QCURVE SMOOTH"
);
},
{
closed = 1;
nodes = (
"1093 959 OFFCURVE",
"1146 650 OFFCURVE",
"1146 359 OFFCURVE",
"987 60 OFFCURVE",
"824 60 QCURVE SMOOTH",
"669 60 OFFCURVE",
"502 290 OFFCURVE",
"504 334 OFFCURVE",
"820 698 OFFCURVE",
"1052 964 OFFCURVE",
"1068 962 QCURVE SMOOTH"
);
}
);
width = 1504;
},
{
layerId = "02ADBE8D-B3BB-4EC7-92FE-8DBAAB138109";
paths = (
{
closed = 1;
nodes = (
"1432 1370 OFFCURVE",
"1416 1382 OFFCURVE",
"1322 1387 OFFCURVE",
"1294 1368 OFFCURVE",
"1260 1329 OFFCURVE",
"1208 1269 OFFCURVE",
"1188 1276 OFFCURVE",
"992 1396 OFFCURVE",
"834 1396 QCURVE SMOOTH",
"448 1396 OFFCURVE",
"90 908 OFFCURVE",
"90 447 OFFCURVE",
"222 202 OFFCURVE",
"234 178 OFFCURVE",
"154 92 OFFCURVE",
"94 34 OFFCURVE",
"66 16 OFFCURVE",
"80 -16 OFFCURVE",
"185 -14 OFFCURVE",
"214 -6 OFFCURVE",
"262 62 OFFCURVE",
"308 120 OFFCURVE",
"348 82 OFFCURVE",
"540 -24 OFFCURVE",
"682 -24 QCURVE SMOOTH",
"1067 -24 OFFCURVE",
"1426 495 OFFCURVE",
"1426 938 OFFCURVE",
"1288 1172 OFFCURVE",
"1284 1200 OFFCURVE",
"1359 1289 OFFCURVE",
"1418 1348 OFFCURVE"
);
},
{
closed = 1;
nodes = (
"431 425 OFFCURVE",
"371 690 OFFCURVE",
"371 1098 OFFCURVE",
"559 1310 OFFCURVE",
"692 1310 QCURVE SMOOTH",
"839 1310 OFFCURVE",
"1018 1084 OFFCURVE",
"1014 1048 OFFCURVE",
"764 770 OFFCURVE",
"460 427 OFFCURVE",
"446 426 QCURVE SMOOTH"
);
},
{
closed = 1;
nodes = (
"1093 959 OFFCURVE",
"1146 650 OFFCURVE",
"1146 359 OFFCURVE",
"987 60 OFFCURVE",
"824 60 QCURVE SMOOTH",
"669 60 OFFCURVE",
"502 290 OFFCURVE",
"504 334 OFFCURVE",
"820 698 OFFCURVE",
"1052 964 OFFCURVE",
"1068 962 QCURVE SMOOTH"
);
}
);
width = 1504;
}
);
unicode = 00D8;
},
{
color = 7;
glyphname = OE;
layers = (
{
layerId = master01;
paths = (
{
closed = 1;
nodes = (
"1279 0 OFFCURVE",
"1764 -2 OFFCURVE",
"1878 -8 OFFCURVE",
"1902 48 OFFCURVE",
"1896 192 OFFCURVE",
"1917 400 OFFCURVE",
"1904 434 OFFCURVE",
"1866 426 OFFCURVE",
"1753 236 OFFCURVE",
"1644 94 OFFCURVE",
"1602 70 OFFCURVE",
"1432 68 OFFCURVE",
"1284 69 OFFCURVE",
"1260 99 OFFCURVE",
"1256 378 OFFCURVE",
"1260 642 OFFCURVE",
"1288 674 OFFCURVE",
"1529 657 OFFCURVE",
"1784 653 OFFCURVE",
"1812 664 OFFCURVE",
"1807 736 OFFCURVE",
"1771 747 OFFCURVE",
"1522 738 OFFCURVE",
"1288 739 OFFCURVE",
"1256 773 OFFCURVE",
"1252 1070 OFFCURVE",
"1254 1280 OFFCURVE",
"1266 1304 OFFCURVE",
"1444 1308 OFFCURVE",
"1590 1302 OFFCURVE",
"1616 1290 OFFCURVE",
"1742 1090 OFFCURVE",
"1794 974 OFFCURVE",
"1826 942 OFFCURVE",
"1856 948 OFFCURVE",
"1846 1184 OFFCURVE",
"1864 1328 OFFCURVE",
"1854 1388 OFFCURVE",
"1784 1378 OFFCURVE",
"1255 1372 OFFCURVE",
"1148 1374 QCURVE SMOOTH",
"1013 1377 OFFCURVE",
"550 1390 OFFCURVE",
"76 992 OFFCURVE",
"70 290 OFFCURVE",
"494 -26 OFFCURVE",
"961 0 OFFCURVE",
"1132 0 QCURVE SMOOTH"
);
},
{
closed = 1;
nodes = (
"1004 400 OFFCURVE",
"1012 112 OFFCURVE",
"984 64 OFFCURVE",
"620 64 OFFCURVE",
"354 420 OFFCURVE",
"354 778 QCURVE SMOOTH",
"354 1089 OFFCURVE",
"638 1297 OFFCURVE",
"956 1297 OFFCURVE",
"1004 1268 OFFCURVE",
"1004 882 OFFCURVE",
"1004 672 QCURVE SMOOTH"
);
}
);
width = 1988;
},
{
layerId = "F16CA8CE-DA8C-4EBD-81D6-AE00C3431B7F";
paths = (
{
closed = 1;
nodes = (
"1279 0 OFFCURVE",
"1764 -2 OFFCURVE",
"1878 -8 OFFCURVE",
"1902 48 OFFCURVE",
"1896 192 OFFCURVE",
"1917 400 OFFCURVE",
"1904 434 OFFCURVE",
"1866 426 OFFCURVE",
"1753 236 OFFCURVE",
"1644 94 OFFCURVE",
"1602 70 OFFCURVE",
"1432 68 OFFCURVE",
"1284 69 OFFCURVE",
"1260 99 OFFCURVE",
"1256 378 OFFCURVE",
"1260 642 OFFCURVE",
"1288 674 OFFCURVE",
"1529 657 OFFCURVE",
"1784 653 OFFCURVE",
"1812 664 OFFCURVE",
"1807 736 OFFCURVE",
"1771 747 OFFCURVE",
"1522 738 OFFCURVE",
"1288 739 OFFCURVE",
"1256 773 OFFCURVE",
"1252 1070 OFFCURVE",
"1254 1280 OFFCURVE",
"1266 1304 OFFCURVE",
"1444 1308 OFFCURVE",
"1590 1302 OFFCURVE",
"1616 1290 OFFCURVE",
"1742 1090 OFFCURVE",
"1794 974 OFFCURVE",
"1826 942 OFFCURVE",
"1856 948 OFFCURVE",
"1846 1184 OFFCURVE",
"1864 1328 OFFCURVE",
"1854 1388 OFFCURVE",
"1784 1378 OFFCURVE",
"1255 1372 OFFCURVE",
"1148 1374 QCURVE SMOOTH",
"1013 1377 OFFCURVE",
"550 1390 OFFCURVE",
"76 992 OFFCURVE",
"70 290 OFFCURVE",
"494 -26 OFFCURVE",
"961 0 OFFCURVE",
"1132 0 QCURVE SMOOTH"
);
},
{
closed = 1;
nodes = (
"1004 400 OFFCURVE",
"1012 112 OFFCURVE",
"984 64 OFFCURVE",
"620 64 OFFCURVE",
"354 420 OFFCURVE",
"354 778 QCURVE SMOOTH",
"354 1089 OFFCURVE",
"638 1297 OFFCURVE",
"956 1297 OFFCURVE",
"1004 1268 OFFCURVE",
"1004 882 OFFCURVE",
"1004 672 QCURVE SMOOTH"
);
}
);
width = 1988;
},
{
layerId = "02ADBE8D-B3BB-4EC7-92FE-8DBAAB138109";
paths = (
{
closed = 1;
nodes = (
"1275 0 OFFCURVE",
"1764 -2 OFFCURVE",
"1878 -8 OFFCURVE",
"1902 48 OFFCURVE",
"1896 192 OFFCURVE",
"1917 400 OFFCURVE",
"1904 434 OFFCURVE",
"1866 426 OFFCURVE",
"1753 236 OFFCURVE",
"1644 94 OFFCURVE",
"1602 70 OFFCURVE",
"1432 68 OFFCURVE",
"1284 69 OFFCURVE",
"1260 99 OFFCURVE",
"1256 378 OFFCURVE",
"1260 642 OFFCURVE",
"1288 674 OFFCURVE",
"1529 657 OFFCURVE",
"1784 653 OFFCURVE",
"1812 664 OFFCURVE",
"1807 736 OFFCURVE",
"1771 747 OFFCURVE",
"1522 738 OFFCURVE",
"1288 739 OFFCURVE",
"1256 773 OFFCURVE",
"1252 1070 OFFCURVE",
"1254 1280 OFFCURVE",
"1266 1304 OFFCURVE",
"1444 1308 OFFCURVE",
"1590 1302 OFFCURVE",
"1616 1290 OFFCURVE",
"1742 1090 OFFCURVE",
"1794 974 OFFCURVE",
"1826 942 OFFCURVE",
"1856 948 OFFCURVE",
"1846 1184 OFFCURVE",
"1864 1328 OFFCURVE",
"1854 1388 OFFCURVE",
"1784 1378 OFFCURVE",
"1255 1372 OFFCURVE",
"1148 1374 QCURVE SMOOTH",
"1013 1377 OFFCURVE",
"550 1390 OFFCURVE",
"76 992 OFFCURVE",
"70 290 OFFCURVE",
"494 -26 OFFCURVE",
"957 0 OFFCURVE",
"1128 0 QCURVE SMOOTH"
);
},
{
closed = 1;
nodes = (
"1004 400 OFFCURVE",
"1012 112 OFFCURVE",
"984 64 OFFCURVE",
"620 64 OFFCURVE",
"354 420 OFFCURVE",
"354 778 QCURVE SMOOTH",
"354 1089 OFFCURVE",
"638 1297 OFFCURVE",
"956 1297 OFFCURVE",
"1004 1268 OFFCURVE",
"1004 882 OFFCURVE",
"1004 672 QCURVE SMOOTH"
);
}
);
width = 1988;
}
);
unicode = 0152;
},
{
color = 7;
glyphname = P;
layers = (
{
layerId = master01;
paths = (
{
closed = 1;
nodes = (
"502 0 OFFCURVE",
"632 -10 OFFCURVE",
"656 -10 OFFCURVE",
"664 12 OFFCURVE",
"564 102 OFFCURVE",
"506 174 OFFCURVE",
"496 202 OFFCURVE",
"480 412 OFFCURVE",
"484 540 OFFCURVE",
"488 564 OFFCURVE",
"508 580 OFFCURVE",
"824 600 OFFCURVE",
"1112 816 OFFCURVE",
"1116 1212 OFFCURVE",
"772 1370 OFFCURVE",
"560 1370 QCURVE SMOOTH",
"352 1370 OFFCURVE",
"144 1376 OFFCURVE",
"106 1364 OFFCURVE",
"102 1328 OFFCURVE",
"168 1264 OFFCURVE",
"220 1184 OFFCURVE",
"236 1148 OFFCURVE",
"244 764 OFFCURVE",
"240 220 OFFCURVE",
"224 190 OFFCURVE",
"184 120 OFFCURVE",
"92 24 OFFCURVE",
"84 0 OFFCURVE",
"116 -12 OFFCURVE",
"300 0 OFFCURVE",
"388 0 QCURVE SMOOTH"
);
},
{
closed = 1;
nodes = (
"484 1260 OFFCURVE",
"520 1304 OFFCURVE",
"644 1304 OFFCURVE",
"828 1236 OFFCURVE",
"832 1000 QCURVE SMOOTH",
"834 868 OFFCURVE",
"732 696 OFFCURVE",
"616 652 OFFCURVE",
"512 648 OFFCURVE",
"488 704 OFFCURVE",
"488 956 OFFCURVE",
"488 1016 QCURVE SMOOTH"
);
}
);
userData = {
com.schriftgestaltung.Glyphs.lastChange = "2020-04-18 22:45:16 +0000";
};
width = 1176;
},
{
layerId = "F16CA8CE-DA8C-4EBD-81D6-AE00C3431B7F";
paths = (
{
closed = 1;
nodes = (
"502 0 OFFCURVE",
"632 -10 OFFCURVE",
"656 -10 OFFCURVE",
"664 12 OFFCURVE",
"564 102 OFFCURVE",
"506 174 OFFCURVE",
"496 202 OFFCURVE",
"480 412 OFFCURVE",
"484 540 OFFCURVE",
"488 564 OFFCURVE",
"508 580 OFFCURVE",
"824 600 OFFCURVE",
"1112 816 OFFCURVE",
"1116 1212 OFFCURVE",
"772 1370 OFFCURVE",
"560 1370 QCURVE SMOOTH",
"352 1370 OFFCURVE",
"144 1376 OFFCURVE",
"106 1364 OFFCURVE",
"102 1328 OFFCURVE",
"168 1264 OFFCURVE",
"220 1184 OFFCURVE",
"236 1148 OFFCURVE",
"244 764 OFFCURVE",
"240 220 OFFCURVE",
"224 190 OFFCURVE",
"184 120 OFFCURVE",
"92 24 OFFCURVE",
"84 0 OFFCURVE",
"116 -12 OFFCURVE",
"300 0 OFFCURVE",
"388 0 QCURVE SMOOTH"
);
},
{
closed = 1;
nodes = (
"484 1260 OFFCURVE",
"520 1304 OFFCURVE",
"644 1304 OFFCURVE",
"828 1236 OFFCURVE",
"832 1000 QCURVE SMOOTH",
"834 868 OFFCURVE",
"732 696 OFFCURVE",
"616 652 OFFCURVE",
"512 648 OFFCURVE",
"488 704 OFFCURVE",
"488 956 OFFCURVE",
"488 1016 QCURVE SMOOTH"
);
}
);
userData = {
com.schriftgestaltung.Glyphs.lastChange = "2020-04-18 22:45:16 +0000";
};
width = 1176;
},
{
layerId = "02ADBE8D-B3BB-4EC7-92FE-8DBAAB138109";
paths = (
{
closed = 1;
nodes = (
"502 0 OFFCURVE",
"632 -10 OFFCURVE",
"656 -10 OFFCURVE",
"664 12 OFFCURVE",
"564 102 OFFCURVE",
"506 174 OFFCURVE",
"496 202 OFFCURVE",
"480 412 OFFCURVE",
"484 540 OFFCURVE",
"488 564 OFFCURVE",
"508 580 OFFCURVE",
"824 600 OFFCURVE",
"1112 816 OFFCURVE",
"1116 1212 OFFCURVE",
"772 1370 OFFCURVE",
"560 1370 QCURVE SMOOTH",
"352 1370 OFFCURVE",
"144 1376 OFFCURVE",
"106 1364 OFFCURVE",
"102 1328 OFFCURVE",
"168 1264 OFFCURVE",
"220 1184 OFFCURVE",
"236 1148 OFFCURVE",
"244 764 OFFCURVE",
"240 220 OFFCURVE",
"224 190 OFFCURVE",
"184 120 OFFCURVE",
"92 24 OFFCURVE",
"84 0 OFFCURVE",
"116 -12 OFFCURVE",
"300 0 OFFCURVE",
"388 0 QCURVE SMOOTH"
);
},
{
closed = 1;
nodes = (
"484 1260 OFFCURVE",
"520 1304 OFFCURVE",
"644 1304 OFFCURVE",
"828 1236 OFFCURVE",
"832 1000 QCURVE SMOOTH",
"834 868 OFFCURVE",
"732 696 OFFCURVE",
"616 652 OFFCURVE",
"512 648 OFFCURVE",
"488 704 OFFCURVE",
"488 956 OFFCURVE",
"488 1016 QCURVE SMOOTH"
);
}
);
userData = {
com.schriftgestaltung.Glyphs.lastChange = "2020-04-18 22:45:16 +0000";
};
width = 1176;
}
);
unicode = 0050;
},
{
color = 7;
glyphname = Thorn;
layers = (
{
layerId = master01;
paths = (
{
closed = 1;
nodes = (
"498 1118 OFFCURVE",
"492 1156 OFFCURVE",
"545 1248 OFFCURVE",
"614 1332 OFFCURVE",
"640 1369 OFFCURVE",
"600 1382 OFFCURVE",
"441 1372 OFFCURVE",
"362 1372 QCURVE SMOOTH",
"303 1372 OFFCURVE",
"117 1380 OFFCURVE",
"78 1376 OFFCURVE",
"93 1340 OFFCURVE",
"166 1248 OFFCURVE",
"220 1164 OFFCURVE",
"229 1138 OFFCURVE",
"232 618 OFFCURVE",
"234 226 OFFCURVE",
"214 190 OFFCURVE",
"172 124 OFFCURVE",
"84 23 OFFCURVE",
"78 -7 OFFCURVE",
"124 -7 OFFCURVE",
"258 0 OFFCURVE",
"370 0 QCURVE SMOOTH",
"462 0 OFFCURVE",
"622 -7 OFFCURVE",
"664 -5 OFFCURVE",
"668 24 OFFCURVE",
"565 109 OFFCURVE",
"492 199 OFFCURVE",
"484 226 OFFCURVE",
"490 318 OFFCURVE",
"510 331 OFFCURVE",
"741 330 OFFCURVE",
"1109 534 OFFCURVE",
"1118 934 OFFCURVE",
"828 1094 OFFCURVE",
"562 1124 OFFCURVE"
);
},
{
closed = 1;
nodes = (
"506 1056 OFFCURVE",
"624 1055 OFFCURVE",
"834 910 OFFCURVE",
"832 726 QCURVE SMOOTH",
"830 530 OFFCURVE",
"624 404 OFFCURVE",
"508 394 OFFCURVE",
"488 412 OFFCURVE",
"490 592 OFFCURVE",
"490 692 QCURVE SMOOTH",
"490 765 OFFCURVE",
"484 1038 OFFCURVE"
);
}
);
width = 1210;
},
{
layerId = "F16CA8CE-DA8C-4EBD-81D6-AE00C3431B7F";
paths = (
{
closed = 1;
nodes = (
"498 1118 OFFCURVE",
"492 1156 OFFCURVE",
"545 1248 OFFCURVE",
"614 1332 OFFCURVE",
"640 1369 OFFCURVE",
"600 1382 OFFCURVE",
"441 1372 OFFCURVE",
"362 1372 QCURVE SMOOTH",
"303 1372 OFFCURVE",
"117 1380 OFFCURVE",
"78 1376 OFFCURVE",
"93 1340 OFFCURVE",
"166 1248 OFFCURVE",
"220 1164 OFFCURVE",
"229 1138 OFFCURVE",
"232 618 OFFCURVE",
"234 226 OFFCURVE",
"214 190 OFFCURVE",
"172 124 OFFCURVE",
"84 23 OFFCURVE",
"78 -7 OFFCURVE",
"124 -7 OFFCURVE",
"258 0 OFFCURVE",
"370 0 QCURVE SMOOTH",
"462 0 OFFCURVE",
"622 -7 OFFCURVE",
"664 -5 OFFCURVE",
"668 24 OFFCURVE",
"565 109 OFFCURVE",
"492 199 OFFCURVE",
"484 226 OFFCURVE",
"490 318 OFFCURVE",
"510 331 OFFCURVE",
"741 330 OFFCURVE",
"1109 534 OFFCURVE",
"1118 934 OFFCURVE",
"828 1094 OFFCURVE",
"562 1124 OFFCURVE"
);
},
{
closed = 1;
nodes = (
"506 1056 OFFCURVE",
"624 1055 OFFCURVE",
"834 910 OFFCURVE",
"832 726 QCURVE SMOOTH",
"830 530 OFFCURVE",
"624 404 OFFCURVE",
"508 394 OFFCURVE",
"488 412 OFFCURVE",
"490 592 OFFCURVE",
"490 692 QCURVE SMOOTH",
"490 765 OFFCURVE",
"484 1038 OFFCURVE"
);
}
);
width = 1210;
},
{
layerId = "02ADBE8D-B3BB-4EC7-92FE-8DBAAB138109";
paths = (
{
closed = 1;
nodes = (
"498 1118 OFFCURVE",
"492 1156 OFFCURVE",
"545 1248 OFFCURVE",
"614 1332 OFFCURVE",
"640 1369 OFFCURVE",
"600 1382 OFFCURVE",
"441 1372 OFFCURVE",
"362 1372 QCURVE SMOOTH",
"303 1372 OFFCURVE",
"117 1380 OFFCURVE",
"78 1376 OFFCURVE",
"93 1340 OFFCURVE",
"166 1248 OFFCURVE",
"220 1164 OFFCURVE",
"229 1138 OFFCURVE",
"232 618 OFFCURVE",
"234 226 OFFCURVE",
"214 190 OFFCURVE",
"172 124 OFFCURVE",
"84 23 OFFCURVE",
"78 -7 OFFCURVE",
"124 -7 OFFCURVE",
"258 0 OFFCURVE",
"370 0 QCURVE SMOOTH",
"462 0 OFFCURVE",
"622 -7 OFFCURVE",
"664 -5 OFFCURVE",
"668 24 OFFCURVE",
"565 109 OFFCURVE",
"492 199 OFFCURVE",
"484 226 OFFCURVE",
"490 318 OFFCURVE",
"510 331 OFFCURVE",
"741 330 OFFCURVE",
"1109 534 OFFCURVE",
"1118 934 OFFCURVE",
"828 1094 OFFCURVE",
"562 1124 OFFCURVE"
);
},
{
closed = 1;
nodes = (
"506 1056 OFFCURVE",
"624 1055 OFFCURVE",
"834 910 OFFCURVE",
"832 726 QCURVE SMOOTH",
"830 530 OFFCURVE",
"624 404 OFFCURVE",
"508 394 OFFCURVE",
"488 412 OFFCURVE",
"490 592 OFFCURVE",
"490 692 QCURVE SMOOTH",
"490 765 OFFCURVE",
"484 1038 OFFCURVE"
);
}
);
width = 1210;
}
);
unicode = 00DE;
},
{
color = 7;
glyphname = Q;
layers = (
{
layerId = master01;
paths = (
{
closed = 1;
nodes = (
"70 420 OFFCURVE",
"284 88 OFFCURVE",
"568 -16 OFFCURVE",
"652 -16 OFFCURVE",
"724 -8 OFFCURVE",
"744 -16 OFFCURVE",
"928 -144 OFFCURVE",
"1146 -252 OFFCURVE",
"1172 -252 OFFCURVE",
"1180 -232 OFFCURVE",
"1116 -44 OFFCURVE",
"1096 82 OFFCURVE",
"1096 106 OFFCURVE",
"1116 122 OFFCURVE",
"1280 272 OFFCURVE",
"1408 568 OFFCURVE",
"1406 746 QCURVE SMOOTH",
"1404 988 OFFCURVE",
"1088 1392 OFFCURVE",
"518 1386 OFFCURVE",
"70 1006 OFFCURVE",
"70 626 QCURVE SMOOTH"
);
},
{
closed = 1;
nodes = (
"354 1066 OFFCURVE",
"516 1298 OFFCURVE",
"868 1298 OFFCURVE",
"1128 830 OFFCURVE",
"1128 520 QCURVE SMOOTH",
"1128 324 OFFCURVE",
"944 74 OFFCURVE",
"622 74 OFFCURVE",
"354 518 OFFCURVE",
"354 868 QCURVE SMOOTH"
);
}
);
userData = {
com.schriftgestaltung.Glyphs.lastChange = "2020-04-18 22:52:56 +0000";
};
width = 1476;
},
{
layerId = "F16CA8CE-DA8C-4EBD-81D6-AE00C3431B7F";
paths = (
{
closed = 1;
nodes = (
"70 420 OFFCURVE",
"284 88 OFFCURVE",
"568 -16 OFFCURVE",
"652 -16 OFFCURVE",
"724 -8 OFFCURVE",
"744 -16 OFFCURVE",
"928 -144 OFFCURVE",
"1146 -252 OFFCURVE",
"1172 -252 OFFCURVE",
"1180 -232 OFFCURVE",
"1116 -44 OFFCURVE",
"1096 82 OFFCURVE",
"1096 106 OFFCURVE",
"1116 122 OFFCURVE",
"1280 272 OFFCURVE",
"1408 568 OFFCURVE",
"1406 746 QCURVE SMOOTH",
"1404 988 OFFCURVE",
"1088 1392 OFFCURVE",
"518 1386 OFFCURVE",
"70 1006 OFFCURVE",
"70 626 QCURVE SMOOTH"
);
},
{
closed = 1;
nodes = (
"354 1066 OFFCURVE",
"516 1298 OFFCURVE",
"868 1298 OFFCURVE",
"1128 830 OFFCURVE",
"1128 520 QCURVE SMOOTH",
"1128 324 OFFCURVE",
"944 74 OFFCURVE",
"622 74 OFFCURVE",
"354 518 OFFCURVE",
"354 868 QCURVE SMOOTH"
);
}
);
userData = {
com.schriftgestaltung.Glyphs.lastChange = "2020-04-18 22:52:56 +0000";
};
width = 1476;
},
{
layerId = "02ADBE8D-B3BB-4EC7-92FE-8DBAAB138109";
paths = (
{
closed = 1;
nodes = (
"70 420 OFFCURVE",
"284 88 OFFCURVE",
"568 -16 OFFCURVE",
"652 -16 OFFCURVE",
"724 -8 OFFCURVE",
"744 -16 OFFCURVE",
"928 -144 OFFCURVE",
"1146 -252 OFFCURVE",
"1172 -252 OFFCURVE",
"1180 -232 OFFCURVE",
"1116 -44 OFFCURVE",
"1096 82 OFFCURVE",
"1096 106 OFFCURVE",
"1116 122 OFFCURVE",
"1280 272 OFFCURVE",
"1408 568 OFFCURVE",
"1406 746 QCURVE SMOOTH",
"1404 988 OFFCURVE",
"1088 1392 OFFCURVE",
"518 1386 OFFCURVE",
"70 1006 OFFCURVE",
"70 626 QCURVE SMOOTH"
);
},
{
closed = 1;
nodes = (
"354 1066 OFFCURVE",
"516 1298 OFFCURVE",
"868 1298 OFFCURVE",
"1128 830 OFFCURVE",
"1128 520 QCURVE SMOOTH",
"1128 324 OFFCURVE",
"944 74 OFFCURVE",
"622 74 OFFCURVE",
"354 518 OFFCURVE",
"354 868 QCURVE SMOOTH"
);
}
);
userData = {
com.schriftgestaltung.Glyphs.lastChange = "2020-04-18 22:52:56 +0000";
};
width = 1476;
}
);
unicode = 0051;
},
{
color = 7;
glyphname = R;
layers = (
{
layerId = master01;
paths = (
{
closed = 1;
nodes = (
"408 8 OFFCURVE",
"572 -2 OFFCURVE",
"624 -2 OFFCURVE",
"628 24 OFFCURVE",
"540 112 OFFCURVE",
"496 196 OFFCURVE",
"488 232 OFFCURVE",
"476 452 OFFCURVE",
"480 564 OFFCURVE",
"480 612 OFFCURVE",
"504 620 OFFCURVE",
"568 624 OFFCURVE",
"592 612 OFFCURVE",
"792 316 OFFCURVE",
"932 60 OFFCURVE",
"960 20 OFFCURVE",
"1000 0 OFFCURVE",
"1180 16 OFFCURVE",
"1332 -6 OFFCURVE",
"1366 -6 OFFCURVE",
"1364 18 OFFCURVE",
"1212 136 OFFCURVE",
"1152 198 OFFCURVE",
"1024 386 OFFCURVE",
"876 640 OFFCURVE",
"866 676 OFFCURVE",
"898 694 OFFCURVE",
"1048 772 OFFCURVE",
"1158 918 OFFCURVE",
"1160 1182 OFFCURVE",
"890 1372 OFFCURVE",
"628 1372 QCURVE SMOOTH",
"520 1372 OFFCURVE",
"304 1356 OFFCURVE",
"120 1376 OFFCURVE",
"92 1372 OFFCURVE",
"96 1336 OFFCURVE",
"164 1256 OFFCURVE",
"222 1172 OFFCURVE",
"232 1140 OFFCURVE",
"236 680 OFFCURVE",
"232 232 OFFCURVE",
"222 200 OFFCURVE",
"168 108 OFFCURVE",
"90 30 OFFCURVE",
"82 -2 OFFCURVE",
"122 -8 OFFCURVE",
"324 8 OFFCURVE",
"360 8 QCURVE SMOOTH"
);
},
{
closed = 1;
nodes = (
"480 1032 OFFCURVE",
"484 1286 OFFCURVE",
"488 1308 OFFCURVE",
"516 1312 OFFCURVE",
"694 1292 OFFCURVE",
"866 1152 OFFCURVE",
"866 992 QCURVE SMOOTH",
"866 882 OFFCURVE",
"724 728 OFFCURVE",
"518 680 OFFCURVE",
"494 684 OFFCURVE",
"484 708 OFFCURVE",
"480 914 OFFCURVE",
"480 980 QCURVE SMOOTH"
);
}
);
userData = {
com.schriftgestaltung.Glyphs.lastChange = "2020-04-17 19:36:31 +0000";
};
width = 1392;
},
{
layerId = "F16CA8CE-DA8C-4EBD-81D6-AE00C3431B7F";
paths = (
{
closed = 1;
nodes = (
"408 8 OFFCURVE",
"572 -2 OFFCURVE",
"624 -2 OFFCURVE",
"628 24 OFFCURVE",
"540 112 OFFCURVE",
"496 196 OFFCURVE",
"488 232 OFFCURVE",
"476 452 OFFCURVE",
"480 564 OFFCURVE",
"480 612 OFFCURVE",
"504 620 OFFCURVE",
"568 624 OFFCURVE",
"592 612 OFFCURVE",
"792 316 OFFCURVE",
"932 60 OFFCURVE",
"960 20 OFFCURVE",
"1000 0 OFFCURVE",
"1180 16 OFFCURVE",
"1332 -6 OFFCURVE",
"1366 -6 OFFCURVE",
"1364 18 OFFCURVE",
"1212 136 OFFCURVE",
"1152 198 OFFCURVE",
"1024 386 OFFCURVE",
"876 640 OFFCURVE",
"866 676 OFFCURVE",
"898 694 OFFCURVE",
"1048 772 OFFCURVE",
"1158 918 OFFCURVE",
"1160 1182 OFFCURVE",
"890 1372 OFFCURVE",
"628 1372 QCURVE SMOOTH",
"520 1372 OFFCURVE",
"304 1356 OFFCURVE",
"120 1376 OFFCURVE",
"92 1372 OFFCURVE",
"96 1336 OFFCURVE",
"164 1256 OFFCURVE",
"222 1172 OFFCURVE",
"232 1140 OFFCURVE",
"236 680 OFFCURVE",
"232 232 OFFCURVE",
"222 200 OFFCURVE",
"168 108 OFFCURVE",
"90 30 OFFCURVE",
"82 -2 OFFCURVE",
"122 -8 OFFCURVE",
"324 8 OFFCURVE",
"360 8 QCURVE SMOOTH"
);
},
{
closed = 1;
nodes = (
"480 1032 OFFCURVE",
"484 1286 OFFCURVE",
"488 1308 OFFCURVE",
"516 1312 OFFCURVE",
"694 1292 OFFCURVE",
"866 1152 OFFCURVE",
"866 992 QCURVE SMOOTH",
"866 882 OFFCURVE",
"724 728 OFFCURVE",
"518 680 OFFCURVE",
"494 684 OFFCURVE",
"484 708 OFFCURVE",
"480 914 OFFCURVE",
"480 980 QCURVE SMOOTH"
);
}
);
userData = {
com.schriftgestaltung.Glyphs.lastChange = "2020-04-17 19:36:31 +0000";
};
width = 1392;
},
{
layerId = "02ADBE8D-B3BB-4EC7-92FE-8DBAAB138109";
paths = (
{
closed = 1;
nodes = (
"408 8 OFFCURVE",
"572 -2 OFFCURVE",
"624 -2 OFFCURVE",
"628 24 OFFCURVE",
"540 112 OFFCURVE",
"496 196 OFFCURVE",
"488 232 OFFCURVE",
"476 452 OFFCURVE",
"480 564 OFFCURVE",
"480 612 OFFCURVE",
"504 620 OFFCURVE",
"568 624 OFFCURVE",
"592 612 OFFCURVE",
"792 316 OFFCURVE",
"932 60 OFFCURVE",
"960 20 OFFCURVE",
"1000 0 OFFCURVE",
"1180 16 OFFCURVE",
"1332 -6 OFFCURVE",
"1366 -6 OFFCURVE",
"1364 18 OFFCURVE",
"1212 136 OFFCURVE",
"1152 198 OFFCURVE",
"1024 386 OFFCURVE",
"876 640 OFFCURVE",
"866 676 OFFCURVE",
"898 694 OFFCURVE",
"1048 772 OFFCURVE",
"1158 918 OFFCURVE",
"1160 1182 OFFCURVE",
"890 1372 OFFCURVE",
"628 1372 QCURVE SMOOTH",
"520 1372 OFFCURVE",
"304 1356 OFFCURVE",
"120 1376 OFFCURVE",
"92 1372 OFFCURVE",
"96 1336 OFFCURVE",
"164 1256 OFFCURVE",
"222 1172 OFFCURVE",
"232 1140 OFFCURVE",
"236 680 OFFCURVE",
"232 232 OFFCURVE",
"222 200 OFFCURVE",
"168 108 OFFCURVE",
"90 30 OFFCURVE",
"82 -2 OFFCURVE",
"122 -8 OFFCURVE",
"324 8 OFFCURVE",
"360 8 QCURVE SMOOTH"
);
},
{
closed = 1;
nodes = (
"480 1032 OFFCURVE",
"484 1286 OFFCURVE",
"488 1308 OFFCURVE",
"516 1312 OFFCURVE",
"694 1292 OFFCURVE",
"866 1152 OFFCURVE",
"866 992 QCURVE SMOOTH",
"866 882 OFFCURVE",
"724 728 OFFCURVE",
"518 680 OFFCURVE",
"494 684 OFFCURVE",
"484 708 OFFCURVE",
"480 914 OFFCURVE",
"480 980 QCURVE SMOOTH"
);
}
);
userData = {
com.schriftgestaltung.Glyphs.lastChange = "2020-04-17 19:36:31 +0000";
};
width = 1392;
}
);
unicode = 0052;
},
{
color = 7;
glyphname = S;
layers = (
{
layerId = master01;
paths = (
{
closed = 1;
nodes = (
"66 518 OFFCURVE",
"86 296 OFFCURVE",
"80 76 OFFCURVE",
"82 48 OFFCURVE",
"106 40 OFFCURVE",
"352 -16 OFFCURVE",
"492 -16 QCURVE SMOOTH",
"706 -16 OFFCURVE",
"986 204 OFFCURVE",
"986 542 OFFCURVE",
"828 708 OFFCURVE",
"380 912 OFFCURVE",
"272 1050 OFFCURVE",
"272 1210 OFFCURVE",
"378 1302 OFFCURVE",
"588 1302 OFFCURVE",
"782 1168 OFFCURVE",
"860 984 OFFCURVE",
"868 968 OFFCURVE",
"892 966 OFFCURVE",
"898 992 OFFCURVE",
"886 1202 OFFCURVE",
"900 1386 OFFCURVE",
"892 1402 OFFCURVE",
"868 1394 OFFCURVE",
"794 1370 OFFCURVE",
"684 1364 OFFCURVE",
"542 1370 OFFCURVE",
"510 1370 QCURVE SMOOTH",
"262 1370 OFFCURVE",
"76 1118 OFFCURVE",
"76 886 OFFCURVE",
"184 712 OFFCURVE",
"644 498 OFFCURVE",
"766 366 OFFCURVE",
"766 160 OFFCURVE",
"638 62 OFFCURVE",
"448 64 OFFCURVE",
"260 190 OFFCURVE",
"150 384 OFFCURVE",
"102 522 OFFCURVE",
"92 536 OFFCURVE",
"70 536 OFFCURVE"
);
}
);
userData = {
com.schriftgestaltung.Glyphs.lastChange = "2020-04-17 19:36:31 +0000";
};
width = 1066;
},
{
layerId = "F16CA8CE-DA8C-4EBD-81D6-AE00C3431B7F";
paths = (
{
closed = 1;
nodes = (
"66 518 OFFCURVE",
"86 296 OFFCURVE",
"80 76 OFFCURVE",
"82 48 OFFCURVE",
"106 40 OFFCURVE",
"352 -16 OFFCURVE",
"492 -16 QCURVE SMOOTH",
"706 -16 OFFCURVE",
"986 204 OFFCURVE",
"986 542 OFFCURVE",
"828 708 OFFCURVE",
"380 912 OFFCURVE",
"272 1050 OFFCURVE",
"272 1210 OFFCURVE",
"378 1302 OFFCURVE",
"588 1302 OFFCURVE",
"782 1168 OFFCURVE",
"860 984 OFFCURVE",
"868 968 OFFCURVE",
"892 966 OFFCURVE",
"898 992 OFFCURVE",
"886 1202 OFFCURVE",
"900 1386 OFFCURVE",
"892 1402 OFFCURVE",
"868 1394 OFFCURVE",
"794 1370 OFFCURVE",
"684 1364 OFFCURVE",
"542 1370 OFFCURVE",
"510 1370 QCURVE SMOOTH",
"262 1370 OFFCURVE",
"76 1118 OFFCURVE",
"76 886 OFFCURVE",
"184 712 OFFCURVE",
"644 498 OFFCURVE",
"766 366 OFFCURVE",
"766 160 OFFCURVE",
"638 62 OFFCURVE",
"448 64 OFFCURVE",
"260 190 OFFCURVE",
"150 384 OFFCURVE",
"102 522 OFFCURVE",
"92 536 OFFCURVE",
"70 536 OFFCURVE"
);
}
);
userData = {
com.schriftgestaltung.Glyphs.lastChange = "2020-04-17 19:36:31 +0000";
};
width = 1066;
},
{
layerId = "02ADBE8D-B3BB-4EC7-92FE-8DBAAB138109";
paths = (
{
closed = 1;
nodes = (
"66 518 OFFCURVE",
"86 296 OFFCURVE",
"80 76 OFFCURVE",
"82 48 OFFCURVE",
"106 40 OFFCURVE",
"352 -16 OFFCURVE",
"492 -16 QCURVE SMOOTH",
"706 -16 OFFCURVE",
"986 204 OFFCURVE",
"986 542 OFFCURVE",
"828 708 OFFCURVE",
"380 912 OFFCURVE",
"272 1050 OFFCURVE",
"272 1210 OFFCURVE",
"378 1302 OFFCURVE",
"588 1302 OFFCURVE",
"782 1168 OFFCURVE",
"860 984 OFFCURVE",
"868 968 OFFCURVE",
"892 966 OFFCURVE",
"898 992 OFFCURVE",
"886 1202 OFFCURVE",
"900 1386 OFFCURVE",
"892 1402 OFFCURVE",
"868 1394 OFFCURVE",
"794 1370 OFFCURVE",
"684 1364 OFFCURVE",
"542 1370 OFFCURVE",
"510 1370 QCURVE SMOOTH",
"262 1370 OFFCURVE",
"76 1118 OFFCURVE",
"76 886 OFFCURVE",
"184 712 OFFCURVE",
"644 498 OFFCURVE",
"766 366 OFFCURVE",
"766 160 OFFCURVE",
"638 62 OFFCURVE",
"448 64 OFFCURVE",
"260 190 OFFCURVE",
"150 384 OFFCURVE",
"102 522 OFFCURVE",
"92 536 OFFCURVE",
"70 536 OFFCURVE"
);
}
);
userData = {
com.schriftgestaltung.Glyphs.lastChange = "2020-04-17 19:36:31 +0000";
};
width = 1066;
}
);
unicode = 0053;
},
{
color = 7;
glyphname = T;
layers = (
{
layerId = master01;
paths = (
{
closed = 1;
nodes = (
"68 932 OFFCURVE",
"88 964 OFFCURVE",
"200 1160 OFFCURVE",
"308 1292 OFFCURVE",
"328 1304 OFFCURVE",
"408 1308 OFFCURVE",
"480 1308 OFFCURVE",
"508 1292 OFFCURVE",
"512 1260 OFFCURVE",
"522 812 OFFCURVE",
"520 230 OFFCURVE",
"514 202 OFFCURVE",
"470 134 OFFCURVE",
"364 36 OFFCURVE",
"364 0 OFFCURVE",
"402 -6 OFFCURVE",
"552 12 OFFCURVE",
"640 12 QCURVE SMOOTH",
"732 12 OFFCURVE",
"872 -4 OFFCURVE",
"916 -8 OFFCURVE",
"918 32 OFFCURVE",
"824 118 OFFCURVE",
"770 200 OFFCURVE",
"764 230 OFFCURVE",
"762 812 OFFCURVE",
"776 1272 OFFCURVE",
"784 1300 OFFCURVE",
"816 1304 OFFCURVE",
"884 1308 OFFCURVE",
"956 1304 OFFCURVE",
"980 1280 OFFCURVE",
"1090 1146 OFFCURVE",
"1190 974 OFFCURVE",
"1208 942 OFFCURVE",
"1244 942 OFFCURVE",
"1256 982 OFFCURVE",
"1242 1156 OFFCURVE",
"1252 1336 OFFCURVE",
"1244 1376 OFFCURVE",
"1204 1380 OFFCURVE",
"908 1368 OFFCURVE",
"648 1368 QCURVE SMOOTH",
"324 1368 OFFCURVE",
"92 1382 OFFCURVE",
"44 1384 OFFCURVE",
"32 1336 OFFCURVE",
"40 1184 OFFCURVE",
"30 964 OFFCURVE",
"40 932 OFFCURVE"
);
}
);
userData = {
com.schriftgestaltung.Glyphs.lastChange = "2020-04-17 19:36:31 +0000";
};
width = 1320;
},
{
layerId = "F16CA8CE-DA8C-4EBD-81D6-AE00C3431B7F";
paths = (
{
closed = 1;
nodes = (
"68 932 OFFCURVE",
"88 964 OFFCURVE",
"200 1160 OFFCURVE",
"308 1292 OFFCURVE",
"328 1304 OFFCURVE",
"408 1308 OFFCURVE",
"480 1308 OFFCURVE",
"508 1292 OFFCURVE",
"512 1260 OFFCURVE",
"522 812 OFFCURVE",
"520 230 OFFCURVE",
"514 202 OFFCURVE",
"470 134 OFFCURVE",
"364 36 OFFCURVE",
"364 0 OFFCURVE",
"402 -6 OFFCURVE",
"552 12 OFFCURVE",
"640 12 QCURVE SMOOTH",
"732 12 OFFCURVE",
"872 -4 OFFCURVE",
"916 -8 OFFCURVE",
"918 32 OFFCURVE",
"824 118 OFFCURVE",
"770 200 OFFCURVE",
"764 230 OFFCURVE",
"762 812 OFFCURVE",
"776 1272 OFFCURVE",
"784 1300 OFFCURVE",
"816 1304 OFFCURVE",
"884 1308 OFFCURVE",
"956 1304 OFFCURVE",
"980 1280 OFFCURVE",
"1090 1146 OFFCURVE",
"1190 974 OFFCURVE",
"1208 942 OFFCURVE",
"1244 942 OFFCURVE",
"1256 982 OFFCURVE",
"1242 1156 OFFCURVE",
"1252 1336 OFFCURVE",
"1244 1376 OFFCURVE",
"1204 1380 OFFCURVE",
"908 1368 OFFCURVE",
"648 1368 QCURVE SMOOTH",
"324 1368 OFFCURVE",
"92 1382 OFFCURVE",
"44 1384 OFFCURVE",
"32 1336 OFFCURVE",
"40 1184 OFFCURVE",
"30 964 OFFCURVE",
"40 932 OFFCURVE"
);
}
);
userData = {
com.schriftgestaltung.Glyphs.lastChange = "2020-04-17 19:36:31 +0000";
};
width = 1320;
},
{
layerId = "02ADBE8D-B3BB-4EC7-92FE-8DBAAB138109";
paths = (
{
closed = 1;
nodes = (
"68 932 OFFCURVE",
"88 964 OFFCURVE",
"200 1160 OFFCURVE",
"308 1292 OFFCURVE",
"328 1304 OFFCURVE",
"408 1308 OFFCURVE",
"480 1308 OFFCURVE",
"508 1292 OFFCURVE",
"512 1260 OFFCURVE",
"522 812 OFFCURVE",
"520 230 OFFCURVE",
"514 202 OFFCURVE",
"470 134 OFFCURVE",
"364 36 OFFCURVE",
"364 0 OFFCURVE",
"402 -6 OFFCURVE",
"552 12 OFFCURVE",
"640 12 QCURVE SMOOTH",
"732 12 OFFCURVE",
"872 -4 OFFCURVE",
"916 -8 OFFCURVE",
"918 32 OFFCURVE",
"824 118 OFFCURVE",
"770 200 OFFCURVE",
"764 230 OFFCURVE",
"762 812 OFFCURVE",
"776 1272 OFFCURVE",
"784 1300 OFFCURVE",
"816 1304 OFFCURVE",
"884 1308 OFFCURVE",
"956 1304 OFFCURVE",
"980 1280 OFFCURVE",
"1090 1146 OFFCURVE",
"1190 974 OFFCURVE",
"1208 942 OFFCURVE",
"1244 942 OFFCURVE",
"1256 982 OFFCURVE",
"1242 1156 OFFCURVE",
"1252 1336 OFFCURVE",
"1244 1376 OFFCURVE",
"1204 1380 OFFCURVE",
"908 1368 OFFCURVE",
"648 1368 QCURVE SMOOTH",
"324 1368 OFFCURVE",
"92 1382 OFFCURVE",
"44 1384 OFFCURVE",
"32 1336 OFFCURVE",
"40 1184 OFFCURVE",
"30 964 OFFCURVE",
"40 932 OFFCURVE"
);
}
);
userData = {
com.schriftgestaltung.Glyphs.lastChange = "2020-04-17 19:36:31 +0000";
};
width = 1320;
}
);
unicode = 0054;
},
{
color = 7;
glyphname = U;
layers = (
{
layerId = master01;
paths = (
{
closed = 1;
nodes = (
"1320 1196 OFFCURVE",
"1379 1283 OFFCURVE",
"1443 1336 OFFCURVE",
"1463 1376 OFFCURVE",
"1423 1378 OFFCURVE",
"1280 1364 OFFCURVE",
"1084 1374 OFFCURVE",
"1056 1374 OFFCURVE",
"1062 1350 OFFCURVE",
"1128 1292 OFFCURVE",
"1202 1202 OFFCURVE",
"1212 1176 OFFCURVE",
"1212 628 OFFCURVE",
"1204 308 OFFCURVE",
"1028 68 OFFCURVE",
"868 68 QCURVE SMOOTH",
"664 68 OFFCURVE",
"488 244 OFFCURVE",
"484 744 OFFCURVE",
"488 1148 OFFCURVE",
"488 1164 OFFCURVE",
"546 1258 OFFCURVE",
"628 1344 OFFCURVE",
"626 1378 OFFCURVE",
"586 1378 OFFCURVE",
"352 1364 OFFCURVE",
"120 1380 OFFCURVE",
"80 1378 OFFCURVE",
"92 1344 OFFCURVE",
"160 1276 OFFCURVE",
"220 1168 OFFCURVE",
"228 1138 OFFCURVE",
"230 162 OFFCURVE",
"580 -32 OFFCURVE",
"796 -32 QCURVE SMOOTH",
"1044 -28 OFFCURVE",
"1308 264 OFFCURVE",
"1304 832 OFFCURVE",
"1308 1168 OFFCURVE"
);
}
);
userData = {
com.schriftgestaltung.Glyphs.lastChange = "2020-04-17 19:36:31 +0000";
};
width = 1526;
},
{
layerId = "F16CA8CE-DA8C-4EBD-81D6-AE00C3431B7F";
paths = (
{
closed = 1;
nodes = (
"1320 1196 OFFCURVE",
"1379 1283 OFFCURVE",
"1443 1336 OFFCURVE",
"1463 1376 OFFCURVE",
"1423 1378 OFFCURVE",
"1280 1364 OFFCURVE",
"1084 1374 OFFCURVE",
"1056 1374 OFFCURVE",
"1062 1350 OFFCURVE",
"1128 1292 OFFCURVE",
"1202 1202 OFFCURVE",
"1212 1176 OFFCURVE",
"1212 628 OFFCURVE",
"1204 308 OFFCURVE",
"1028 68 OFFCURVE",
"868 68 QCURVE SMOOTH",
"664 68 OFFCURVE",
"488 244 OFFCURVE",
"484 744 OFFCURVE",
"488 1148 OFFCURVE",
"488 1164 OFFCURVE",
"546 1258 OFFCURVE",
"628 1344 OFFCURVE",
"626 1378 OFFCURVE",
"586 1378 OFFCURVE",
"352 1364 OFFCURVE",
"120 1380 OFFCURVE",
"80 1378 OFFCURVE",
"92 1344 OFFCURVE",
"160 1276 OFFCURVE",
"220 1168 OFFCURVE",
"228 1138 OFFCURVE",
"230 162 OFFCURVE",
"580 -32 OFFCURVE",
"796 -32 QCURVE SMOOTH",
"1044 -28 OFFCURVE",
"1308 264 OFFCURVE",
"1304 832 OFFCURVE",
"1308 1168 OFFCURVE"
);
}
);
userData = {
com.schriftgestaltung.Glyphs.lastChange = "2020-04-17 19:36:31 +0000";
};
width = 1526;
},
{
layerId = "02ADBE8D-B3BB-4EC7-92FE-8DBAAB138109";
paths = (
{
closed = 1;
nodes = (
"1320 1196 OFFCURVE",
"1379 1283 OFFCURVE",
"1443 1336 OFFCURVE",
"1463 1376 OFFCURVE",
"1423 1378 OFFCURVE",
"1280 1364 OFFCURVE",
"1084 1374 OFFCURVE",
"1056 1374 OFFCURVE",
"1062 1350 OFFCURVE",
"1128 1292 OFFCURVE",
"1202 1202 OFFCURVE",
"1212 1176 OFFCURVE",
"1212 628 OFFCURVE",
"1204 308 OFFCURVE",
"1028 68 OFFCURVE",
"868 68 QCURVE SMOOTH",
"664 68 OFFCURVE",
"488 244 OFFCURVE",
"484 744 OFFCURVE",
"488 1148 OFFCURVE",
"488 1164 OFFCURVE",
"546 1258 OFFCURVE",
"628 1344 OFFCURVE",
"626 1378 OFFCURVE",
"586 1378 OFFCURVE",
"352 1364 OFFCURVE",
"120 1380 OFFCURVE",
"80 1378 OFFCURVE",
"92 1344 OFFCURVE",
"160 1276 OFFCURVE",
"220 1168 OFFCURVE",
"228 1138 OFFCURVE",
"230 162 OFFCURVE",
"580 -32 OFFCURVE",
"796 -32 QCURVE SMOOTH",
"1044 -28 OFFCURVE",
"1308 264 OFFCURVE",
"1304 832 OFFCURVE",
"1308 1168 OFFCURVE"
);
}
);
userData = {
com.schriftgestaltung.Glyphs.lastChange = "2020-04-17 19:36:31 +0000";
};
width = 1526;
}
);
unicode = 0055;
},
{
color = 7;
glyphname = V;
layers = (
{
layerId = master01;
paths = (
{
closed = 1;
nodes = (
"750 312 OFFCURVE",
"540 860 OFFCURVE",
"402 1214 OFFCURVE",
"390 1244 OFFCURVE",
"406 1262 OFFCURVE",
"464 1308 OFFCURVE",
"540 1354 OFFCURVE",
"540 1380 OFFCURVE",
"500 1384 OFFCURVE",
"356 1368 OFFCURVE",
"268 1368 QCURVE SMOOTH",
"160 1368 OFFCURVE",
"52 1384 OFFCURVE",
"16 1382 OFFCURVE",
"10 1352 OFFCURVE",
"66 1310 OFFCURVE",
"108 1258 OFFCURVE",
"120 1242 OFFCURVE",
"338 726 OFFCURVE",
"622 8 OFFCURVE",
"640 -26 OFFCURVE",
"662 -40 OFFCURVE",
"688 -40 QCURVE SMOOTH",
"716 -40 OFFCURVE",
"744 -28 OFFCURVE",
"762 4 OFFCURVE",
"1068 824 OFFCURVE",
"1204 1184 OFFCURVE",
"1222 1208 OFFCURVE",
"1280 1288 OFFCURVE",
"1342 1352 OFFCURVE",
"1332 1380 OFFCURVE",
"1300 1382 OFFCURVE",
"1144 1364 OFFCURVE",
"972 1384 OFFCURVE",
"938 1380 OFFCURVE",
"944 1354 OFFCURVE",
"1040 1274 OFFCURVE",
"1088 1220 OFFCURVE",
"1104 1196 OFFCURVE",
"1100 1176 OFFCURVE",
"956 784 OFFCURVE",
"786 312 OFFCURVE",
"766 288 OFFCURVE"
);
}
);
userData = {
com.schriftgestaltung.Glyphs.lastChange = "2020-04-17 19:36:31 +0000";
};
width = 1362;
},
{
layerId = "F16CA8CE-DA8C-4EBD-81D6-AE00C3431B7F";
paths = (
{
closed = 1;
nodes = (
"750 312 OFFCURVE",
"540 860 OFFCURVE",
"402 1214 OFFCURVE",
"390 1244 OFFCURVE",
"406 1262 OFFCURVE",
"464 1308 OFFCURVE",
"540 1354 OFFCURVE",
"540 1380 OFFCURVE",
"500 1384 OFFCURVE",
"356 1368 OFFCURVE",
"268 1368 QCURVE SMOOTH",
"160 1368 OFFCURVE",
"52 1384 OFFCURVE",
"16 1382 OFFCURVE",
"10 1352 OFFCURVE",
"66 1310 OFFCURVE",
"108 1258 OFFCURVE",
"120 1242 OFFCURVE",
"338 726 OFFCURVE",
"622 8 OFFCURVE",
"640 -26 OFFCURVE",
"662 -40 OFFCURVE",
"688 -40 QCURVE SMOOTH",
"716 -40 OFFCURVE",
"744 -28 OFFCURVE",
"762 4 OFFCURVE",
"1068 824 OFFCURVE",
"1204 1184 OFFCURVE",
"1222 1208 OFFCURVE",
"1280 1288 OFFCURVE",
"1342 1352 OFFCURVE",
"1332 1380 OFFCURVE",
"1300 1382 OFFCURVE",
"1144 1364 OFFCURVE",
"972 1384 OFFCURVE",
"938 1380 OFFCURVE",
"944 1354 OFFCURVE",
"1040 1274 OFFCURVE",
"1088 1220 OFFCURVE",
"1104 1196 OFFCURVE",
"1100 1176 OFFCURVE",
"956 784 OFFCURVE",
"786 312 OFFCURVE",
"766 288 OFFCURVE"
);
}
);
userData = {
com.schriftgestaltung.Glyphs.lastChange = "2020-04-17 19:36:31 +0000";
};
width = 1362;
},
{
layerId = "02ADBE8D-B3BB-4EC7-92FE-8DBAAB138109";
paths = (
{
closed = 1;
nodes = (
"750 312 OFFCURVE",
"540 860 OFFCURVE",
"402 1214 OFFCURVE",
"390 1244 OFFCURVE",
"406 1262 OFFCURVE",
"464 1308 OFFCURVE",
"540 1354 OFFCURVE",
"540 1380 OFFCURVE",
"500 1384 OFFCURVE",
"356 1368 OFFCURVE",
"268 1368 QCURVE SMOOTH",
"160 1368 OFFCURVE",
"52 1384 OFFCURVE",
"16 1382 OFFCURVE",
"10 1352 OFFCURVE",
"66 1310 OFFCURVE",
"108 1258 OFFCURVE",
"120 1242 OFFCURVE",
"338 726 OFFCURVE",
"622 8 OFFCURVE",
"640 -26 OFFCURVE",
"662 -40 OFFCURVE",
"688 -40 QCURVE SMOOTH",
"716 -40 OFFCURVE",
"744 -28 OFFCURVE",
"762 4 OFFCURVE",
"1068 824 OFFCURVE",
"1204 1184 OFFCURVE",
"1222 1208 OFFCURVE",
"1280 1288 OFFCURVE",
"1342 1352 OFFCURVE",
"1332 1380 OFFCURVE",
"1300 1382 OFFCURVE",
"1144 1364 OFFCURVE",
"972 1384 OFFCURVE",
"938 1380 OFFCURVE",
"944 1354 OFFCURVE",
"1040 1274 OFFCURVE",
"1088 1220 OFFCURVE",
"1104 1196 OFFCURVE",
"1100 1176 OFFCURVE",
"956 784 OFFCURVE",
"786 312 OFFCURVE",
"766 288 OFFCURVE"
);
}
);
userData = {
com.schriftgestaltung.Glyphs.lastChange = "2020-04-17 19:36:31 +0000";
};
width = 1362;
}
);
unicode = 0056;
},
{
color = 7;
glyphname = W;
layers = (
{
layerId = master01;
paths = (
{
closed = 1;
nodes = (
"1052 740 OFFCURVE",
"1098 592 OFFCURVE",
"1316 0 OFFCURVE",
"1334 -26 OFFCURVE",
"1384 -22 OFFCURVE",
"1440 -26 OFFCURVE",
"1452 -2 OFFCURVE",
"1696 700 OFFCURVE",
"1868 1188 OFFCURVE",
"1884 1212 OFFCURVE",
"1936 1284 OFFCURVE",
"1992 1340 OFFCURVE",
"2004 1372 OFFCURVE",
"1976 1382 OFFCURVE",
"1804 1370 OFFCURVE",
"1632 1386 OFFCURVE",
"1596 1378 OFFCURVE",
"1612 1344 OFFCURVE",
"1696 1276 OFFCURVE",
"1760 1200 OFFCURVE",
"1760 1176 OFFCURVE",
"1616 732 OFFCURVE",
"1484 332 OFFCURVE",
"1464 310 OFFCURVE",
"1444 332 OFFCURVE",
"1278 812 OFFCURVE",
"1128 1232 OFFCURVE",
"1128 1252 OFFCURVE",
"1202 1312 OFFCURVE",
"1280 1352 OFFCURVE",
"1288 1380 OFFCURVE",
"1260 1384 OFFCURVE",
"1080 1368 OFFCURVE",
"1008 1368 QCURVE SMOOTH",
"900 1368 OFFCURVE",
"774 1380 OFFCURVE",
"750 1372 OFFCURVE",
"760 1346 OFFCURVE",
"804 1312 OFFCURVE",
"834 1270 OFFCURVE",
"844 1248 OFFCURVE",
"926 1060 OFFCURVE",
"988 884 OFFCURVE",
"984 852 OFFCURVE",
"878 584 OFFCURVE",
"778 332 OFFCURVE",
"762 308 OFFCURVE",
"744 332 OFFCURVE",
"530 912 OFFCURVE",
"414 1236 OFFCURVE",
"414 1256 OFFCURVE",
"484 1308 OFFCURVE",
"556 1350 OFFCURVE",
"558 1376 OFFCURVE",
"530 1382 OFFCURVE",
"284 1366 OFFCURVE",
"74 1378 OFFCURVE",
"40 1378 OFFCURVE",
"32 1358 OFFCURVE",
"98 1300 OFFCURVE",
"132 1256 OFFCURVE",
"144 1232 OFFCURVE",
"390 616 OFFCURVE",
"614 6 OFFCURVE",
"628 -30 OFFCURVE",
"682 -26 OFFCURVE",
"740 -32 OFFCURVE",
"760 12 OFFCURVE",
"970 592 OFFCURVE",
"1018 740 OFFCURVE",
"1032 740 QCURVE SMOOTH"
);
}
);
userData = {
com.schriftgestaltung.Glyphs.lastChange = "2020-04-17 19:36:31 +0000";
};
width = 2010;
},
{
layerId = "F16CA8CE-DA8C-4EBD-81D6-AE00C3431B7F";
paths = (
{
closed = 1;
nodes = (
"1052 740 OFFCURVE",
"1098 592 OFFCURVE",
"1316 0 OFFCURVE",
"1334 -26 OFFCURVE",
"1384 -22 OFFCURVE",
"1440 -26 OFFCURVE",
"1452 -2 OFFCURVE",
"1696 700 OFFCURVE",
"1868 1188 OFFCURVE",
"1884 1212 OFFCURVE",
"1936 1284 OFFCURVE",
"1992 1340 OFFCURVE",
"2004 1372 OFFCURVE",
"1976 1382 OFFCURVE",
"1804 1370 OFFCURVE",
"1632 1386 OFFCURVE",
"1596 1378 OFFCURVE",
"1612 1344 OFFCURVE",
"1696 1276 OFFCURVE",
"1760 1200 OFFCURVE",
"1760 1176 OFFCURVE",
"1616 732 OFFCURVE",
"1484 332 OFFCURVE",
"1464 310 OFFCURVE",
"1444 332 OFFCURVE",
"1278 812 OFFCURVE",
"1128 1232 OFFCURVE",
"1128 1252 OFFCURVE",
"1202 1312 OFFCURVE",
"1280 1352 OFFCURVE",
"1288 1380 OFFCURVE",
"1260 1384 OFFCURVE",
"1080 1368 OFFCURVE",
"1008 1368 QCURVE SMOOTH",
"900 1368 OFFCURVE",
"774 1380 OFFCURVE",
"750 1372 OFFCURVE",
"760 1346 OFFCURVE",
"804 1312 OFFCURVE",
"834 1270 OFFCURVE",
"844 1248 OFFCURVE",
"926 1060 OFFCURVE",
"988 884 OFFCURVE",
"984 852 OFFCURVE",
"878 584 OFFCURVE",
"778 332 OFFCURVE",
"762 308 OFFCURVE",
"744 332 OFFCURVE",
"530 912 OFFCURVE",
"414 1236 OFFCURVE",
"414 1256 OFFCURVE",
"484 1308 OFFCURVE",
"556 1350 OFFCURVE",
"558 1376 OFFCURVE",
"530 1382 OFFCURVE",
"284 1366 OFFCURVE",
"74 1378 OFFCURVE",
"40 1378 OFFCURVE",
"32 1358 OFFCURVE",
"98 1300 OFFCURVE",
"132 1256 OFFCURVE",
"144 1232 OFFCURVE",
"390 616 OFFCURVE",
"614 6 OFFCURVE",
"628 -30 OFFCURVE",
"682 -26 OFFCURVE",
"740 -32 OFFCURVE",
"760 12 OFFCURVE",
"970 592 OFFCURVE",
"1018 740 OFFCURVE",
"1032 740 QCURVE SMOOTH"
);
}
);
userData = {
com.schriftgestaltung.Glyphs.lastChange = "2020-04-17 19:36:31 +0000";
};
width = 2010;
},
{
layerId = "02ADBE8D-B3BB-4EC7-92FE-8DBAAB138109";
paths = (
{
closed = 1;
nodes = (
"1052 740 OFFCURVE",
"1098 592 OFFCURVE",
"1316 0 OFFCURVE",
"1334 -26 OFFCURVE",
"1384 -22 OFFCURVE",
"1440 -26 OFFCURVE",
"1452 -2 OFFCURVE",
"1696 700 OFFCURVE",
"1868 1188 OFFCURVE",
"1884 1212 OFFCURVE",
"1936 1284 OFFCURVE",
"1992 1340 OFFCURVE",
"2004 1372 OFFCURVE",
"1976 1382 OFFCURVE",
"1804 1370 OFFCURVE",
"1632 1386 OFFCURVE",
"1596 1378 OFFCURVE",
"1612 1344 OFFCURVE",
"1696 1276 OFFCURVE",
"1760 1200 OFFCURVE",
"1760 1176 OFFCURVE",
"1616 732 OFFCURVE",
"1484 332 OFFCURVE",
"1464 310 OFFCURVE",
"1444 332 OFFCURVE",
"1278 812 OFFCURVE",
"1128 1232 OFFCURVE",
"1128 1252 OFFCURVE",
"1202 1312 OFFCURVE",
"1280 1352 OFFCURVE",
"1288 1380 OFFCURVE",
"1260 1384 OFFCURVE",
"1080 1368 OFFCURVE",
"1008 1368 QCURVE SMOOTH",
"900 1368 OFFCURVE",
"774 1380 OFFCURVE",
"750 1372 OFFCURVE",
"760 1346 OFFCURVE",
"804 1312 OFFCURVE",
"834 1270 OFFCURVE",
"844 1248 OFFCURVE",
"926 1060 OFFCURVE",
"988 884 OFFCURVE",
"984 852 OFFCURVE",
"878 584 OFFCURVE",
"778 332 OFFCURVE",
"762 308 OFFCURVE",
"744 332 OFFCURVE",
"530 912 OFFCURVE",
"414 1236 OFFCURVE",
"414 1256 OFFCURVE",
"484 1308 OFFCURVE",
"556 1350 OFFCURVE",
"558 1376 OFFCURVE",
"530 1382 OFFCURVE",
"284 1366 OFFCURVE",
"74 1378 OFFCURVE",
"40 1378 OFFCURVE",
"32 1358 OFFCURVE",
"98 1300 OFFCURVE",
"132 1256 OFFCURVE",
"144 1232 OFFCURVE",
"390 616 OFFCURVE",
"614 6 OFFCURVE",
"628 -30 OFFCURVE",
"682 -26 OFFCURVE",
"740 -32 OFFCURVE",
"760 12 OFFCURVE",
"970 592 OFFCURVE",
"1018 740 OFFCURVE",
"1032 740 QCURVE SMOOTH"
);
}
);
userData = {
com.schriftgestaltung.Glyphs.lastChange = "2020-04-17 19:36:31 +0000";
};
width = 2010;
}
);
unicode = 0057;
},
{
color = 7;
glyphname = X;
layers = (
{
layerId = master01;
paths = (
{
closed = 1;
nodes = (
"1188 4 OFFCURVE",
"1390 -12 OFFCURVE",
"1436 -12 OFFCURVE",
"1438 24 OFFCURVE",
"1340 94 OFFCURVE",
"1228 212 OFFCURVE",
"1064 432 OFFCURVE",
"848 716 OFFCURVE",
"836 740 OFFCURVE",
"852 760 OFFCURVE",
"1058 1040 OFFCURVE",
"1156 1164 OFFCURVE",
"1280 1284 OFFCURVE",
"1372 1342 OFFCURVE",
"1376 1382 OFFCURVE",
"1336 1382 OFFCURVE",
"1148 1370 OFFCURVE",
"916 1384 OFFCURVE",
"880 1386 OFFCURVE",
"870 1362 OFFCURVE",
"884 1340 OFFCURVE",
"942 1276 OFFCURVE",
"1000 1194 OFFCURVE",
"1018 1170 OFFCURVE",
"1006 1146 OFFCURVE",
"904 1006 OFFCURVE",
"788 852 OFFCURVE",
"768 828 OFFCURVE",
"748 854 OFFCURVE",
"612 1022 OFFCURVE",
"520 1148 OFFCURVE",
"498 1180 OFFCURVE",
"518 1210 OFFCURVE",
"576 1276 OFFCURVE",
"652 1354 OFFCURVE",
"642 1382 OFFCURVE",
"608 1384 OFFCURVE",
"444 1372 OFFCURVE",
"328 1372 QCURVE SMOOTH",
"214 1372 OFFCURVE",
"74 1380 OFFCURVE",
"34 1380 OFFCURVE",
"30 1354 OFFCURVE",
"132 1276 OFFCURVE",
"232 1164 OFFCURVE",
"366 994 OFFCURVE",
"564 708 OFFCURVE",
"586 680 OFFCURVE",
"564 656 OFFCURVE",
"416 452 OFFCURVE",
"218 206 OFFCURVE",
"136 108 OFFCURVE",
"18 22 OFFCURVE",
"18 -12 OFFCURVE",
"64 -10 OFFCURVE",
"248 2 OFFCURVE",
"468 -8 OFFCURVE",
"520 -4 OFFCURVE",
"518 30 OFFCURVE",
"430 100 OFFCURVE",
"382 166 OFFCURVE",
"370 186 OFFCURVE",
"380 208 OFFCURVE",
"498 382 OFFCURVE",
"636 564 OFFCURVE",
"656 582 OFFCURVE",
"680 560 OFFCURVE",
"822 372 OFFCURVE",
"926 228 OFFCURVE",
"942 198 OFFCURVE",
"930 176 OFFCURVE",
"878 112 OFFCURVE",
"768 22 OFFCURVE",
"764 -14 OFFCURVE",
"798 -16 OFFCURVE",
"948 4 OFFCURVE",
"1088 4 QCURVE SMOOTH"
);
}
);
userData = {
com.schriftgestaltung.Glyphs.lastChange = "2020-04-17 19:36:31 +0000";
};
width = 1444;
},
{
layerId = "F16CA8CE-DA8C-4EBD-81D6-AE00C3431B7F";
paths = (
{
closed = 1;
nodes = (
"1188 4 OFFCURVE",
"1390 -12 OFFCURVE",
"1436 -12 OFFCURVE",
"1438 24 OFFCURVE",
"1340 94 OFFCURVE",
"1228 212 OFFCURVE",
"1064 432 OFFCURVE",
"848 716 OFFCURVE",
"836 740 OFFCURVE",
"852 760 OFFCURVE",
"1058 1040 OFFCURVE",
"1156 1164 OFFCURVE",
"1280 1284 OFFCURVE",
"1372 1342 OFFCURVE",
"1376 1382 OFFCURVE",
"1336 1382 OFFCURVE",
"1148 1370 OFFCURVE",
"916 1384 OFFCURVE",
"880 1386 OFFCURVE",
"870 1362 OFFCURVE",
"884 1340 OFFCURVE",
"942 1276 OFFCURVE",
"1000 1194 OFFCURVE",
"1018 1170 OFFCURVE",
"1006 1146 OFFCURVE",
"904 1006 OFFCURVE",
"788 852 OFFCURVE",
"768 828 OFFCURVE",
"748 854 OFFCURVE",
"612 1022 OFFCURVE",
"520 1148 OFFCURVE",
"498 1180 OFFCURVE",
"518 1210 OFFCURVE",
"576 1276 OFFCURVE",
"652 1354 OFFCURVE",
"642 1382 OFFCURVE",
"608 1384 OFFCURVE",
"444 1372 OFFCURVE",
"328 1372 QCURVE SMOOTH",
"214 1372 OFFCURVE",
"74 1380 OFFCURVE",
"34 1380 OFFCURVE",
"30 1354 OFFCURVE",
"132 1276 OFFCURVE",
"232 1164 OFFCURVE",
"366 994 OFFCURVE",
"564 708 OFFCURVE",
"586 680 OFFCURVE",
"564 656 OFFCURVE",
"416 452 OFFCURVE",
"218 206 OFFCURVE",
"136 108 OFFCURVE",
"18 22 OFFCURVE",
"18 -12 OFFCURVE",
"64 -10 OFFCURVE",
"248 2 OFFCURVE",
"468 -8 OFFCURVE",
"520 -4 OFFCURVE",
"518 30 OFFCURVE",
"430 100 OFFCURVE",
"382 166 OFFCURVE",
"370 186 OFFCURVE",
"380 208 OFFCURVE",
"498 382 OFFCURVE",
"636 564 OFFCURVE",
"656 582 OFFCURVE",
"680 560 OFFCURVE",
"822 372 OFFCURVE",
"926 228 OFFCURVE",
"942 198 OFFCURVE",
"930 176 OFFCURVE",
"878 112 OFFCURVE",
"768 22 OFFCURVE",
"764 -14 OFFCURVE",
"798 -16 OFFCURVE",
"948 4 OFFCURVE",
"1088 4 QCURVE SMOOTH"
);
}
);
userData = {
com.schriftgestaltung.Glyphs.lastChange = "2020-04-17 19:36:31 +0000";
};
width = 1444;
},
{
layerId = "02ADBE8D-B3BB-4EC7-92FE-8DBAAB138109";
paths = (
{
closed = 1;
nodes = (
"1188 4 OFFCURVE",
"1390 -12 OFFCURVE",
"1436 -12 OFFCURVE",
"1438 24 OFFCURVE",
"1340 94 OFFCURVE",
"1228 212 OFFCURVE",
"1064 432 OFFCURVE",
"848 716 OFFCURVE",
"836 740 OFFCURVE",
"852 760 OFFCURVE",
"1058 1040 OFFCURVE",
"1156 1164 OFFCURVE",
"1280 1284 OFFCURVE",
"1372 1342 OFFCURVE",
"1376 1382 OFFCURVE",
"1336 1382 OFFCURVE",
"1148 1370 OFFCURVE",
"916 1384 OFFCURVE",
"880 1386 OFFCURVE",
"870 1362 OFFCURVE",
"884 1340 OFFCURVE",
"942 1276 OFFCURVE",
"1000 1194 OFFCURVE",
"1018 1170 OFFCURVE",
"1006 1146 OFFCURVE",
"904 1006 OFFCURVE",
"788 852 OFFCURVE",
"768 828 OFFCURVE",
"748 854 OFFCURVE",
"612 1022 OFFCURVE",
"520 1148 OFFCURVE",
"498 1180 OFFCURVE",
"518 1210 OFFCURVE",
"576 1276 OFFCURVE",
"652 1354 OFFCURVE",
"642 1382 OFFCURVE",
"608 1384 OFFCURVE",
"444 1372 OFFCURVE",
"328 1372 QCURVE SMOOTH",
"214 1372 OFFCURVE",
"74 1380 OFFCURVE",
"34 1380 OFFCURVE",
"30 1354 OFFCURVE",
"132 1276 OFFCURVE",
"232 1164 OFFCURVE",
"366 994 OFFCURVE",
"564 708 OFFCURVE",
"586 680 OFFCURVE",
"564 656 OFFCURVE",
"416 452 OFFCURVE",
"218 206 OFFCURVE",
"136 108 OFFCURVE",
"18 22 OFFCURVE",
"18 -12 OFFCURVE",
"64 -10 OFFCURVE",
"248 2 OFFCURVE",
"468 -8 OFFCURVE",
"520 -4 OFFCURVE",
"518 30 OFFCURVE",
"430 100 OFFCURVE",
"382 166 OFFCURVE",
"370 186 OFFCURVE",
"380 208 OFFCURVE",
"498 382 OFFCURVE",
"636 564 OFFCURVE",
"656 582 OFFCURVE",
"680 560 OFFCURVE",
"822 372 OFFCURVE",
"926 228 OFFCURVE",
"942 198 OFFCURVE",
"930 176 OFFCURVE",
"878 112 OFFCURVE",
"768 22 OFFCURVE",
"764 -14 OFFCURVE",
"798 -16 OFFCURVE",
"948 4 OFFCURVE",
"1088 4 QCURVE SMOOTH"
);
}
);
userData = {
com.schriftgestaltung.Glyphs.lastChange = "2020-04-17 19:36:31 +0000";
};
width = 1444;
}
);
unicode = 0058;
},
{
color = 7;
glyphname = Y;
layers = (
{
layerId = master01;
paths = (
{
closed = 1;
nodes = (
"792 0 OFFCURVE",
"928 -12 OFFCURVE",
"970 -12 OFFCURVE",
"970 20 OFFCURVE",
"878 112 OFFCURVE",
"824 204 OFFCURVE",
"818 228 OFFCURVE",
"812 424 OFFCURVE",
"814 626 OFFCURVE",
"830 652 OFFCURVE",
"1012 964 OFFCURVE",
"1146 1170 OFFCURVE",
"1164 1194 OFFCURVE",
"1266 1300 OFFCURVE",
"1354 1352 OFFCURVE",
"1352 1382 OFFCURVE",
"1316 1384 OFFCURVE",
"1100 1362 OFFCURVE",
"900 1378 OFFCURVE",
"860 1378 OFFCURVE",
"862 1348 OFFCURVE",
"924 1288 OFFCURVE",
"1008 1184 OFFCURVE",
"1024 1160 OFFCURVE",
"1012 1136 OFFCURVE",
"916 968 OFFCURVE",
"782 744 OFFCURVE",
"760 714 OFFCURVE",
"738 744 OFFCURVE",
"588 992 OFFCURVE",
"502 1132 OFFCURVE",
"492 1160 OFFCURVE",
"504 1180 OFFCURVE",
"570 1264 OFFCURVE",
"646 1336 OFFCURVE",
"652 1378 OFFCURVE",
"602 1378 OFFCURVE",
"420 1364 OFFCURVE",
"324 1364 QCURVE SMOOTH",
"218 1364 OFFCURVE",
"58 1384 OFFCURVE",
"24 1382 OFFCURVE",
"32 1346 OFFCURVE",
"122 1264 OFFCURVE",
"200 1168 OFFCURVE",
"208 1152 OFFCURVE",
"360 914 OFFCURVE",
"548 570 OFFCURVE",
"560 546 OFFCURVE",
"566 424 OFFCURVE",
"564 226 OFFCURVE",
"556 200 OFFCURVE",
"504 112 OFFCURVE",
"420 22 OFFCURVE",
"420 -10 OFFCURVE",
"468 -10 OFFCURVE",
"584 0 OFFCURVE",
"700 0 QCURVE SMOOTH"
);
}
);
userData = {
com.schriftgestaltung.Glyphs.lastChange = "2020-04-17 19:36:31 +0000";
};
width = 1378;
},
{
layerId = "F16CA8CE-DA8C-4EBD-81D6-AE00C3431B7F";
paths = (
{
closed = 1;
nodes = (
"792 0 OFFCURVE",
"928 -12 OFFCURVE",
"970 -12 OFFCURVE",
"970 20 OFFCURVE",
"878 112 OFFCURVE",
"824 204 OFFCURVE",
"818 228 OFFCURVE",
"812 424 OFFCURVE",
"814 626 OFFCURVE",
"830 652 OFFCURVE",
"1012 964 OFFCURVE",
"1146 1170 OFFCURVE",
"1164 1194 OFFCURVE",
"1266 1300 OFFCURVE",
"1354 1352 OFFCURVE",
"1352 1382 OFFCURVE",
"1316 1384 OFFCURVE",
"1100 1362 OFFCURVE",
"900 1378 OFFCURVE",
"860 1378 OFFCURVE",
"862 1348 OFFCURVE",
"924 1288 OFFCURVE",
"1008 1184 OFFCURVE",
"1024 1160 OFFCURVE",
"1012 1136 OFFCURVE",
"916 968 OFFCURVE",
"782 744 OFFCURVE",
"760 714 OFFCURVE",
"738 744 OFFCURVE",
"588 992 OFFCURVE",
"502 1132 OFFCURVE",
"492 1160 OFFCURVE",
"504 1180 OFFCURVE",
"570 1264 OFFCURVE",
"646 1336 OFFCURVE",
"652 1378 OFFCURVE",
"602 1378 OFFCURVE",
"420 1364 OFFCURVE",
"324 1364 QCURVE SMOOTH",
"218 1364 OFFCURVE",
"58 1384 OFFCURVE",
"24 1382 OFFCURVE",
"32 1346 OFFCURVE",
"122 1264 OFFCURVE",
"200 1168 OFFCURVE",
"208 1152 OFFCURVE",
"360 914 OFFCURVE",
"548 570 OFFCURVE",
"560 546 OFFCURVE",
"566 424 OFFCURVE",
"564 226 OFFCURVE",
"556 200 OFFCURVE",
"504 112 OFFCURVE",
"420 22 OFFCURVE",
"420 -10 OFFCURVE",
"468 -10 OFFCURVE",
"584 0 OFFCURVE",
"700 0 QCURVE SMOOTH"
);
}
);
userData = {
com.schriftgestaltung.Glyphs.lastChange = "2020-04-17 19:36:31 +0000";
};
width = 1378;
},
{
layerId = "02ADBE8D-B3BB-4EC7-92FE-8DBAAB138109";
paths = (
{
closed = 1;
nodes = (
"792 0 OFFCURVE",
"928 -12 OFFCURVE",
"970 -12 OFFCURVE",
"970 20 OFFCURVE",
"878 112 OFFCURVE",
"824 204 OFFCURVE",
"818 228 OFFCURVE",
"812 424 OFFCURVE",
"814 626 OFFCURVE",
"830 652 OFFCURVE",
"1012 964 OFFCURVE",
"1146 1170 OFFCURVE",
"1164 1194 OFFCURVE",
"1266 1300 OFFCURVE",
"1354 1352 OFFCURVE",
"1352 1382 OFFCURVE",
"1316 1384 OFFCURVE",
"1100 1362 OFFCURVE",
"900 1378 OFFCURVE",
"860 1378 OFFCURVE",
"862 1348 OFFCURVE",
"924 1288 OFFCURVE",
"1008 1184 OFFCURVE",
"1024 1160 OFFCURVE",
"1012 1136 OFFCURVE",
"916 968 OFFCURVE",
"782 744 OFFCURVE",
"760 714 OFFCURVE",
"738 744 OFFCURVE",
"588 992 OFFCURVE",
"502 1132 OFFCURVE",
"492 1160 OFFCURVE",
"504 1180 OFFCURVE",
"570 1264 OFFCURVE",
"646 1336 OFFCURVE",
"652 1378 OFFCURVE",
"602 1378 OFFCURVE",
"420 1364 OFFCURVE",
"324 1364 QCURVE SMOOTH",
"218 1364 OFFCURVE",
"58 1384 OFFCURVE",
"24 1382 OFFCURVE",
"32 1346 OFFCURVE",
"122 1264 OFFCURVE",
"200 1168 OFFCURVE",
"208 1152 OFFCURVE",
"360 914 OFFCURVE",
"548 570 OFFCURVE",
"560 546 OFFCURVE",
"566 424 OFFCURVE",
"564 226 OFFCURVE",
"556 200 OFFCURVE",
"504 112 OFFCURVE",
"420 22 OFFCURVE",
"420 -10 OFFCURVE",
"468 -10 OFFCURVE",
"584 0 OFFCURVE",
"700 0 QCURVE SMOOTH"
);
}
);
userData = {
com.schriftgestaltung.Glyphs.lastChange = "2020-04-17 19:36:31 +0000";
};
width = 1378;
}
);
unicode = 0059;
},
{
color = 7;
glyphname = Z;
layers = (
{
layerId = master01;
paths = (
{
closed = 1;
nodes = (
"1212 414 OFFCURVE",
"1156 320 OFFCURVE",
"986 106 OFFCURVE",
"964 88 OFFCURVE",
"928 82 OFFCURVE",
"664 78 OFFCURVE",
"422 80 OFFCURVE",
"394 90 OFFCURVE",
"408 116 OFFCURVE",
"820 730 OFFCURVE",
"1222 1296 OFFCURVE",
"1248 1366 OFFCURVE",
"1198 1376 OFFCURVE",
"1056 1364 OFFCURVE",
"692 1364 QCURVE SMOOTH",
"604 1364 OFFCURVE",
"362 1364 OFFCURVE",
"186 1396 OFFCURVE",
"156 1392 OFFCURVE",
"152 1356 OFFCURVE",
"160 1184 OFFCURVE",
"132 942 OFFCURVE",
"154 920 OFFCURVE",
"182 944 OFFCURVE",
"292 1124 OFFCURVE",
"404 1254 OFFCURVE",
"424 1276 OFFCURVE",
"454 1278 OFFCURVE",
"648 1284 OFFCURVE",
"870 1284 OFFCURVE",
"892 1268 OFFCURVE",
"880 1244 OFFCURVE",
"498 672 OFFCURVE",
"88 68 OFFCURVE",
"56 28 OFFCURVE",
"84 -8 OFFCURVE",
"132 -6 OFFCURVE",
"488 4 OFFCURVE",
"616 4 QCURVE SMOOTH",
"854 4 OFFCURVE",
"1180 -16 OFFCURVE",
"1224 -12 OFFCURVE",
"1226 24 OFFCURVE",
"1228 206 OFFCURVE",
"1252 392 OFFCURVE",
"1244 422 OFFCURVE"
);
}
);
userData = {
com.schriftgestaltung.Glyphs.lastChange = "2020-04-17 19:36:31 +0000";
};
width = 1336;
},
{
layerId = "F16CA8CE-DA8C-4EBD-81D6-AE00C3431B7F";
paths = (
{
closed = 1;
nodes = (
"1212 414 OFFCURVE",
"1156 320 OFFCURVE",
"986 106 OFFCURVE",
"964 88 OFFCURVE",
"928 82 OFFCURVE",
"664 78 OFFCURVE",
"422 80 OFFCURVE",
"394 90 OFFCURVE",
"408 116 OFFCURVE",
"820 730 OFFCURVE",
"1222 1296 OFFCURVE",
"1248 1366 OFFCURVE",
"1198 1376 OFFCURVE",
"1056 1364 OFFCURVE",
"692 1364 QCURVE SMOOTH",
"604 1364 OFFCURVE",
"362 1364 OFFCURVE",
"186 1396 OFFCURVE",
"156 1392 OFFCURVE",
"152 1356 OFFCURVE",
"160 1184 OFFCURVE",
"132 942 OFFCURVE",
"154 920 OFFCURVE",
"182 944 OFFCURVE",
"292 1124 OFFCURVE",
"404 1254 OFFCURVE",
"424 1276 OFFCURVE",
"454 1278 OFFCURVE",
"648 1284 OFFCURVE",
"870 1284 OFFCURVE",
"892 1268 OFFCURVE",
"880 1244 OFFCURVE",
"498 672 OFFCURVE",
"88 68 OFFCURVE",
"56 28 OFFCURVE",
"84 -8 OFFCURVE",
"132 -6 OFFCURVE",
"488 4 OFFCURVE",
"616 4 QCURVE SMOOTH",
"854 4 OFFCURVE",
"1180 -16 OFFCURVE",
"1224 -12 OFFCURVE",
"1226 24 OFFCURVE",
"1228 206 OFFCURVE",
"1252 392 OFFCURVE",
"1244 422 OFFCURVE"
);
}
);
userData = {
com.schriftgestaltung.Glyphs.lastChange = "2020-04-17 19:36:31 +0000";
};
width = 1336;
},
{
layerId = "02ADBE8D-B3BB-4EC7-92FE-8DBAAB138109";
paths = (
{
closed = 1;
nodes = (
"1212 414 OFFCURVE",
"1156 320 OFFCURVE",
"986 106 OFFCURVE",
"964 88 OFFCURVE",
"928 82 OFFCURVE",
"664 78 OFFCURVE",
"422 80 OFFCURVE",
"394 90 OFFCURVE",
"408 116 OFFCURVE",
"820 730 OFFCURVE",
"1222 1296 OFFCURVE",
"1248 1366 OFFCURVE",
"1198 1376 OFFCURVE",
"1056 1364 OFFCURVE",
"692 1364 QCURVE SMOOTH",
"604 1364 OFFCURVE",
"362 1364 OFFCURVE",
"186 1396 OFFCURVE",
"156 1392 OFFCURVE",
"152 1356 OFFCURVE",
"160 1184 OFFCURVE",
"132 942 OFFCURVE",
"154 920 OFFCURVE",
"182 944 OFFCURVE",
"292 1124 OFFCURVE",
"404 1254 OFFCURVE",
"424 1276 OFFCURVE",
"454 1278 OFFCURVE",
"648 1284 OFFCURVE",
"870 1284 OFFCURVE",
"892 1268 OFFCURVE",
"880 1244 OFFCURVE",
"498 672 OFFCURVE",
"88 68 OFFCURVE",
"56 28 OFFCURVE",
"84 -8 OFFCURVE",
"132 -6 OFFCURVE",
"488 4 OFFCURVE",
"616 4 QCURVE SMOOTH",
"854 4 OFFCURVE",
"1180 -16 OFFCURVE",
"1224 -12 OFFCURVE",
"1226 24 OFFCURVE",
"1228 206 OFFCURVE",
"1252 392 OFFCURVE",
"1244 422 OFFCURVE"
);
}
);
userData = {
com.schriftgestaltung.Glyphs.lastChange = "2020-04-17 19:36:31 +0000";
};
width = 1336;
}
);
unicode = 005A;
},
{
color = 7;
glyphname = a;
layers = (
{
layerId = master01;
paths = (
{
closed = 1;
nodes = (
"867 0 OFFCURVE",
"967 -10 OFFCURVE",
"994 -10 OFFCURVE",
"1008 21 OFFCURVE",
"888 108 OFFCURVE",
"875 126 OFFCURVE",
"865 142 OFFCURVE",
"869 504 OFFCURVE",
"869 778 OFFCURVE",
"869 816 OFFCURVE",
"883 894 OFFCURVE",
"913 950 OFFCURVE",
"907 990 OFFCURVE",
"865 990 OFFCURVE",
"537 984 OFFCURVE",
"462 984 QCURVE SMOOTH",
"319 984 OFFCURVE",
"169 1000 OFFCURVE",
"89 1000 OFFCURVE",
"83 952 OFFCURVE",
"91 836 OFFCURVE",
"72 698 OFFCURVE",
"93 664 OFFCURVE",
"140 684 OFFCURVE",
"205 806 OFFCURVE",
"349 924 OFFCURVE",
"565 924 OFFCURVE",
"630 792 OFFCURVE",
"631 663 OFFCURVE",
"628 638 OFFCURVE",
"605 628 OFFCURVE",
"311 532 OFFCURVE",
"41 342 OFFCURVE",
"39 96 OFFCURVE",
"167 -20 OFFCURVE",
"351 -20 OFFCURVE",
"489 33 OFFCURVE",
"588 120 OFFCURVE",
"615 150 OFFCURVE",
"636 150 OFFCURVE",
"636 121 OFFCURVE",
"607 32 OFFCURVE",
"629 -10 OFFCURVE",
"669 -10 OFFCURVE",
"753 0 OFFCURVE",
"818 0 QCURVE SMOOTH"
);
},
{
closed = 1;
nodes = (
"303 368 OFFCURVE",
"391 472 OFFCURVE",
"597 572 OFFCURVE",
"623 572 OFFCURVE",
"629 546 OFFCURVE",
"633 488 OFFCURVE",
"634 408 QCURVE SMOOTH",
"633 332 OFFCURVE",
"629 244 OFFCURVE",
"626 220 OFFCURVE",
"613 208 OFFCURVE",
"517 138 OFFCURVE",
"385 138 OFFCURVE",
"303 206 OFFCURVE",
"304 276 QCURVE SMOOTH"
);
}
);
userData = {
com.schriftgestaltung.Glyphs.lastChange = "2020-04-17 19:36:31 +0000";
};
width = 1032;
},
{
layerId = "F16CA8CE-DA8C-4EBD-81D6-AE00C3431B7F";
paths = (
{
closed = 1;
nodes = (
"897 0 OFFCURVE",
"1008 -30 OFFCURVE",
"1078 -30 OFFCURVE",
"1095 40 OFFCURVE",
"987 135 OFFCURVE",
"969 168 OFFCURVE",
"965 204 OFFCURVE",
"963 504 OFFCURVE",
"967 791 OFFCURVE",
"968 822 OFFCURVE",
"975 851 OFFCURVE",
"1011 955 OFFCURVE",
"1013 1002 OFFCURVE",
"948 1002 OFFCURVE",
"625 980 OFFCURVE",
"510 980 QCURVE SMOOTH",
"325 980 OFFCURVE",
"168 1000 OFFCURVE",
"121 1000 OFFCURVE",
"100 952 OFFCURVE",
"99 786 OFFCURVE",
"80 613 OFFCURVE",
"105 571 OFFCURVE",
"156 571 OFFCURVE",
"272 781 OFFCURVE",
"445 910 OFFCURVE",
"565 910 OFFCURVE",
"607 849 OFFCURVE",
"605 679 OFFCURVE",
"597 633 OFFCURVE",
"561 616 OFFCURVE",
"315 538 OFFCURVE",
"21 360 OFFCURVE",
"19 78 OFFCURVE",
"155 -30 OFFCURVE",
"393 -30 OFFCURVE",
"523 36 OFFCURVE",
"576 107 OFFCURVE",
"595 128 OFFCURVE",
"613 128 OFFCURVE",
"613 90 OFFCURVE",
"581 27 OFFCURVE",
"588 -30 OFFCURVE",
"629 -30 OFFCURVE",
"791 0 OFFCURVE",
"855 0 QCURVE SMOOTH"
);
},
{
closed = 1;
nodes = (
"393 376 OFFCURVE",
"450 472 OFFCURVE",
"573 538 OFFCURVE",
"597 534 OFFCURVE",
"606 497 OFFCURVE",
"608 425 OFFCURVE",
"608 384 QCURVE SMOOTH",
"608 347 OFFCURVE",
"608 260 OFFCURVE",
"601 223 OFFCURVE",
"577 195 OFFCURVE",
"535 176 OFFCURVE",
"463 176 OFFCURVE",
"391 270 OFFCURVE",
"392 320 QCURVE SMOOTH"
);
}
);
userData = {
com.schriftgestaltung.Glyphs.lastChange = "2020-04-17 19:36:31 +0000";
};
width = 1108;
},
{
layerId = "02ADBE8D-B3BB-4EC7-92FE-8DBAAB138109";
paths = (
{
closed = 1;
nodes = (
"839 0 OFFCURVE",
"900 0 OFFCURVE",
"950 0 OFFCURVE",
"950 29 OFFCURVE",
"873 77 OFFCURVE",
"796 122 OFFCURVE",
"796 245 OFFCURVE",
"796 504 OFFCURVE",
"796 746 OFFCURVE",
"796 837 OFFCURVE",
"828 902 OFFCURVE",
"846 942 OFFCURVE",
"846 980 OFFCURVE",
"799 980 OFFCURVE",
"559 980 OFFCURVE",
"485 980 QCURVE SMOOTH",
"362 980 OFFCURVE",
"189 980 OFFCURVE",
"129 980 OFFCURVE",
"129 942 OFFCURVE",
"129 836 OFFCURVE",
"129 706 OFFCURVE",
"129 670 OFFCURVE",
"169 670 OFFCURVE",
"305 889 OFFCURVE",
"414 923 OFFCURVE",
"546 923 OFFCURVE",
"626 841 OFFCURVE",
"626 631 OFFCURVE",
"626 598 OFFCURVE",
"584 585 OFFCURVE",
"295 521 OFFCURVE",
"81 382 OFFCURVE",
"79 96 OFFCURVE",
"207 -20 OFFCURVE",
"393 -20 OFFCURVE",
"510 60 OFFCURVE",
"602 144 OFFCURVE",
"621 154 OFFCURVE",
"634 139 OFFCURVE",
"634 96 OFFCURVE",
"634 26 OFFCURVE",
"651 0 OFFCURVE",
"687 0 OFFCURVE",
"747 0 OFFCURVE",
"793 0 QCURVE SMOOTH"
);
},
{
closed = 1;
nodes = (
"260 378 OFFCURVE",
"444 484 OFFCURVE",
"583 526 OFFCURVE",
"627 532 OFFCURVE",
"627 476 OFFCURVE",
"627 430 OFFCURVE",
"627 364 QCURVE SMOOTH",
"627 343 OFFCURVE",
"627 321 OFFCURVE",
"627 238 OFFCURVE",
"584 196 OFFCURVE",
"465 122 OFFCURVE",
"333 122 OFFCURVE",
"260 198 OFFCURVE",
"260 276 QCURVE SMOOTH"
);
}
);
userData = {
com.schriftgestaltung.Glyphs.lastChange = "2020-04-17 19:36:31 +0000";
};
width = 980;
}
);
unicode = 0061;
},
{
glyphname = agrave;
layers = (
{
layerId = master01;
paths = (
{
closed = 1;
nodes = (
"642 1104 LINE",
"606 1362 LINE",
"354 1362 LINE",
"612 1104 LINE"
);
},
{
closed = 1;
nodes = (
"1028 0 LINE",
"880 130 LINE",
"878 130 LINE",
"878 850 LINE",
"974 980 LINE",
"98 980 LINE",
"98 660 LINE",
"112 660 LINE",
"186 808 OFFCURVE",
"284 910 OFFCURVE",
"452 910 CURVE SMOOTH",
"634 910 OFFCURVE",
"638 800 OFFCURVE",
"638 620 CURVE",
"292 518 OFFCURVE",
"50 414 OFFCURVE",
"50 210 CURVE SMOOTH",
"50 48 OFFCURVE",
"152 -20 OFFCURVE",
"290 -20 CURVE SMOOTH",
"422 -20 OFFCURVE",
"562 94 OFFCURVE",
"638 168 CURVE",
"638 0 LINE"
);
},
{
closed = 1;
nodes = (
"588 170 OFFCURVE",
"526 138 OFFCURVE",
"464 138 CURVE SMOOTH",
"380 138 OFFCURVE",
"314 180 OFFCURVE",
"314 276 CURVE SMOOTH",
"314 372 OFFCURVE",
"394 490 OFFCURVE",
"638 566 CURVE",
"638 222 LINE"
);
}
);
width = 1068;
},
{
layerId = "F16CA8CE-DA8C-4EBD-81D6-AE00C3431B7F";
paths = (
{
closed = 1;
nodes = (
"642 1104 LINE",
"606 1362 LINE",
"354 1362 LINE",
"612 1104 LINE"
);
},
{
closed = 1;
nodes = (
"1028 0 LINE",
"880 130 LINE",
"878 130 LINE",
"878 850 LINE",
"974 980 LINE",
"98 980 LINE",
"98 660 LINE",
"112 660 LINE",
"186 808 OFFCURVE",
"284 910 OFFCURVE",
"452 910 CURVE SMOOTH",
"634 910 OFFCURVE",
"638 800 OFFCURVE",
"638 620 CURVE",
"292 518 OFFCURVE",
"50 414 OFFCURVE",
"50 210 CURVE SMOOTH",
"50 48 OFFCURVE",
"152 -20 OFFCURVE",
"290 -20 CURVE SMOOTH",
"422 -20 OFFCURVE",
"562 94 OFFCURVE",
"638 168 CURVE",
"638 0 LINE"
);
},
{
closed = 1;
nodes = (
"588 170 OFFCURVE",
"526 138 OFFCURVE",
"464 138 CURVE SMOOTH",
"380 138 OFFCURVE",
"314 180 OFFCURVE",
"314 276 CURVE SMOOTH",
"314 372 OFFCURVE",
"394 490 OFFCURVE",
"638 566 CURVE",
"638 222 LINE"
);
}
);
width = 1068;
},
{
layerId = "02ADBE8D-B3BB-4EC7-92FE-8DBAAB138109";
paths = (
{
closed = 1;
nodes = (
"642 1104 LINE",
"606 1362 LINE",
"354 1362 LINE",
"612 1104 LINE"
);
},
{
closed = 1;
nodes = (
"1028 0 LINE",
"880 130 LINE",
"878 130 LINE",
"878 850 LINE",
"974 980 LINE",
"98 980 LINE",
"98 660 LINE",
"112 660 LINE",
"186 808 OFFCURVE",
"284 910 OFFCURVE",
"452 910 CURVE SMOOTH",
"634 910 OFFCURVE",
"638 800 OFFCURVE",
"638 620 CURVE",
"292 518 OFFCURVE",
"50 414 OFFCURVE",
"50 210 CURVE SMOOTH",
"50 48 OFFCURVE",
"152 -20 OFFCURVE",
"290 -20 CURVE SMOOTH",
"422 -20 OFFCURVE",
"562 94 OFFCURVE",
"638 168 CURVE",
"638 0 LINE"
);
},
{
closed = 1;
nodes = (
"588 170 OFFCURVE",
"526 138 OFFCURVE",
"464 138 CURVE SMOOTH",
"380 138 OFFCURVE",
"314 180 OFFCURVE",
"314 276 CURVE SMOOTH",
"314 372 OFFCURVE",
"394 490 OFFCURVE",
"638 566 CURVE",
"638 222 LINE"
);
}
);
width = 1068;
}
);
unicode = 00E0;
},
{
glyphname = aring;
layers = (
{
layerId = master01;
paths = (
{
closed = 1;
nodes = (
"348 1172 OFFCURVE",
"428 1092 OFFCURVE",
"526 1092 CURVE SMOOTH",
"624 1092 OFFCURVE",
"704 1172 OFFCURVE",
"704 1270 CURVE SMOOTH",
"704 1368 OFFCURVE",
"624 1448 OFFCURVE",
"526 1448 CURVE SMOOTH",
"428 1448 OFFCURVE",
"348 1368 OFFCURVE",
"348 1270 CURVE SMOOTH"
);
},
{
closed = 1;
nodes = (
"404 1338 OFFCURVE",
"458 1392 OFFCURVE",
"526 1392 CURVE SMOOTH",
"594 1392 OFFCURVE",
"648 1338 OFFCURVE",
"648 1270 CURVE SMOOTH",
"648 1202 OFFCURVE",
"594 1148 OFFCURVE",
"526 1148 CURVE SMOOTH",
"458 1148 OFFCURVE",
"404 1202 OFFCURVE",
"404 1270 CURVE SMOOTH"
);
},
{
closed = 1;
nodes = (
"1028 0 LINE",
"880 130 LINE",
"878 130 LINE",
"878 850 LINE",
"974 980 LINE",
"98 980 LINE",
"98 660 LINE",
"112 660 LINE",
"186 808 OFFCURVE",
"284 910 OFFCURVE",
"452 910 CURVE SMOOTH",
"634 910 OFFCURVE",
"638 800 OFFCURVE",
"638 620 CURVE",
"292 518 OFFCURVE",
"50 414 OFFCURVE",
"50 210 CURVE SMOOTH",
"50 48 OFFCURVE",
"152 -20 OFFCURVE",
"290 -20 CURVE SMOOTH",
"422 -20 OFFCURVE",
"562 94 OFFCURVE",
"638 168 CURVE",
"638 0 LINE"
);
},
{
closed = 1;
nodes = (
"588 170 OFFCURVE",
"526 138 OFFCURVE",
"464 138 CURVE SMOOTH",
"380 138 OFFCURVE",
"314 180 OFFCURVE",
"314 276 CURVE SMOOTH",
"314 372 OFFCURVE",
"394 490 OFFCURVE",
"638 566 CURVE",
"638 222 LINE"
);
}
);
width = 1068;
},
{
layerId = "F16CA8CE-DA8C-4EBD-81D6-AE00C3431B7F";
paths = (
{
closed = 1;
nodes = (
"348 1172 OFFCURVE",
"428 1092 OFFCURVE",
"526 1092 CURVE SMOOTH",
"624 1092 OFFCURVE",
"704 1172 OFFCURVE",
"704 1270 CURVE SMOOTH",
"704 1368 OFFCURVE",
"624 1448 OFFCURVE",
"526 1448 CURVE SMOOTH",
"428 1448 OFFCURVE",
"348 1368 OFFCURVE",
"348 1270 CURVE SMOOTH"
);
},
{
closed = 1;
nodes = (
"404 1338 OFFCURVE",
"458 1392 OFFCURVE",
"526 1392 CURVE SMOOTH",
"594 1392 OFFCURVE",
"648 1338 OFFCURVE",
"648 1270 CURVE SMOOTH",
"648 1202 OFFCURVE",
"594 1148 OFFCURVE",
"526 1148 CURVE SMOOTH",
"458 1148 OFFCURVE",
"404 1202 OFFCURVE",
"404 1270 CURVE SMOOTH"
);
},
{
closed = 1;
nodes = (
"1028 0 LINE",
"880 130 LINE",
"878 130 LINE",
"878 850 LINE",
"974 980 LINE",
"98 980 LINE",
"98 660 LINE",
"112 660 LINE",
"186 808 OFFCURVE",
"284 910 OFFCURVE",
"452 910 CURVE SMOOTH",
"634 910 OFFCURVE",
"638 800 OFFCURVE",
"638 620 CURVE",
"292 518 OFFCURVE",
"50 414 OFFCURVE",
"50 210 CURVE SMOOTH",
"50 48 OFFCURVE",
"152 -20 OFFCURVE",
"290 -20 CURVE SMOOTH",
"422 -20 OFFCURVE",
"562 94 OFFCURVE",
"638 168 CURVE",
"638 0 LINE"
);
},
{
closed = 1;
nodes = (
"588 170 OFFCURVE",
"526 138 OFFCURVE",
"464 138 CURVE SMOOTH",
"380 138 OFFCURVE",
"314 180 OFFCURVE",
"314 276 CURVE SMOOTH",
"314 372 OFFCURVE",
"394 490 OFFCURVE",
"638 566 CURVE",
"638 222 LINE"
);
}
);
width = 1068;
},
{
layerId = "02ADBE8D-B3BB-4EC7-92FE-8DBAAB138109";
paths = (
{
closed = 1;
nodes = (
"348 1172 OFFCURVE",
"428 1092 OFFCURVE",
"526 1092 CURVE SMOOTH",
"624 1092 OFFCURVE",
"704 1172 OFFCURVE",
"704 1270 CURVE SMOOTH",
"704 1368 OFFCURVE",
"624 1448 OFFCURVE",
"526 1448 CURVE SMOOTH",
"428 1448 OFFCURVE",
"348 1368 OFFCURVE",
"348 1270 CURVE SMOOTH"
);
},
{
closed = 1;
nodes = (
"404 1338 OFFCURVE",
"458 1392 OFFCURVE",
"526 1392 CURVE SMOOTH",
"594 1392 OFFCURVE",
"648 1338 OFFCURVE",
"648 1270 CURVE SMOOTH",
"648 1202 OFFCURVE",
"594 1148 OFFCURVE",
"526 1148 CURVE SMOOTH",
"458 1148 OFFCURVE",
"404 1202 OFFCURVE",
"404 1270 CURVE SMOOTH"
);
},
{
closed = 1;
nodes = (
"1028 0 LINE",
"880 130 LINE",
"878 130 LINE",
"878 850 LINE",
"974 980 LINE",
"98 980 LINE",
"98 660 LINE",
"112 660 LINE",
"186 808 OFFCURVE",
"284 910 OFFCURVE",
"452 910 CURVE SMOOTH",
"634 910 OFFCURVE",
"638 800 OFFCURVE",
"638 620 CURVE",
"292 518 OFFCURVE",
"50 414 OFFCURVE",
"50 210 CURVE SMOOTH",
"50 48 OFFCURVE",
"152 -20 OFFCURVE",
"290 -20 CURVE SMOOTH",
"422 -20 OFFCURVE",
"562 94 OFFCURVE",
"638 168 CURVE",
"638 0 LINE"
);
},
{
closed = 1;
nodes = (
"588 170 OFFCURVE",
"526 138 OFFCURVE",
"464 138 CURVE SMOOTH",
"380 138 OFFCURVE",
"314 180 OFFCURVE",
"314 276 CURVE SMOOTH",
"314 372 OFFCURVE",
"394 490 OFFCURVE",
"638 566 CURVE",
"638 222 LINE"
);
}
);
width = 1068;
}
);
unicode = 00E5;
},
{
glyphname = atilde;
layers = (
{
layerId = master01;
paths = (
{
closed = 1;
nodes = (
"294 1124 LINE",
"320 1168 OFFCURVE",
"348 1210 OFFCURVE",
"374 1210 CURVE SMOOTH",
"472 1210 OFFCURVE",
"572 1192 OFFCURVE",
"670 1184 CURVE",
"788 1390 LINE",
"758 1402 LINE",
"728 1364 OFFCURVE",
"700 1334 OFFCURVE",
"670 1334 CURVE SMOOTH",
"578 1334 OFFCURVE",
"484 1352 OFFCURVE",
"392 1360 CURVE",
"266 1142 LINE"
);
},
{
closed = 1;
nodes = (
"1028 0 LINE",
"880 130 LINE",
"878 130 LINE",
"878 850 LINE",
"974 980 LINE",
"98 980 LINE",
"98 660 LINE",
"112 660 LINE",
"186 808 OFFCURVE",
"284 910 OFFCURVE",
"452 910 CURVE SMOOTH",
"634 910 OFFCURVE",
"638 800 OFFCURVE",
"638 620 CURVE",
"292 518 OFFCURVE",
"50 414 OFFCURVE",
"50 210 CURVE SMOOTH",
"50 48 OFFCURVE",
"152 -20 OFFCURVE",
"290 -20 CURVE SMOOTH",
"422 -20 OFFCURVE",
"562 94 OFFCURVE",
"638 168 CURVE",
"638 0 LINE"
);
},
{
closed = 1;
nodes = (
"588 170 OFFCURVE",
"526 138 OFFCURVE",
"464 138 CURVE SMOOTH",
"380 138 OFFCURVE",
"314 180 OFFCURVE",
"314 276 CURVE SMOOTH",
"314 372 OFFCURVE",
"394 490 OFFCURVE",
"638 566 CURVE",
"638 222 LINE"
);
}
);
width = 1068;
},
{
layerId = "F16CA8CE-DA8C-4EBD-81D6-AE00C3431B7F";
paths = (
{
closed = 1;
nodes = (
"294 1124 LINE",
"320 1168 OFFCURVE",
"348 1210 OFFCURVE",
"374 1210 CURVE SMOOTH",
"472 1210 OFFCURVE",
"572 1192 OFFCURVE",
"670 1184 CURVE",
"788 1390 LINE",
"758 1402 LINE",
"728 1364 OFFCURVE",
"700 1334 OFFCURVE",
"670 1334 CURVE SMOOTH",
"578 1334 OFFCURVE",
"484 1352 OFFCURVE",
"392 1360 CURVE",
"266 1142 LINE"
);
},
{
closed = 1;
nodes = (
"1028 0 LINE",
"880 130 LINE",
"878 130 LINE",
"878 850 LINE",
"974 980 LINE",
"98 980 LINE",
"98 660 LINE",
"112 660 LINE",
"186 808 OFFCURVE",
"284 910 OFFCURVE",
"452 910 CURVE SMOOTH",
"634 910 OFFCURVE",
"638 800 OFFCURVE",
"638 620 CURVE",
"292 518 OFFCURVE",
"50 414 OFFCURVE",
"50 210 CURVE SMOOTH",
"50 48 OFFCURVE",
"152 -20 OFFCURVE",
"290 -20 CURVE SMOOTH",
"422 -20 OFFCURVE",
"562 94 OFFCURVE",
"638 168 CURVE",
"638 0 LINE"
);
},
{
closed = 1;
nodes = (
"588 170 OFFCURVE",
"526 138 OFFCURVE",
"464 138 CURVE SMOOTH",
"380 138 OFFCURVE",
"314 180 OFFCURVE",
"314 276 CURVE SMOOTH",
"314 372 OFFCURVE",
"394 490 OFFCURVE",
"638 566 CURVE",
"638 222 LINE"
);
}
);
width = 1068;
},
{
layerId = "02ADBE8D-B3BB-4EC7-92FE-8DBAAB138109";
paths = (
{
closed = 1;
nodes = (
"294 1124 LINE",
"320 1168 OFFCURVE",
"348 1210 OFFCURVE",
"374 1210 CURVE SMOOTH",
"472 1210 OFFCURVE",
"572 1192 OFFCURVE",
"670 1184 CURVE",
"788 1390 LINE",
"758 1402 LINE",
"728 1364 OFFCURVE",
"700 1334 OFFCURVE",
"670 1334 CURVE SMOOTH",
"578 1334 OFFCURVE",
"484 1352 OFFCURVE",
"392 1360 CURVE",
"266 1142 LINE"
);
},
{
closed = 1;
nodes = (
"1028 0 LINE",
"880 130 LINE",
"878 130 LINE",
"878 850 LINE",
"974 980 LINE",
"98 980 LINE",
"98 660 LINE",
"112 660 LINE",
"186 808 OFFCURVE",
"284 910 OFFCURVE",
"452 910 CURVE SMOOTH",
"634 910 OFFCURVE",
"638 800 OFFCURVE",
"638 620 CURVE",
"292 518 OFFCURVE",
"50 414 OFFCURVE",
"50 210 CURVE SMOOTH",
"50 48 OFFCURVE",
"152 -20 OFFCURVE",
"290 -20 CURVE SMOOTH",
"422 -20 OFFCURVE",
"562 94 OFFCURVE",
"638 168 CURVE",
"638 0 LINE"
);
},
{
closed = 1;
nodes = (
"588 170 OFFCURVE",
"526 138 OFFCURVE",
"464 138 CURVE SMOOTH",
"380 138 OFFCURVE",
"314 180 OFFCURVE",
"314 276 CURVE SMOOTH",
"314 372 OFFCURVE",
"394 490 OFFCURVE",
"638 566 CURVE",
"638 222 LINE"
);
}
);
width = 1068;
}
);
unicode = 00E3;
},
{
glyphname = ae;
layers = (
{
layerId = master01;
paths = (
{
closed = 1;
nodes = (
"1490 842 OFFCURVE",
"1344 1004 OFFCURVE",
"1104 1004 CURVE SMOOTH",
"1048 1004 OFFCURVE",
"998 996 OFFCURVE",
"952 980 CURVE",
"98 980 LINE",
"98 688 LINE",
"110 688 LINE",
"178 822 OFFCURVE",
"300 916 OFFCURVE",
"452 916 CURVE SMOOTH",
"632 916 OFFCURVE",
"658 800 OFFCURVE",
"638 620 CURVE",
"292 518 OFFCURVE",
"50 414 OFFCURVE",
"50 210 CURVE SMOOTH",
"50 48 OFFCURVE",
"152 -20 OFFCURVE",
"290 -20 CURVE SMOOTH",
"412 -20 OFFCURVE",
"554 56 OFFCURVE",
"678 194 CURVE",
"746 68 OFFCURVE",
"864 -24 OFFCURVE",
"1028 -24 CURVE SMOOTH",
"1266 -24 OFFCURVE",
"1408 160 OFFCURVE",
"1480 342 CURVE",
"1450 354 LINE",
"1420 270 OFFCURVE",
"1300 202 OFFCURVE",
"1164 202 CURVE SMOOTH",
"1008 202 OFFCURVE",
"870 310 OFFCURVE",
"848 568 CURVE",
"1490 568 LINE"
);
},
{
closed = 1;
nodes = (
"844 642 LINE SMOOTH",
"844 762 OFFCURVE",
"906 944 OFFCURVE",
"1058 944 CURVE SMOOTH",
"1146 944 OFFCURVE",
"1232 860 OFFCURVE",
"1232 646 CURVE SMOOTH",
"1232 638 OFFCURVE",
"1232 628 OFFCURVE",
"1230 620 CURVE",
"844 620 LINE"
);
},
{
closed = 1;
nodes = (
"380 138 OFFCURVE",
"314 180 OFFCURVE",
"314 276 CURVE SMOOTH",
"314 370 OFFCURVE",
"392 486 OFFCURVE",
"628 562 CURVE",
"622 526 OFFCURVE",
"618 488 OFFCURVE",
"618 450 CURVE SMOOTH",
"618 378 OFFCURVE",
"632 306 OFFCURVE",
"656 242 CURVE",
"600 166 OFFCURVE",
"522 138 OFFCURVE",
"464 138 CURVE SMOOTH"
);
}
);
width = 1550;
},
{
layerId = "F16CA8CE-DA8C-4EBD-81D6-AE00C3431B7F";
paths = (
{
closed = 1;
nodes = (
"1490 842 OFFCURVE",
"1344 1004 OFFCURVE",
"1104 1004 CURVE SMOOTH",
"1048 1004 OFFCURVE",
"998 996 OFFCURVE",
"952 980 CURVE",
"98 980 LINE",
"98 688 LINE",
"110 688 LINE",
"178 822 OFFCURVE",
"300 916 OFFCURVE",
"452 916 CURVE SMOOTH",
"632 916 OFFCURVE",
"658 800 OFFCURVE",
"638 620 CURVE",
"292 518 OFFCURVE",
"50 414 OFFCURVE",
"50 210 CURVE SMOOTH",
"50 48 OFFCURVE",
"152 -20 OFFCURVE",
"290 -20 CURVE SMOOTH",
"412 -20 OFFCURVE",
"554 56 OFFCURVE",
"678 194 CURVE",
"746 68 OFFCURVE",
"864 -24 OFFCURVE",
"1028 -24 CURVE SMOOTH",
"1266 -24 OFFCURVE",
"1408 160 OFFCURVE",
"1480 342 CURVE",
"1450 354 LINE",
"1420 270 OFFCURVE",
"1300 202 OFFCURVE",
"1164 202 CURVE SMOOTH",
"1008 202 OFFCURVE",
"870 310 OFFCURVE",
"848 568 CURVE",
"1490 568 LINE"
);
},
{
closed = 1;
nodes = (
"844 642 LINE SMOOTH",
"844 762 OFFCURVE",
"906 944 OFFCURVE",
"1058 944 CURVE SMOOTH",
"1146 944 OFFCURVE",
"1232 860 OFFCURVE",
"1232 646 CURVE SMOOTH",
"1232 638 OFFCURVE",
"1232 628 OFFCURVE",
"1230 620 CURVE",
"844 620 LINE"
);
},
{
closed = 1;
nodes = (
"380 138 OFFCURVE",
"314 180 OFFCURVE",
"314 276 CURVE SMOOTH",
"314 370 OFFCURVE",
"392 486 OFFCURVE",
"628 562 CURVE",
"622 526 OFFCURVE",
"618 488 OFFCURVE",
"618 450 CURVE SMOOTH",
"618 378 OFFCURVE",
"632 306 OFFCURVE",
"656 242 CURVE",
"600 166 OFFCURVE",
"522 138 OFFCURVE",
"464 138 CURVE SMOOTH"
);
}
);
width = 1550;
},
{
layerId = "02ADBE8D-B3BB-4EC7-92FE-8DBAAB138109";
paths = (
{
closed = 1;
nodes = (
"1490 842 OFFCURVE",
"1344 1004 OFFCURVE",
"1104 1004 CURVE SMOOTH",
"1048 1004 OFFCURVE",
"998 996 OFFCURVE",
"952 980 CURVE",
"98 980 LINE",
"98 688 LINE",
"110 688 LINE",
"178 822 OFFCURVE",
"300 916 OFFCURVE",
"452 916 CURVE SMOOTH",
"632 916 OFFCURVE",
"658 800 OFFCURVE",
"638 620 CURVE",
"292 518 OFFCURVE",
"50 414 OFFCURVE",
"50 210 CURVE SMOOTH",
"50 48 OFFCURVE",
"152 -20 OFFCURVE",
"290 -20 CURVE SMOOTH",
"412 -20 OFFCURVE",
"554 56 OFFCURVE",
"678 194 CURVE",
"746 68 OFFCURVE",
"864 -24 OFFCURVE",
"1028 -24 CURVE SMOOTH",
"1266 -24 OFFCURVE",
"1408 160 OFFCURVE",
"1480 342 CURVE",
"1450 354 LINE",
"1420 270 OFFCURVE",
"1300 202 OFFCURVE",
"1164 202 CURVE SMOOTH",
"1008 202 OFFCURVE",
"870 310 OFFCURVE",
"848 568 CURVE",
"1490 568 LINE"
);
},
{
closed = 1;
nodes = (
"844 642 LINE SMOOTH",
"844 762 OFFCURVE",
"906 944 OFFCURVE",
"1058 944 CURVE SMOOTH",
"1146 944 OFFCURVE",
"1232 860 OFFCURVE",
"1232 646 CURVE SMOOTH",
"1232 638 OFFCURVE",
"1232 628 OFFCURVE",
"1230 620 CURVE",
"844 620 LINE"
);
},
{
closed = 1;
nodes = (
"380 138 OFFCURVE",
"314 180 OFFCURVE",
"314 276 CURVE SMOOTH",
"314 370 OFFCURVE",
"392 486 OFFCURVE",
"628 562 CURVE",
"622 526 OFFCURVE",
"618 488 OFFCURVE",
"618 450 CURVE SMOOTH",
"618 378 OFFCURVE",
"632 306 OFFCURVE",
"656 242 CURVE",
"600 166 OFFCURVE",
"522 138 OFFCURVE",
"464 138 CURVE SMOOTH"
);
}
);
width = 1550;
}
);
unicode = 00E6;
},
{
color = 7;
glyphname = b;
layers = (
{
layerId = master01;
paths = (
{
closed = 1;
nodes = (
"368 1416 OFFCURVE",
"246 1360 OFFCURVE",
"84 1324 OFFCURVE",
"44 1306 OFFCURVE",
"64 1274 OFFCURVE",
"136 1212 OFFCURVE",
"164 1164 OFFCURVE",
"176 1132 OFFCURVE",
"184 872 OFFCURVE",
"164 24 OFFCURVE",
"168 -20 OFFCURVE",
"224 -16 OFFCURVE",
"304 26 OFFCURVE",
"326 26 OFFCURVE",
"496 -16 OFFCURVE",
"602 -18 QCURVE SMOOTH",
"834 -22 OFFCURVE",
"1114 298 OFFCURVE",
"1122 706 OFFCURVE",
"916 1000 OFFCURVE",
"724 1000 QCURVE SMOOTH",
"588 1000 OFFCURVE",
"452 884 OFFCURVE",
"428 860 OFFCURVE",
"412 892 OFFCURVE",
"410 1102 OFFCURVE",
"416 1374 OFFCURVE",
"416 1416 OFFCURVE"
);
},
{
closed = 1;
nodes = (
"422 794 OFFCURVE",
"454 818 OFFCURVE",
"550 852 OFFCURVE",
"698 848 OFFCURVE",
"888 616 OFFCURVE",
"888 332 QCURVE SMOOTH",
"888 158 OFFCURVE",
"726 70 OFFCURVE",
"606 72 OFFCURVE",
"456 160 OFFCURVE",
"422 198 OFFCURVE",
"416 242 OFFCURVE",
"416 464 QCURVE SMOOTH",
"416 534 OFFCURVE",
"416 752 OFFCURVE"
);
}
);
userData = {
com.schriftgestaltung.Glyphs.lastChange = "2020-04-17 19:36:31 +0000";
};
width = 1196;
},
{
layerId = "F16CA8CE-DA8C-4EBD-81D6-AE00C3431B7F";
paths = (
{
closed = 1;
nodes = (
"368 1416 OFFCURVE",
"246 1360 OFFCURVE",
"84 1324 OFFCURVE",
"44 1306 OFFCURVE",
"64 1274 OFFCURVE",
"136 1212 OFFCURVE",
"164 1164 OFFCURVE",
"176 1132 OFFCURVE",
"184 872 OFFCURVE",
"164 24 OFFCURVE",
"168 -20 OFFCURVE",
"224 -16 OFFCURVE",
"304 26 OFFCURVE",
"326 26 OFFCURVE",
"496 -16 OFFCURVE",
"602 -18 QCURVE SMOOTH",
"834 -22 OFFCURVE",
"1114 298 OFFCURVE",
"1122 706 OFFCURVE",
"916 1000 OFFCURVE",
"724 1000 QCURVE SMOOTH",
"588 1000 OFFCURVE",
"452 884 OFFCURVE",
"428 860 OFFCURVE",
"412 892 OFFCURVE",
"410 1102 OFFCURVE",
"416 1374 OFFCURVE",
"416 1416 OFFCURVE"
);
},
{
closed = 1;
nodes = (
"422 794 OFFCURVE",
"454 818 OFFCURVE",
"550 852 OFFCURVE",
"698 848 OFFCURVE",
"888 616 OFFCURVE",
"888 332 QCURVE SMOOTH",
"888 158 OFFCURVE",
"726 70 OFFCURVE",
"606 72 OFFCURVE",
"456 160 OFFCURVE",
"422 198 OFFCURVE",
"416 242 OFFCURVE",
"416 464 QCURVE SMOOTH",
"416 534 OFFCURVE",
"416 752 OFFCURVE"
);
}
);
userData = {
com.schriftgestaltung.Glyphs.lastChange = "2020-04-17 19:36:31 +0000";
};
width = 1196;
},
{
layerId = "02ADBE8D-B3BB-4EC7-92FE-8DBAAB138109";
paths = (
{
closed = 1;
nodes = (
"368 1416 OFFCURVE",
"246 1360 OFFCURVE",
"84 1324 OFFCURVE",
"44 1306 OFFCURVE",
"64 1274 OFFCURVE",
"136 1212 OFFCURVE",
"164 1164 OFFCURVE",
"176 1132 OFFCURVE",
"184 872 OFFCURVE",
"164 24 OFFCURVE",
"168 -20 OFFCURVE",
"224 -16 OFFCURVE",
"304 26 OFFCURVE",
"326 26 OFFCURVE",
"496 -16 OFFCURVE",
"602 -18 QCURVE SMOOTH",
"834 -22 OFFCURVE",
"1114 298 OFFCURVE",
"1122 706 OFFCURVE",
"916 1000 OFFCURVE",
"724 1000 QCURVE SMOOTH",
"588 1000 OFFCURVE",
"452 884 OFFCURVE",
"428 860 OFFCURVE",
"412 892 OFFCURVE",
"410 1102 OFFCURVE",
"416 1374 OFFCURVE",
"416 1416 OFFCURVE"
);
},
{
closed = 1;
nodes = (
"422 794 OFFCURVE",
"454 818 OFFCURVE",
"550 852 OFFCURVE",
"698 848 OFFCURVE",
"888 616 OFFCURVE",
"888 332 QCURVE SMOOTH",
"888 158 OFFCURVE",
"726 70 OFFCURVE",
"606 72 OFFCURVE",
"456 160 OFFCURVE",
"422 198 OFFCURVE",
"416 242 OFFCURVE",
"416 464 QCURVE SMOOTH",
"416 534 OFFCURVE",
"416 752 OFFCURVE"
);
}
);
userData = {
com.schriftgestaltung.Glyphs.lastChange = "2020-04-17 19:36:31 +0000";
};
width = 1196;
}
);
unicode = 0062;
},
{
color = 7;
glyphname = c;
layers = (
{
layerId = master01;
paths = (
{
closed = 1;
nodes = (
"526 -20 OFFCURVE",
"740 129 OFFCURVE",
"823 353 OFFCURVE",
"783 373 OFFCURVE",
"702 261 OFFCURVE",
"576 216 OFFCURVE",
"404 216 OFFCURVE",
"242 386 OFFCURVE",
"242 738 OFFCURVE",
"364 908 OFFCURVE",
"530 908 OFFCURVE",
"652 816 OFFCURVE",
"730 654 OFFCURVE",
"790 652 OFFCURVE",
"791 712 OFFCURVE",
"783 822 OFFCURVE",
"792 944 OFFCURVE",
"784 990 OFFCURVE",
"745 990 OFFCURVE",
"684 984 OFFCURVE",
"610 980 OFFCURVE",
"538 980 QCURVE SMOOTH",
"274 980 OFFCURVE",
"10 646 OFFCURVE",
"10 242 OFFCURVE",
"210 -20 OFFCURVE",
"402 -20 QCURVE SMOOTH"
);
}
);
userData = {
com.schriftgestaltung.Glyphs.lastChange = "2020-04-17 19:36:31 +0000";
};
width = 860;
},
{
layerId = "F16CA8CE-DA8C-4EBD-81D6-AE00C3431B7F";
paths = (
{
closed = 1;
nodes = (
"574 -30 OFFCURVE",
"788 149 OFFCURVE",
"864 350 OFFCURVE",
"818 370 OFFCURVE",
"732 274 OFFCURVE",
"630 238 OFFCURVE",
"494 238 OFFCURVE",
"332 416 OFFCURVE",
"328 728 OFFCURVE",
"414 906 OFFCURVE",
"600 910 OFFCURVE",
"672 806 OFFCURVE",
"760 583 OFFCURVE",
"826 583 OFFCURVE",
"852 636 OFFCURVE",
"824 795 OFFCURVE",
"833 956 OFFCURVE",
"814 1000 OFFCURVE",
"758 1000 OFFCURVE",
"679 992 OFFCURVE",
"563 980 OFFCURVE",
"521 980 QCURVE SMOOTH",
"301 980 OFFCURVE",
"10 690 OFFCURVE",
"10 280 OFFCURVE",
"231 -30 OFFCURVE",
"442 -30 QCURVE SMOOTH"
);
}
);
userData = {
com.schriftgestaltung.Glyphs.lastChange = "2020-04-17 19:36:31 +0000";
};
width = 890;
},
{
layerId = "02ADBE8D-B3BB-4EC7-92FE-8DBAAB138109";
paths = (
{
closed = 1;
nodes = (
"576 -20 OFFCURVE",
"768 133 OFFCURVE",
"833 299 OFFCURVE",
"789 311 OFFCURVE",
"722 204 OFFCURVE",
"603 126 OFFCURVE",
"411 130 OFFCURVE",
"242 346 OFFCURVE",
"238 708 OFFCURVE",
"354 898 OFFCURVE",
"540 902 OFFCURVE",
"686 790 OFFCURVE",
"739 654 OFFCURVE",
"767 652 OFFCURVE",
"777 675 OFFCURVE",
"764 810 OFFCURVE",
"766 898 OFFCURVE",
"766 980 OFFCURVE",
"690 980 OFFCURVE",
"637 976 OFFCURVE",
"580 976 OFFCURVE",
"548 976 QCURVE SMOOTH",
"324 976 OFFCURVE",
"60 686 OFFCURVE",
"60 262 OFFCURVE",
"270 -20 OFFCURVE",
"452 -20 QCURVE SMOOTH"
);
}
);
userData = {
com.schriftgestaltung.Glyphs.lastChange = "2020-04-17 19:36:31 +0000";
};
width = 900;
}
);
unicode = 0063;
},
{
glyphname = cacute;
layers = (
{
layerId = master01;
paths = (
{
closed = 1;
nodes = (
"770 1362 LINE",
"518 1362 LINE",
"482 1104 LINE",
"512 1104 LINE"
);
},
{
closed = 1;
nodes = (
"828 980 LINE",
"588 980 LINE SMOOTH",
"206 980 OFFCURVE",
"60 688 OFFCURVE",
"60 450 CURVE SMOOTH",
"60 210 OFFCURVE",
"188 -24 OFFCURVE",
"450 -24 CURVE SMOOTH",
"698 -24 OFFCURVE",
"834 224 OFFCURVE",
"876 386 CURVE",
"854 394 LINE",
"830 324 OFFCURVE",
"726 214 OFFCURVE",
"588 214 CURVE SMOOTH",
"430 214 OFFCURVE",
"290 320 OFFCURVE",
"290 632 CURVE SMOOTH",
"290 772 OFFCURVE",
"342 910 OFFCURVE",
"510 910 CURVE SMOOTH",
"658 910 OFFCURVE",
"760 796 OFFCURVE",
"818 708 CURVE",
"828 708 LINE"
);
}
);
width = 936;
},
{
layerId = "F16CA8CE-DA8C-4EBD-81D6-AE00C3431B7F";
paths = (
{
closed = 1;
nodes = (
"770 1362 LINE",
"518 1362 LINE",
"482 1104 LINE",
"512 1104 LINE"
);
},
{
closed = 1;
nodes = (
"828 980 LINE",
"588 980 LINE SMOOTH",
"206 980 OFFCURVE",
"60 688 OFFCURVE",
"60 450 CURVE SMOOTH",
"60 210 OFFCURVE",
"188 -24 OFFCURVE",
"450 -24 CURVE SMOOTH",
"698 -24 OFFCURVE",
"834 224 OFFCURVE",
"876 386 CURVE",
"854 394 LINE",
"830 324 OFFCURVE",
"726 214 OFFCURVE",
"588 214 CURVE SMOOTH",
"430 214 OFFCURVE",
"290 320 OFFCURVE",
"290 632 CURVE SMOOTH",
"290 772 OFFCURVE",
"342 910 OFFCURVE",
"510 910 CURVE SMOOTH",
"658 910 OFFCURVE",
"760 796 OFFCURVE",
"818 708 CURVE",
"828 708 LINE"
);
}
);
width = 936;
},
{
layerId = "02ADBE8D-B3BB-4EC7-92FE-8DBAAB138109";
paths = (
{
closed = 1;
nodes = (
"770 1362 LINE",
"518 1362 LINE",
"482 1104 LINE",
"512 1104 LINE"
);
},
{
closed = 1;
nodes = (
"828 980 LINE",
"588 980 LINE SMOOTH",
"206 980 OFFCURVE",
"60 688 OFFCURVE",
"60 450 CURVE SMOOTH",
"60 210 OFFCURVE",
"188 -24 OFFCURVE",
"450 -24 CURVE SMOOTH",
"698 -24 OFFCURVE",
"834 224 OFFCURVE",
"876 386 CURVE",
"854 394 LINE",
"830 324 OFFCURVE",
"726 214 OFFCURVE",
"588 214 CURVE SMOOTH",
"430 214 OFFCURVE",
"290 320 OFFCURVE",
"290 632 CURVE SMOOTH",
"290 772 OFFCURVE",
"342 910 OFFCURVE",
"510 910 CURVE SMOOTH",
"658 910 OFFCURVE",
"760 796 OFFCURVE",
"818 708 CURVE",
"828 708 LINE"
);
}
);
width = 936;
}
);
unicode = 0107;
},
{
glyphname = ccaron;
layers = (
{
layerId = master01;
paths = (
{
closed = 1;
nodes = (
"348 1362 LINE",
"320 1362 LINE",
"434 1104 LINE",
"600 1104 LINE",
"716 1362 LINE",
"684 1362 LINE",
"518 1216 LINE"
);
},
{
closed = 1;
nodes = (
"828 980 LINE",
"588 980 LINE SMOOTH",
"206 980 OFFCURVE",
"60 688 OFFCURVE",
"60 450 CURVE SMOOTH",
"60 210 OFFCURVE",
"188 -24 OFFCURVE",
"450 -24 CURVE SMOOTH",
"698 -24 OFFCURVE",
"834 224 OFFCURVE",
"876 386 CURVE",
"854 394 LINE",
"830 324 OFFCURVE",
"726 214 OFFCURVE",
"588 214 CURVE SMOOTH",
"430 214 OFFCURVE",
"290 320 OFFCURVE",
"290 632 CURVE SMOOTH",
"290 772 OFFCURVE",
"342 910 OFFCURVE",
"510 910 CURVE SMOOTH",
"658 910 OFFCURVE",
"760 796 OFFCURVE",
"818 708 CURVE",
"828 708 LINE"
);
}
);
width = 936;
},
{
layerId = "F16CA8CE-DA8C-4EBD-81D6-AE00C3431B7F";
paths = (
{
closed = 1;
nodes = (
"348 1362 LINE",
"320 1362 LINE",
"434 1104 LINE",
"600 1104 LINE",
"716 1362 LINE",
"684 1362 LINE",
"518 1216 LINE"
);
},
{
closed = 1;
nodes = (
"828 980 LINE",
"588 980 LINE SMOOTH",
"206 980 OFFCURVE",
"60 688 OFFCURVE",
"60 450 CURVE SMOOTH",
"60 210 OFFCURVE",
"188 -24 OFFCURVE",
"450 -24 CURVE SMOOTH",
"698 -24 OFFCURVE",
"834 224 OFFCURVE",
"876 386 CURVE",
"854 394 LINE",
"830 324 OFFCURVE",
"726 214 OFFCURVE",
"588 214 CURVE SMOOTH",
"430 214 OFFCURVE",
"290 320 OFFCURVE",
"290 632 CURVE SMOOTH",
"290 772 OFFCURVE",
"342 910 OFFCURVE",
"510 910 CURVE SMOOTH",
"658 910 OFFCURVE",
"760 796 OFFCURVE",
"818 708 CURVE",
"828 708 LINE"
);
}
);
width = 936;
},
{
layerId = "02ADBE8D-B3BB-4EC7-92FE-8DBAAB138109";
paths = (
{
closed = 1;
nodes = (
"348 1362 LINE",
"320 1362 LINE",
"434 1104 LINE",
"600 1104 LINE",
"716 1362 LINE",
"684 1362 LINE",
"518 1216 LINE"
);
},
{
closed = 1;
nodes = (
"828 980 LINE",
"588 980 LINE SMOOTH",
"206 980 OFFCURVE",
"60 688 OFFCURVE",
"60 450 CURVE SMOOTH",
"60 210 OFFCURVE",
"188 -24 OFFCURVE",
"450 -24 CURVE SMOOTH",
"698 -24 OFFCURVE",
"834 224 OFFCURVE",
"876 386 CURVE",
"854 394 LINE",
"830 324 OFFCURVE",
"726 214 OFFCURVE",
"588 214 CURVE SMOOTH",
"430 214 OFFCURVE",
"290 320 OFFCURVE",
"290 632 CURVE SMOOTH",
"290 772 OFFCURVE",
"342 910 OFFCURVE",
"510 910 CURVE SMOOTH",
"658 910 OFFCURVE",
"760 796 OFFCURVE",
"818 708 CURVE",
"828 708 LINE"
);
}
);
width = 936;
}
);
unicode = 010D;
},
{
glyphname = ccedilla;
layers = (
{
layerId = master01;
paths = (
{
closed = 1;
nodes = (
"828 980 LINE",
"588 980 LINE SMOOTH",
"206 980 OFFCURVE",
"60 688 OFFCURVE",
"60 450 CURVE SMOOTH",
"60 222 OFFCURVE",
"176 -2 OFFCURVE",
"414 -22 CURVE",
"330 -144 LINE",
"330 -174 OFFCURVE",
"534 -178 OFFCURVE",
"534 -256 CURVE SMOOTH",
"534 -276 OFFCURVE",
"494 -290 OFFCURVE",
"440 -290 CURVE SMOOTH",
"386 -290 OFFCURVE",
"340 -272 OFFCURVE",
"300 -238 CURVE",
"286 -266 LINE",
"332 -306 OFFCURVE",
"378 -324 OFFCURVE",
"436 -324 CURVE SMOOTH",
"536 -324 OFFCURVE",
"624 -264 OFFCURVE",
"624 -192 CURVE SMOOTH",
"624 -126 OFFCURVE",
"510 -90 OFFCURVE",
"452 -68 CURVE",
"476 -24 LINE",
"708 -6 OFFCURVE",
"836 230 OFFCURVE",
"876 386 CURVE",
"854 394 LINE",
"830 324 OFFCURVE",
"726 214 OFFCURVE",
"588 214 CURVE SMOOTH",
"430 214 OFFCURVE",
"290 320 OFFCURVE",
"290 632 CURVE SMOOTH",
"290 772 OFFCURVE",
"342 910 OFFCURVE",
"510 910 CURVE SMOOTH",
"658 910 OFFCURVE",
"760 796 OFFCURVE",
"818 708 CURVE",
"828 708 LINE"
);
}
);
width = 936;
},
{
layerId = "F16CA8CE-DA8C-4EBD-81D6-AE00C3431B7F";
paths = (
{
closed = 1;
nodes = (
"828 980 LINE",
"588 980 LINE SMOOTH",
"206 980 OFFCURVE",
"60 688 OFFCURVE",
"60 450 CURVE SMOOTH",
"60 222 OFFCURVE",
"176 -2 OFFCURVE",
"414 -22 CURVE",
"330 -144 LINE",
"330 -174 OFFCURVE",
"534 -178 OFFCURVE",
"534 -256 CURVE SMOOTH",
"534 -276 OFFCURVE",
"494 -290 OFFCURVE",
"440 -290 CURVE SMOOTH",
"386 -290 OFFCURVE",
"340 -272 OFFCURVE",
"300 -238 CURVE",
"286 -266 LINE",
"332 -306 OFFCURVE",
"378 -324 OFFCURVE",
"436 -324 CURVE SMOOTH",
"536 -324 OFFCURVE",
"624 -264 OFFCURVE",
"624 -192 CURVE SMOOTH",
"624 -126 OFFCURVE",
"510 -90 OFFCURVE",
"452 -68 CURVE",
"476 -24 LINE",
"708 -6 OFFCURVE",
"836 230 OFFCURVE",
"876 386 CURVE",
"854 394 LINE",
"830 324 OFFCURVE",
"726 214 OFFCURVE",
"588 214 CURVE SMOOTH",
"430 214 OFFCURVE",
"290 320 OFFCURVE",
"290 632 CURVE SMOOTH",
"290 772 OFFCURVE",
"342 910 OFFCURVE",
"510 910 CURVE SMOOTH",
"658 910 OFFCURVE",
"760 796 OFFCURVE",
"818 708 CURVE",
"828 708 LINE"
);
}
);
width = 936;
},
{
layerId = "02ADBE8D-B3BB-4EC7-92FE-8DBAAB138109";
paths = (
{
closed = 1;
nodes = (
"828 980 LINE",
"588 980 LINE SMOOTH",
"206 980 OFFCURVE",
"60 688 OFFCURVE",
"60 450 CURVE SMOOTH",
"60 222 OFFCURVE",
"176 -2 OFFCURVE",
"414 -22 CURVE",
"330 -144 LINE",
"330 -174 OFFCURVE",
"534 -178 OFFCURVE",
"534 -256 CURVE SMOOTH",
"534 -276 OFFCURVE",
"494 -290 OFFCURVE",
"440 -290 CURVE SMOOTH",
"386 -290 OFFCURVE",
"340 -272 OFFCURVE",
"300 -238 CURVE",
"286 -266 LINE",
"332 -306 OFFCURVE",
"378 -324 OFFCURVE",
"436 -324 CURVE SMOOTH",
"536 -324 OFFCURVE",
"624 -264 OFFCURVE",
"624 -192 CURVE SMOOTH",
"624 -126 OFFCURVE",
"510 -90 OFFCURVE",
"452 -68 CURVE",
"476 -24 LINE",
"708 -6 OFFCURVE",
"836 230 OFFCURVE",
"876 386 CURVE",
"854 394 LINE",
"830 324 OFFCURVE",
"726 214 OFFCURVE",
"588 214 CURVE SMOOTH",
"430 214 OFFCURVE",
"290 320 OFFCURVE",
"290 632 CURVE SMOOTH",
"290 772 OFFCURVE",
"342 910 OFFCURVE",
"510 910 CURVE SMOOTH",
"658 910 OFFCURVE",
"760 796 OFFCURVE",
"818 708 CURVE",
"828 708 LINE"
);
}
);
width = 936;
}
);
unicode = 00E7;
},
{
glyphname = ccircumflex;
layers = (
{
layerId = master01;
paths = (
{
closed = 1;
nodes = (
"340 1104 LINE",
"510 1250 LINE",
"676 1104 LINE",
"708 1104 LINE",
"592 1362 LINE",
"426 1362 LINE",
"312 1104 LINE"
);
},
{
closed = 1;
nodes = (
"828 980 LINE",
"588 980 LINE SMOOTH",
"206 980 OFFCURVE",
"60 688 OFFCURVE",
"60 450 CURVE SMOOTH",
"60 210 OFFCURVE",
"188 -24 OFFCURVE",
"450 -24 CURVE SMOOTH",
"698 -24 OFFCURVE",
"834 224 OFFCURVE",
"876 386 CURVE",
"854 394 LINE",
"830 324 OFFCURVE",
"726 214 OFFCURVE",
"588 214 CURVE SMOOTH",
"430 214 OFFCURVE",
"290 320 OFFCURVE",
"290 632 CURVE SMOOTH",
"290 772 OFFCURVE",
"342 910 OFFCURVE",
"510 910 CURVE SMOOTH",
"658 910 OFFCURVE",
"760 796 OFFCURVE",
"818 708 CURVE",
"828 708 LINE"
);
}
);
width = 936;
},
{
layerId = "F16CA8CE-DA8C-4EBD-81D6-AE00C3431B7F";
paths = (
{
closed = 1;
nodes = (
"340 1104 LINE",
"510 1250 LINE",
"676 1104 LINE",
"708 1104 LINE",
"592 1362 LINE",
"426 1362 LINE",
"312 1104 LINE"
);
},
{
closed = 1;
nodes = (
"828 980 LINE",
"588 980 LINE SMOOTH",
"206 980 OFFCURVE",
"60 688 OFFCURVE",
"60 450 CURVE SMOOTH",
"60 210 OFFCURVE",
"188 -24 OFFCURVE",
"450 -24 CURVE SMOOTH",
"698 -24 OFFCURVE",
"834 224 OFFCURVE",
"876 386 CURVE",
"854 394 LINE",
"830 324 OFFCURVE",
"726 214 OFFCURVE",
"588 214 CURVE SMOOTH",
"430 214 OFFCURVE",
"290 320 OFFCURVE",
"290 632 CURVE SMOOTH",
"290 772 OFFCURVE",
"342 910 OFFCURVE",
"510 910 CURVE SMOOTH",
"658 910 OFFCURVE",
"760 796 OFFCURVE",
"818 708 CURVE",
"828 708 LINE"
);
}
);
width = 936;
},
{
layerId = "02ADBE8D-B3BB-4EC7-92FE-8DBAAB138109";
paths = (
{
closed = 1;
nodes = (
"340 1104 LINE",
"510 1250 LINE",
"676 1104 LINE",
"708 1104 LINE",
"592 1362 LINE",
"426 1362 LINE",
"312 1104 LINE"
);
},
{
closed = 1;
nodes = (
"828 980 LINE",
"588 980 LINE SMOOTH",
"206 980 OFFCURVE",
"60 688 OFFCURVE",
"60 450 CURVE SMOOTH",
"60 210 OFFCURVE",
"188 -24 OFFCURVE",
"450 -24 CURVE SMOOTH",
"698 -24 OFFCURVE",
"834 224 OFFCURVE",
"876 386 CURVE",
"854 394 LINE",
"830 324 OFFCURVE",
"726 214 OFFCURVE",
"588 214 CURVE SMOOTH",
"430 214 OFFCURVE",
"290 320 OFFCURVE",
"290 632 CURVE SMOOTH",
"290 772 OFFCURVE",
"342 910 OFFCURVE",
"510 910 CURVE SMOOTH",
"658 910 OFFCURVE",
"760 796 OFFCURVE",
"818 708 CURVE",
"828 708 LINE"
);
}
);
width = 936;
}
);
unicode = 0109;
},
{
glyphname = cdotaccent;
layers = (
{
layerId = master01;
paths = (
{
closed = 1;
nodes = (
"510 1092 LINE",
"650 1254 LINE",
"510 1414 LINE",
"368 1254 LINE"
);
},
{
closed = 1;
nodes = (
"828 980 LINE",
"588 980 LINE SMOOTH",
"206 980 OFFCURVE",
"60 688 OFFCURVE",
"60 450 CURVE SMOOTH",
"60 210 OFFCURVE",
"188 -24 OFFCURVE",
"450 -24 CURVE SMOOTH",
"698 -24 OFFCURVE",
"834 224 OFFCURVE",
"876 386 CURVE",
"854 394 LINE",
"830 324 OFFCURVE",
"726 214 OFFCURVE",
"588 214 CURVE SMOOTH",
"430 214 OFFCURVE",
"290 320 OFFCURVE",
"290 632 CURVE SMOOTH",
"290 772 OFFCURVE",
"342 910 OFFCURVE",
"510 910 CURVE SMOOTH",
"658 910 OFFCURVE",
"760 796 OFFCURVE",
"818 708 CURVE",
"828 708 LINE"
);
}
);
width = 936;
},
{
layerId = "F16CA8CE-DA8C-4EBD-81D6-AE00C3431B7F";
paths = (
{
closed = 1;
nodes = (
"510 1092 LINE",
"650 1254 LINE",
"510 1414 LINE",
"368 1254 LINE"
);
},
{
closed = 1;
nodes = (
"828 980 LINE",
"588 980 LINE SMOOTH",
"206 980 OFFCURVE",
"60 688 OFFCURVE",
"60 450 CURVE SMOOTH",
"60 210 OFFCURVE",
"188 -24 OFFCURVE",
"450 -24 CURVE SMOOTH",
"698 -24 OFFCURVE",
"834 224 OFFCURVE",
"876 386 CURVE",
"854 394 LINE",
"830 324 OFFCURVE",
"726 214 OFFCURVE",
"588 214 CURVE SMOOTH",
"430 214 OFFCURVE",
"290 320 OFFCURVE",
"290 632 CURVE SMOOTH",
"290 772 OFFCURVE",
"342 910 OFFCURVE",
"510 910 CURVE SMOOTH",
"658 910 OFFCURVE",
"760 796 OFFCURVE",
"818 708 CURVE",
"828 708 LINE"
);
}
);
width = 936;
},
{
layerId = "02ADBE8D-B3BB-4EC7-92FE-8DBAAB138109";
paths = (
{
closed = 1;
nodes = (
"510 1092 LINE",
"650 1254 LINE",
"510 1414 LINE",
"368 1254 LINE"
);
},
{
closed = 1;
nodes = (
"828 980 LINE",
"588 980 LINE SMOOTH",
"206 980 OFFCURVE",
"60 688 OFFCURVE",
"60 450 CURVE SMOOTH",
"60 210 OFFCURVE",
"188 -24 OFFCURVE",
"450 -24 CURVE SMOOTH",
"698 -24 OFFCURVE",
"834 224 OFFCURVE",
"876 386 CURVE",
"854 394 LINE",
"830 324 OFFCURVE",
"726 214 OFFCURVE",
"588 214 CURVE SMOOTH",
"430 214 OFFCURVE",
"290 320 OFFCURVE",
"290 632 CURVE SMOOTH",
"290 772 OFFCURVE",
"342 910 OFFCURVE",
"510 910 CURVE SMOOTH",
"658 910 OFFCURVE",
"760 796 OFFCURVE",
"818 708 CURVE",
"828 708 LINE"
);
}
);
width = 936;
}
);
unicode = 010B;
},
{
color = 7;
glyphname = d;
layers = (
{
layerId = master01;
paths = (
{
closed = 1;
nodes = (
"600 -20 OFFCURVE",
"740 148 OFFCURVE",
"764 168 OFFCURVE",
"776 142 OFFCURVE",
"778 84 OFFCURVE",
"764 12 OFFCURVE",
"768 -24 OFFCURVE",
"808 -26 OFFCURVE",
"964 -2 OFFCURVE",
"1102 -10 OFFCURVE",
"1150 -10 OFFCURVE",
"1146 26 OFFCURVE",
"1074 70 OFFCURVE",
"1016 128 OFFCURVE",
"1008 160 OFFCURVE",
"1004 660 OFFCURVE",
"1008 1370 OFFCURVE",
"990 1420 OFFCURVE",
"948 1414 OFFCURVE",
"820 1358 OFFCURVE",
"664 1326 OFFCURVE",
"626 1310 OFFCURVE",
"642 1278 OFFCURVE",
"708 1226 OFFCURVE",
"754 1168 OFFCURVE",
"768 1144 OFFCURVE",
"770 1068 OFFCURVE",
"766 990 OFFCURVE",
"758 970 OFFCURVE",
"730 968 OFFCURVE",
"672 980 OFFCURVE",
"598 980 QCURVE SMOOTH",
"324 980 OFFCURVE",
"70 636 OFFCURVE",
"68 286 OFFCURVE",
"254 -20 OFFCURVE",
"460 -20 QCURVE SMOOTH"
);
},
{
closed = 1;
nodes = (
"744 236 OFFCURVE",
"666 200 OFFCURVE",
"526 200 OFFCURVE",
"308 374 OFFCURVE",
"308 632 QCURVE SMOOTH",
"308 746 OFFCURVE",
"402 910 OFFCURVE",
"612 910 OFFCURVE",
"746 812 OFFCURVE",
"764 780 OFFCURVE",
"776 594 OFFCURVE",
"776 536 QCURVE SMOOTH",
"776 452 OFFCURVE",
"772 296 OFFCURVE",
"768 256 OFFCURVE"
);
}
);
userData = {
com.schriftgestaltung.Glyphs.lastChange = "2020-04-17 19:36:31 +0000";
};
width = 1194;
},
{
layerId = "F16CA8CE-DA8C-4EBD-81D6-AE00C3431B7F";
paths = (
{
closed = 1;
nodes = (
"600 -20 OFFCURVE",
"740 148 OFFCURVE",
"764 168 OFFCURVE",
"776 142 OFFCURVE",
"778 84 OFFCURVE",
"764 12 OFFCURVE",
"768 -24 OFFCURVE",
"808 -26 OFFCURVE",
"964 -2 OFFCURVE",
"1102 -10 OFFCURVE",
"1150 -10 OFFCURVE",
"1146 26 OFFCURVE",
"1074 70 OFFCURVE",
"1016 128 OFFCURVE",
"1008 160 OFFCURVE",
"1004 660 OFFCURVE",
"1008 1370 OFFCURVE",
"990 1420 OFFCURVE",
"948 1414 OFFCURVE",
"820 1358 OFFCURVE",
"664 1326 OFFCURVE",
"626 1310 OFFCURVE",
"642 1278 OFFCURVE",
"708 1226 OFFCURVE",
"754 1168 OFFCURVE",
"768 1144 OFFCURVE",
"770 1068 OFFCURVE",
"766 990 OFFCURVE",
"758 970 OFFCURVE",
"730 968 OFFCURVE",
"672 980 OFFCURVE",
"598 980 QCURVE SMOOTH",
"324 980 OFFCURVE",
"70 636 OFFCURVE",
"68 286 OFFCURVE",
"254 -20 OFFCURVE",
"460 -20 QCURVE SMOOTH"
);
},
{
closed = 1;
nodes = (
"744 236 OFFCURVE",
"666 200 OFFCURVE",
"526 200 OFFCURVE",
"308 374 OFFCURVE",
"308 632 QCURVE SMOOTH",
"308 746 OFFCURVE",
"402 910 OFFCURVE",
"612 910 OFFCURVE",
"746 812 OFFCURVE",
"764 780 OFFCURVE",
"776 594 OFFCURVE",
"776 536 QCURVE SMOOTH",
"776 452 OFFCURVE",
"772 296 OFFCURVE",
"768 256 OFFCURVE"
);
}
);
userData = {
com.schriftgestaltung.Glyphs.lastChange = "2020-04-17 19:36:31 +0000";
};
width = 1194;
},
{
layerId = "02ADBE8D-B3BB-4EC7-92FE-8DBAAB138109";
paths = (
{
closed = 1;
nodes = (
"600 -20 OFFCURVE",
"740 148 OFFCURVE",
"764 168 OFFCURVE",
"776 142 OFFCURVE",
"778 84 OFFCURVE",
"764 12 OFFCURVE",
"768 -24 OFFCURVE",
"808 -26 OFFCURVE",
"964 -2 OFFCURVE",
"1102 -10 OFFCURVE",
"1150 -10 OFFCURVE",
"1146 26 OFFCURVE",
"1074 70 OFFCURVE",
"1016 128 OFFCURVE",
"1008 160 OFFCURVE",
"1004 660 OFFCURVE",
"1008 1370 OFFCURVE",
"990 1420 OFFCURVE",
"948 1414 OFFCURVE",
"820 1358 OFFCURVE",
"664 1326 OFFCURVE",
"626 1310 OFFCURVE",
"642 1278 OFFCURVE",
"708 1226 OFFCURVE",
"754 1168 OFFCURVE",
"768 1144 OFFCURVE",
"770 1068 OFFCURVE",
"766 990 OFFCURVE",
"758 970 OFFCURVE",
"730 968 OFFCURVE",
"672 980 OFFCURVE",
"598 980 QCURVE SMOOTH",
"324 980 OFFCURVE",
"70 636 OFFCURVE",
"68 286 OFFCURVE",
"254 -20 OFFCURVE",
"460 -20 QCURVE SMOOTH"
);
},
{
closed = 1;
nodes = (
"744 236 OFFCURVE",
"666 200 OFFCURVE",
"526 200 OFFCURVE",
"308 374 OFFCURVE",
"308 632 QCURVE SMOOTH",
"308 746 OFFCURVE",
"402 910 OFFCURVE",
"612 910 OFFCURVE",
"746 812 OFFCURVE",
"764 780 OFFCURVE",
"776 594 OFFCURVE",
"776 536 QCURVE SMOOTH",
"776 452 OFFCURVE",
"772 296 OFFCURVE",
"768 256 OFFCURVE"
);
}
);
userData = {
com.schriftgestaltung.Glyphs.lastChange = "2020-04-17 19:36:31 +0000";
};
width = 1194;
}
);
unicode = 0064;
},
{
glyphname = eth;
layers = (
{
layerId = master01;
paths = (
{
closed = 1;
nodes = (
"848 1454 LINE",
"614 1320 LINE",
"574 1362 OFFCURVE",
"536 1400 OFFCURVE",
"502 1434 CURVE",
"270 1434 LINE",
"338 1360 OFFCURVE",
"396 1292 OFFCURVE",
"448 1226 CURVE",
"262 1118 LINE",
"262 1050 LINE",
"496 1164 LINE",
"534 1110 OFFCURVE",
"570 1058 OFFCURVE",
"600 1004 CURVE",
"596 1004 LINE SMOOTH",
"224 1004 OFFCURVE",
"60 704 OFFCURVE",
"60 446 CURVE SMOOTH",
"60 206 OFFCURVE",
"200 -24 OFFCURVE",
"484 -24 CURVE SMOOTH",
"856 -24 OFFCURVE",
"1020 276 OFFCURVE",
"1020 534 CURVE SMOOTH",
"1020 802 OFFCURVE",
"846 1058 OFFCURVE",
"676 1252 CURVE",
"852 1338 LINE"
);
},
{
closed = 1;
nodes = (
"664 928 OFFCURVE",
"770 664 OFFCURVE",
"770 352 CURVE SMOOTH",
"770 248 OFFCURVE",
"742 52 OFFCURVE",
"594 52 CURVE SMOOTH",
"418 52 OFFCURVE",
"314 316 OFFCURVE",
"314 628 CURVE SMOOTH",
"314 748 OFFCURVE",
"322 928 OFFCURVE",
"488 928 CURVE SMOOTH"
);
}
);
width = 1080;
},
{
layerId = "F16CA8CE-DA8C-4EBD-81D6-AE00C3431B7F";
paths = (
{
closed = 1;
nodes = (
"848 1454 LINE",
"614 1320 LINE",
"574 1362 OFFCURVE",
"536 1400 OFFCURVE",
"502 1434 CURVE",
"270 1434 LINE",
"338 1360 OFFCURVE",
"396 1292 OFFCURVE",
"448 1226 CURVE",
"262 1118 LINE",
"262 1050 LINE",
"496 1164 LINE",
"534 1110 OFFCURVE",
"570 1058 OFFCURVE",
"600 1004 CURVE",
"596 1004 LINE SMOOTH",
"224 1004 OFFCURVE",
"60 704 OFFCURVE",
"60 446 CURVE SMOOTH",
"60 206 OFFCURVE",
"200 -24 OFFCURVE",
"484 -24 CURVE SMOOTH",
"856 -24 OFFCURVE",
"1020 276 OFFCURVE",
"1020 534 CURVE SMOOTH",
"1020 802 OFFCURVE",
"846 1058 OFFCURVE",
"676 1252 CURVE",
"852 1338 LINE"
);
},
{
closed = 1;
nodes = (
"664 928 OFFCURVE",
"770 664 OFFCURVE",
"770 352 CURVE SMOOTH",
"770 248 OFFCURVE",
"742 52 OFFCURVE",
"594 52 CURVE SMOOTH",
"418 52 OFFCURVE",
"314 316 OFFCURVE",
"314 628 CURVE SMOOTH",
"314 748 OFFCURVE",
"322 928 OFFCURVE",
"488 928 CURVE SMOOTH"
);
}
);
width = 1080;
},
{
layerId = "02ADBE8D-B3BB-4EC7-92FE-8DBAAB138109";
paths = (
{
closed = 1;
nodes = (
"848 1454 LINE",
"614 1320 LINE",
"574 1362 OFFCURVE",
"536 1400 OFFCURVE",
"502 1434 CURVE",
"270 1434 LINE",
"338 1360 OFFCURVE",
"396 1292 OFFCURVE",
"448 1226 CURVE",
"262 1118 LINE",
"262 1050 LINE",
"496 1164 LINE",
"534 1110 OFFCURVE",
"570 1058 OFFCURVE",
"600 1004 CURVE",
"596 1004 LINE SMOOTH",
"224 1004 OFFCURVE",
"60 704 OFFCURVE",
"60 446 CURVE SMOOTH",
"60 206 OFFCURVE",
"200 -24 OFFCURVE",
"484 -24 CURVE SMOOTH",
"856 -24 OFFCURVE",
"1020 276 OFFCURVE",
"1020 534 CURVE SMOOTH",
"1020 802 OFFCURVE",
"846 1058 OFFCURVE",
"676 1252 CURVE",
"852 1338 LINE"
);
},
{
closed = 1;
nodes = (
"664 928 OFFCURVE",
"770 664 OFFCURVE",
"770 352 CURVE SMOOTH",
"770 248 OFFCURVE",
"742 52 OFFCURVE",
"594 52 CURVE SMOOTH",
"418 52 OFFCURVE",
"314 316 OFFCURVE",
"314 628 CURVE SMOOTH",
"314 748 OFFCURVE",
"322 928 OFFCURVE",
"488 928 CURVE SMOOTH"
);
}
);
width = 1080;
}
);
unicode = 00F0;
},
{
glyphname = dcaron;
layers = (
{
layerId = master01;
paths = (
{
closed = 1;
nodes = (
"1216 928 OFFCURVE",
"1466 1032 OFFCURVE",
"1466 1228 CURVE SMOOTH",
"1466 1296 OFFCURVE",
"1370 1382 OFFCURVE",
"1304 1422 CURVE",
"1138 1252 LINE",
"1216 1190 LINE",
"1242 1162 OFFCURVE",
"1280 1138 OFFCURVE",
"1280 1086 CURVE SMOOTH",
"1280 1010 OFFCURVE",
"1212 976 OFFCURVE",
"1144 938 CURVE",
"1172 918 LINE"
);
},
{
closed = 1;
nodes = (
"1154 0 LINE",
"1006 140 LINE",
"1006 1420 LINE",
"630 1306 LINE",
"766 1152 LINE",
"766 980 LINE",
"598 980 LINE SMOOTH",
"234 980 OFFCURVE",
"70 708 OFFCURVE",
"70 450 CURVE SMOOTH",
"70 210 OFFCURVE",
"198 -20 OFFCURVE",
"460 -20 CURVE SMOOTH",
"614 -20 OFFCURVE",
"706 74 OFFCURVE",
"766 178 CURVE",
"766 -18 LINE"
);
},
{
closed = 1;
nodes = (
"728 220 OFFCURVE",
"686 200 OFFCURVE",
"616 200 CURVE SMOOTH",
"446 200 OFFCURVE",
"308 320 OFFCURVE",
"308 632 CURVE SMOOTH",
"308 752 OFFCURVE",
"344 910 OFFCURVE",
"520 910 CURVE SMOOTH",
"624 910 OFFCURVE",
"706 852 OFFCURVE",
"766 788 CURVE",
"766 250 LINE"
);
}
);
width = 1516;
},
{
layerId = "F16CA8CE-DA8C-4EBD-81D6-AE00C3431B7F";
paths = (
{
closed = 1;
nodes = (
"1216 928 OFFCURVE",
"1466 1032 OFFCURVE",
"1466 1228 CURVE SMOOTH",
"1466 1296 OFFCURVE",
"1370 1382 OFFCURVE",
"1304 1422 CURVE",
"1138 1252 LINE",
"1216 1190 LINE",
"1242 1162 OFFCURVE",
"1280 1138 OFFCURVE",
"1280 1086 CURVE SMOOTH",
"1280 1010 OFFCURVE",
"1212 976 OFFCURVE",
"1144 938 CURVE",
"1172 918 LINE"
);
},
{
closed = 1;
nodes = (
"1154 0 LINE",
"1006 140 LINE",
"1006 1420 LINE",
"630 1306 LINE",
"766 1152 LINE",
"766 980 LINE",
"598 980 LINE SMOOTH",
"234 980 OFFCURVE",
"70 708 OFFCURVE",
"70 450 CURVE SMOOTH",
"70 210 OFFCURVE",
"198 -20 OFFCURVE",
"460 -20 CURVE SMOOTH",
"614 -20 OFFCURVE",
"706 74 OFFCURVE",
"766 178 CURVE",
"766 -18 LINE"
);
},
{
closed = 1;
nodes = (
"728 220 OFFCURVE",
"686 200 OFFCURVE",
"616 200 CURVE SMOOTH",
"446 200 OFFCURVE",
"308 320 OFFCURVE",
"308 632 CURVE SMOOTH",
"308 752 OFFCURVE",
"344 910 OFFCURVE",
"520 910 CURVE SMOOTH",
"624 910 OFFCURVE",
"706 852 OFFCURVE",
"766 788 CURVE",
"766 250 LINE"
);
}
);
width = 1516;
},
{
layerId = "02ADBE8D-B3BB-4EC7-92FE-8DBAAB138109";
paths = (
{
closed = 1;
nodes = (
"1216 928 OFFCURVE",
"1466 1032 OFFCURVE",
"1466 1228 CURVE SMOOTH",
"1466 1296 OFFCURVE",
"1370 1382 OFFCURVE",
"1304 1422 CURVE",
"1138 1252 LINE",
"1216 1190 LINE",
"1242 1162 OFFCURVE",
"1280 1138 OFFCURVE",
"1280 1086 CURVE SMOOTH",
"1280 1010 OFFCURVE",
"1212 976 OFFCURVE",
"1144 938 CURVE",
"1172 918 LINE"
);
},
{
closed = 1;
nodes = (
"1154 0 LINE",
"1006 140 LINE",
"1006 1420 LINE",
"630 1306 LINE",
"766 1152 LINE",
"766 980 LINE",
"598 980 LINE SMOOTH",
"234 980 OFFCURVE",
"70 708 OFFCURVE",
"70 450 CURVE SMOOTH",
"70 210 OFFCURVE",
"198 -20 OFFCURVE",
"460 -20 CURVE SMOOTH",
"614 -20 OFFCURVE",
"706 74 OFFCURVE",
"766 178 CURVE",
"766 -18 LINE"
);
},
{
closed = 1;
nodes = (
"728 220 OFFCURVE",
"686 200 OFFCURVE",
"616 200 CURVE SMOOTH",
"446 200 OFFCURVE",
"308 320 OFFCURVE",
"308 632 CURVE SMOOTH",
"308 752 OFFCURVE",
"344 910 OFFCURVE",
"520 910 CURVE SMOOTH",
"624 910 OFFCURVE",
"706 852 OFFCURVE",
"766 788 CURVE",
"766 250 LINE"
);
}
);
width = 1516;
}
);
unicode = 010F;
},
{
color = 7;
glyphname = e;
layers = (
{
layerId = master01;
paths = (
{
closed = 1;
nodes = (
"581 -20 OFFCURVE",
"795 128 OFFCURVE",
"879 306 OFFCURVE",
"856 349 OFFCURVE",
"816 339 OFFCURVE",
"753 264 OFFCURVE",
"643 200 OFFCURVE",
"389 204 OFFCURVE",
"257 362 OFFCURVE",
"229 518 OFFCURVE",
"263 554 OFFCURVE",
"549 554 OFFCURVE",
"813 554 OFFCURVE",
"853 552 OFFCURVE",
"877 588 OFFCURVE",
"827 844 OFFCURVE",
"637 1000 OFFCURVE",
"487 1000 QCURVE SMOOTH",
"245 1000 OFFCURVE",
"-1 672 OFFCURVE",
"1 264 OFFCURVE",
"207 -20 OFFCURVE",
"411 -20 QCURVE SMOOTH"
);
},
{
closed = 1;
nodes = (
"265 632 OFFCURVE",
"225 662 OFFCURVE",
"261 832 OFFCURVE",
"371 938 OFFCURVE",
"441 938 QCURVE SMOOTH",
"513 938 OFFCURVE",
"597 828 OFFCURVE",
"619 664 OFFCURVE",
"585 636 OFFCURVE",
"427 636 QCURVE SMOOTH"
);
}
);
userData = {
com.schriftgestaltung.Glyphs.lastChange = "2020-04-19 00:48:17 +0000";
};
width = 880;
},
{
layerId = "F16CA8CE-DA8C-4EBD-81D6-AE00C3431B7F";
paths = (
{
closed = 1;
nodes = (
"635 -30 OFFCURVE",
"855 141 OFFCURVE",
"951 334 OFFCURVE",
"923 372 OFFCURVE",
"884 372 OFFCURVE",
"792 276 OFFCURVE",
"664 234 OFFCURVE",
"513 238 OFFCURVE",
"384 362 OFFCURVE",
"344 508 OFFCURVE",
"378 554 OFFCURVE",
"438 554 OFFCURVE",
"882 540 OFFCURVE",
"922 542 OFFCURVE",
"946 588 OFFCURVE",
"887 844 OFFCURVE",
"695 1014 OFFCURVE",
"496 1014 QCURVE SMOOTH",
"250 1014 OFFCURVE",
"9 691 OFFCURVE",
"11 260 OFFCURVE",
"278 -30 OFFCURVE",
"474 -30 QCURVE SMOOTH"
);
},
{
closed = 1;
nodes = (
"375 636 OFFCURVE",
"343 666 OFFCURVE",
"359 832 OFFCURVE",
"424 932 OFFCURVE",
"482 932 QCURVE SMOOTH",
"537 932 OFFCURVE",
"601 838 OFFCURVE",
"634 664 OFFCURVE",
"600 636 OFFCURVE",
"448 636 QCURVE SMOOTH"
);
}
);
userData = {
com.schriftgestaltung.Glyphs.lastChange = "2020-04-19 00:48:17 +0000";
};
width = 960;
},
{
layerId = "02ADBE8D-B3BB-4EC7-92FE-8DBAAB138109";
paths = (
{
closed = 1;
nodes = (
"581 -20 OFFCURVE",
"749 79 OFFCURVE",
"820 195 OFFCURVE",
"847 303 OFFCURVE",
"814 320 OFFCURVE",
"768 233 OFFCURVE",
"634 130 OFFCURVE",
"403 130 OFFCURVE",
"230 302 OFFCURVE",
"192 508 OFFCURVE",
"203 561 OFFCURVE",
"259 561 OFFCURVE",
"745 561 OFFCURVE",
"789 561 OFFCURVE",
"821 600 OFFCURVE",
"771 844 OFFCURVE",
"587 994 OFFCURVE",
"437 994 QCURVE SMOOTH",
"245 994 OFFCURVE",
"19 692 OFFCURVE",
"21 254 OFFCURVE",
"237 -20 OFFCURVE",
"421 -20 QCURVE SMOOTH"
);
},
{
closed = 1;
nodes = (
"235 628 OFFCURVE",
"195 653 OFFCURVE",
"231 813 OFFCURVE",
"331 916 OFFCURVE",
"391 916 QCURVE SMOOTH",
"473 916 OFFCURVE",
"582 808 OFFCURVE",
"604 660 OFFCURVE",
"570 628 OFFCURVE",
"417 628 QCURVE SMOOTH"
);
}
);
userData = {
com.schriftgestaltung.Glyphs.lastChange = "2020-04-19 00:48:17 +0000";
};
width = 880;
}
);
unicode = 0065;
},
{
glyphname = eacute;
layers = (
{
layerId = master01;
paths = (
{
closed = 1;
nodes = (
"740 1358 LINE",
"488 1358 LINE",
"452 1100 LINE",
"482 1100 LINE"
);
},
{
closed = 1;
nodes = (
"934 566 LINE",
"932 570 LINE",
"930 840 OFFCURVE",
"784 1000 OFFCURVE",
"546 1000 CURVE SMOOTH",
"220 1000 OFFCURVE",
"60 704 OFFCURVE",
"60 446 CURVE SMOOTH",
"60 206 OFFCURVE",
"208 -28 OFFCURVE",
"470 -28 CURVE SMOOTH",
"708 -28 OFFCURVE",
"850 156 OFFCURVE",
"922 338 CURVE",
"892 350 LINE",
"862 266 OFFCURVE",
"742 198 OFFCURVE",
"606 198 CURVE SMOOTH",
"450 198 OFFCURVE",
"312 306 OFFCURVE",
"290 564 CURVE",
"932 564 LINE",
"932 566 LINE"
);
},
{
closed = 1;
nodes = (
"286 624 LINE",
"286 638 LINE SMOOTH",
"286 758 OFFCURVE",
"348 940 OFFCURVE",
"500 940 CURVE SMOOTH",
"588 940 OFFCURVE",
"674 856 OFFCURVE",
"674 642 CURVE SMOOTH",
"674 624 LINE"
);
}
);
width = 994;
},
{
layerId = "F16CA8CE-DA8C-4EBD-81D6-AE00C3431B7F";
paths = (
{
closed = 1;
nodes = (
"740 1358 LINE",
"488 1358 LINE",
"452 1100 LINE",
"482 1100 LINE"
);
},
{
closed = 1;
nodes = (
"934 566 LINE",
"932 570 LINE",
"930 840 OFFCURVE",
"784 1000 OFFCURVE",
"546 1000 CURVE SMOOTH",
"220 1000 OFFCURVE",
"60 704 OFFCURVE",
"60 446 CURVE SMOOTH",
"60 206 OFFCURVE",
"208 -28 OFFCURVE",
"470 -28 CURVE SMOOTH",
"708 -28 OFFCURVE",
"850 156 OFFCURVE",
"922 338 CURVE",
"892 350 LINE",
"862 266 OFFCURVE",
"742 198 OFFCURVE",
"606 198 CURVE SMOOTH",
"450 198 OFFCURVE",
"312 306 OFFCURVE",
"290 564 CURVE",
"932 564 LINE",
"932 566 LINE"
);
},
{
closed = 1;
nodes = (
"286 624 LINE",
"286 638 LINE SMOOTH",
"286 758 OFFCURVE",
"348 940 OFFCURVE",
"500 940 CURVE SMOOTH",
"588 940 OFFCURVE",
"674 856 OFFCURVE",
"674 642 CURVE SMOOTH",
"674 624 LINE"
);
}
);
width = 994;
},
{
layerId = "02ADBE8D-B3BB-4EC7-92FE-8DBAAB138109";
paths = (
{
closed = 1;
nodes = (
"740 1358 LINE",
"488 1358 LINE",
"452 1100 LINE",
"482 1100 LINE"
);
},
{
closed = 1;
nodes = (
"934 566 LINE",
"932 570 LINE",
"930 840 OFFCURVE",
"784 1000 OFFCURVE",
"546 1000 CURVE SMOOTH",
"220 1000 OFFCURVE",
"60 704 OFFCURVE",
"60 446 CURVE SMOOTH",
"60 206 OFFCURVE",
"208 -28 OFFCURVE",
"470 -28 CURVE SMOOTH",
"708 -28 OFFCURVE",
"850 156 OFFCURVE",
"922 338 CURVE",
"892 350 LINE",
"862 266 OFFCURVE",
"742 198 OFFCURVE",
"606 198 CURVE SMOOTH",
"450 198 OFFCURVE",
"312 306 OFFCURVE",
"290 564 CURVE",
"932 564 LINE",
"932 566 LINE"
);
},
{
closed = 1;
nodes = (
"286 624 LINE",
"286 638 LINE SMOOTH",
"286 758 OFFCURVE",
"348 940 OFFCURVE",
"500 940 CURVE SMOOTH",
"588 940 OFFCURVE",
"674 856 OFFCURVE",
"674 642 CURVE SMOOTH",
"674 624 LINE"
);
}
);
width = 994;
}
);
unicode = 00E9;
},
{
glyphname = ecaron;
layers = (
{
layerId = master01;
paths = (
{
closed = 1;
nodes = (
"348 1362 LINE",
"320 1362 LINE",
"434 1104 LINE",
"600 1104 LINE",
"716 1362 LINE",
"684 1362 LINE",
"518 1216 LINE"
);
},
{
closed = 1;
nodes = (
"932 842 OFFCURVE",
"786 1004 OFFCURVE",
"546 1004 CURVE SMOOTH",
"220 1004 OFFCURVE",
"60 708 OFFCURVE",
"60 450 CURVE SMOOTH",
"60 210 OFFCURVE",
"208 -24 OFFCURVE",
"470 -24 CURVE SMOOTH",
"708 -24 OFFCURVE",
"850 160 OFFCURVE",
"922 342 CURVE",
"892 354 LINE",
"862 270 OFFCURVE",
"742 202 OFFCURVE",
"606 202 CURVE SMOOTH",
"450 202 OFFCURVE",
"312 310 OFFCURVE",
"290 568 CURVE",
"932 568 LINE"
);
},
{
closed = 1;
nodes = (
"286 642 LINE SMOOTH",
"286 762 OFFCURVE",
"348 944 OFFCURVE",
"500 944 CURVE SMOOTH",
"588 944 OFFCURVE",
"674 860 OFFCURVE",
"674 646 CURVE SMOOTH",
"674 638 OFFCURVE",
"674 628 OFFCURVE",
"672 620 CURVE",
"286 620 LINE"
);
}
);
width = 992;
},
{
layerId = "F16CA8CE-DA8C-4EBD-81D6-AE00C3431B7F";
paths = (
{
closed = 1;
nodes = (
"348 1362 LINE",
"320 1362 LINE",
"434 1104 LINE",
"600 1104 LINE",
"716 1362 LINE",
"684 1362 LINE",
"518 1216 LINE"
);
},
{
closed = 1;
nodes = (
"932 842 OFFCURVE",
"786 1004 OFFCURVE",
"546 1004 CURVE SMOOTH",
"220 1004 OFFCURVE",
"60 708 OFFCURVE",
"60 450 CURVE SMOOTH",
"60 210 OFFCURVE",
"208 -24 OFFCURVE",
"470 -24 CURVE SMOOTH",
"708 -24 OFFCURVE",
"850 160 OFFCURVE",
"922 342 CURVE",
"892 354 LINE",
"862 270 OFFCURVE",
"742 202 OFFCURVE",
"606 202 CURVE SMOOTH",
"450 202 OFFCURVE",
"312 310 OFFCURVE",
"290 568 CURVE",
"932 568 LINE"
);
},
{
closed = 1;
nodes = (
"286 642 LINE SMOOTH",
"286 762 OFFCURVE",
"348 944 OFFCURVE",
"500 944 CURVE SMOOTH",
"588 944 OFFCURVE",
"674 860 OFFCURVE",
"674 646 CURVE SMOOTH",
"674 638 OFFCURVE",
"674 628 OFFCURVE",
"672 620 CURVE",
"286 620 LINE"
);
}
);
width = 992;
},
{
layerId = "02ADBE8D-B3BB-4EC7-92FE-8DBAAB138109";
paths = (
{
closed = 1;
nodes = (
"348 1362 LINE",
"320 1362 LINE",
"434 1104 LINE",
"600 1104 LINE",
"716 1362 LINE",
"684 1362 LINE",
"518 1216 LINE"
);
},
{
closed = 1;
nodes = (
"932 842 OFFCURVE",
"786 1004 OFFCURVE",
"546 1004 CURVE SMOOTH",
"220 1004 OFFCURVE",
"60 708 OFFCURVE",
"60 450 CURVE SMOOTH",
"60 210 OFFCURVE",
"208 -24 OFFCURVE",
"470 -24 CURVE SMOOTH",
"708 -24 OFFCURVE",
"850 160 OFFCURVE",
"922 342 CURVE",
"892 354 LINE",
"862 270 OFFCURVE",
"742 202 OFFCURVE",
"606 202 CURVE SMOOTH",
"450 202 OFFCURVE",
"312 310 OFFCURVE",
"290 568 CURVE",
"932 568 LINE"
);
},
{
closed = 1;
nodes = (
"286 642 LINE SMOOTH",
"286 762 OFFCURVE",
"348 944 OFFCURVE",
"500 944 CURVE SMOOTH",
"588 944 OFFCURVE",
"674 860 OFFCURVE",
"674 646 CURVE SMOOTH",
"674 638 OFFCURVE",
"674 628 OFFCURVE",
"672 620 CURVE",
"286 620 LINE"
);
}
);
width = 992;
}
);
unicode = 011B;
},
{
glyphname = ecircumflex;
layers = (
{
layerId = master01;
paths = (
{
closed = 1;
nodes = (
"520 1246 LINE",
"686 1100 LINE",
"718 1100 LINE",
"602 1358 LINE",
"436 1358 LINE",
"322 1100 LINE",
"350 1100 LINE"
);
},
{
closed = 1;
nodes = (
"934 566 LINE",
"932 570 LINE",
"930 840 OFFCURVE",
"784 1000 OFFCURVE",
"546 1000 CURVE SMOOTH",
"220 1000 OFFCURVE",
"60 704 OFFCURVE",
"60 446 CURVE SMOOTH",
"60 206 OFFCURVE",
"208 -28 OFFCURVE",
"470 -28 CURVE SMOOTH",
"708 -28 OFFCURVE",
"850 156 OFFCURVE",
"922 338 CURVE",
"892 350 LINE",
"862 266 OFFCURVE",
"742 198 OFFCURVE",
"606 198 CURVE SMOOTH",
"450 198 OFFCURVE",
"312 306 OFFCURVE",
"290 564 CURVE",
"932 564 LINE",
"932 566 LINE"
);
},
{
closed = 1;
nodes = (
"286 624 LINE",
"286 638 LINE SMOOTH",
"286 758 OFFCURVE",
"348 940 OFFCURVE",
"500 940 CURVE SMOOTH",
"588 940 OFFCURVE",
"674 856 OFFCURVE",
"674 642 CURVE SMOOTH",
"674 624 LINE"
);
}
);
width = 994;
},
{
layerId = "F16CA8CE-DA8C-4EBD-81D6-AE00C3431B7F";
paths = (
{
closed = 1;
nodes = (
"520 1246 LINE",
"686 1100 LINE",
"718 1100 LINE",
"602 1358 LINE",
"436 1358 LINE",
"322 1100 LINE",
"350 1100 LINE"
);
},
{
closed = 1;
nodes = (
"934 566 LINE",
"932 570 LINE",
"930 840 OFFCURVE",
"784 1000 OFFCURVE",
"546 1000 CURVE SMOOTH",
"220 1000 OFFCURVE",
"60 704 OFFCURVE",
"60 446 CURVE SMOOTH",
"60 206 OFFCURVE",
"208 -28 OFFCURVE",
"470 -28 CURVE SMOOTH",
"708 -28 OFFCURVE",
"850 156 OFFCURVE",
"922 338 CURVE",
"892 350 LINE",
"862 266 OFFCURVE",
"742 198 OFFCURVE",
"606 198 CURVE SMOOTH",
"450 198 OFFCURVE",
"312 306 OFFCURVE",
"290 564 CURVE",
"932 564 LINE",
"932 566 LINE"
);
},
{
closed = 1;
nodes = (
"286 624 LINE",
"286 638 LINE SMOOTH",
"286 758 OFFCURVE",
"348 940 OFFCURVE",
"500 940 CURVE SMOOTH",
"588 940 OFFCURVE",
"674 856 OFFCURVE",
"674 642 CURVE SMOOTH",
"674 624 LINE"
);
}
);
width = 994;
},
{
layerId = "02ADBE8D-B3BB-4EC7-92FE-8DBAAB138109";
paths = (
{
closed = 1;
nodes = (
"520 1246 LINE",
"686 1100 LINE",
"718 1100 LINE",
"602 1358 LINE",
"436 1358 LINE",
"322 1100 LINE",
"350 1100 LINE"
);
},
{
closed = 1;
nodes = (
"934 566 LINE",
"932 570 LINE",
"930 840 OFFCURVE",
"784 1000 OFFCURVE",
"546 1000 CURVE SMOOTH",
"220 1000 OFFCURVE",
"60 704 OFFCURVE",
"60 446 CURVE SMOOTH",
"60 206 OFFCURVE",
"208 -28 OFFCURVE",
"470 -28 CURVE SMOOTH",
"708 -28 OFFCURVE",
"850 156 OFFCURVE",
"922 338 CURVE",
"892 350 LINE",
"862 266 OFFCURVE",
"742 198 OFFCURVE",
"606 198 CURVE SMOOTH",
"450 198 OFFCURVE",
"312 306 OFFCURVE",
"290 564 CURVE",
"932 564 LINE",
"932 566 LINE"
);
},
{
closed = 1;
nodes = (
"286 624 LINE",
"286 638 LINE SMOOTH",
"286 758 OFFCURVE",
"348 940 OFFCURVE",
"500 940 CURVE SMOOTH",
"588 940 OFFCURVE",
"674 856 OFFCURVE",
"674 642 CURVE SMOOTH",
"674 624 LINE"
);
}
);
width = 994;
}
);
unicode = 00EA;
},
{
glyphname = edieresis;
layers = (
{
layerId = master01;
paths = (
{
closed = 1;
nodes = (
"454 1240 LINE",
"320 1392 LINE",
"184 1240 LINE",
"320 1086 LINE"
);
},
{
closed = 1;
nodes = (
"864 1240 LINE",
"730 1392 LINE",
"594 1240 LINE",
"730 1086 LINE"
);
},
{
closed = 1;
nodes = (
"934 566 LINE",
"932 570 LINE",
"930 840 OFFCURVE",
"784 1000 OFFCURVE",
"546 1000 CURVE SMOOTH",
"220 1000 OFFCURVE",
"60 704 OFFCURVE",
"60 446 CURVE SMOOTH",
"60 206 OFFCURVE",
"208 -28 OFFCURVE",
"470 -28 CURVE SMOOTH",
"708 -28 OFFCURVE",
"850 156 OFFCURVE",
"922 338 CURVE",
"892 350 LINE",
"862 266 OFFCURVE",
"742 198 OFFCURVE",
"606 198 CURVE SMOOTH",
"450 198 OFFCURVE",
"312 306 OFFCURVE",
"290 564 CURVE",
"932 564 LINE",
"932 566 LINE"
);
},
{
closed = 1;
nodes = (
"286 624 LINE",
"286 638 LINE SMOOTH",
"286 758 OFFCURVE",
"348 940 OFFCURVE",
"500 940 CURVE SMOOTH",
"588 940 OFFCURVE",
"674 856 OFFCURVE",
"674 642 CURVE SMOOTH",
"674 624 LINE"
);
}
);
width = 994;
},
{
layerId = "F16CA8CE-DA8C-4EBD-81D6-AE00C3431B7F";
paths = (
{
closed = 1;
nodes = (
"454 1240 LINE",
"320 1392 LINE",
"184 1240 LINE",
"320 1086 LINE"
);
},
{
closed = 1;
nodes = (
"864 1240 LINE",
"730 1392 LINE",
"594 1240 LINE",
"730 1086 LINE"
);
},
{
closed = 1;
nodes = (
"934 566 LINE",
"932 570 LINE",
"930 840 OFFCURVE",
"784 1000 OFFCURVE",
"546 1000 CURVE SMOOTH",
"220 1000 OFFCURVE",
"60 704 OFFCURVE",
"60 446 CURVE SMOOTH",
"60 206 OFFCURVE",
"208 -28 OFFCURVE",
"470 -28 CURVE SMOOTH",
"708 -28 OFFCURVE",
"850 156 OFFCURVE",
"922 338 CURVE",
"892 350 LINE",
"862 266 OFFCURVE",
"742 198 OFFCURVE",
"606 198 CURVE SMOOTH",
"450 198 OFFCURVE",
"312 306 OFFCURVE",
"290 564 CURVE",
"932 564 LINE",
"932 566 LINE"
);
},
{
closed = 1;
nodes = (
"286 624 LINE",
"286 638 LINE SMOOTH",
"286 758 OFFCURVE",
"348 940 OFFCURVE",
"500 940 CURVE SMOOTH",
"588 940 OFFCURVE",
"674 856 OFFCURVE",
"674 642 CURVE SMOOTH",
"674 624 LINE"
);
}
);
width = 994;
},
{
layerId = "02ADBE8D-B3BB-4EC7-92FE-8DBAAB138109";
paths = (
{
closed = 1;
nodes = (
"454 1240 LINE",
"320 1392 LINE",
"184 1240 LINE",
"320 1086 LINE"
);
},
{
closed = 1;
nodes = (
"864 1240 LINE",
"730 1392 LINE",
"594 1240 LINE",
"730 1086 LINE"
);
},
{
closed = 1;
nodes = (
"934 566 LINE",
"932 570 LINE",
"930 840 OFFCURVE",
"784 1000 OFFCURVE",
"546 1000 CURVE SMOOTH",
"220 1000 OFFCURVE",
"60 704 OFFCURVE",
"60 446 CURVE SMOOTH",
"60 206 OFFCURVE",
"208 -28 OFFCURVE",
"470 -28 CURVE SMOOTH",
"708 -28 OFFCURVE",
"850 156 OFFCURVE",
"922 338 CURVE",
"892 350 LINE",
"862 266 OFFCURVE",
"742 198 OFFCURVE",
"606 198 CURVE SMOOTH",
"450 198 OFFCURVE",
"312 306 OFFCURVE",
"290 564 CURVE",
"932 564 LINE",
"932 566 LINE"
);
},
{
closed = 1;
nodes = (
"286 624 LINE",
"286 638 LINE SMOOTH",
"286 758 OFFCURVE",
"348 940 OFFCURVE",
"500 940 CURVE SMOOTH",
"588 940 OFFCURVE",
"674 856 OFFCURVE",
"674 642 CURVE SMOOTH",
"674 624 LINE"
);
}
);
width = 994;
}
);
unicode = 00EB;
},
{
glyphname = edotaccent;
layers = (
{
layerId = master01;
paths = (
{
closed = 1;
nodes = (
"530 1092 LINE",
"670 1254 LINE",
"530 1414 LINE",
"388 1254 LINE"
);
},
{
closed = 1;
nodes = (
"932 842 OFFCURVE",
"786 1004 OFFCURVE",
"546 1004 CURVE SMOOTH",
"220 1004 OFFCURVE",
"60 708 OFFCURVE",
"60 450 CURVE SMOOTH",
"60 210 OFFCURVE",
"208 -24 OFFCURVE",
"470 -24 CURVE SMOOTH",
"708 -24 OFFCURVE",
"850 160 OFFCURVE",
"922 342 CURVE",
"892 354 LINE",
"862 270 OFFCURVE",
"742 202 OFFCURVE",
"606 202 CURVE SMOOTH",
"450 202 OFFCURVE",
"312 310 OFFCURVE",
"290 568 CURVE",
"932 568 LINE"
);
},
{
closed = 1;
nodes = (
"286 642 LINE SMOOTH",
"286 762 OFFCURVE",
"348 944 OFFCURVE",
"500 944 CURVE SMOOTH",
"588 944 OFFCURVE",
"674 860 OFFCURVE",
"674 646 CURVE SMOOTH",
"674 638 OFFCURVE",
"674 628 OFFCURVE",
"672 620 CURVE",
"286 620 LINE"
);
}
);
width = 992;
},
{
layerId = "F16CA8CE-DA8C-4EBD-81D6-AE00C3431B7F";
paths = (
{
closed = 1;
nodes = (
"530 1092 LINE",
"670 1254 LINE",
"530 1414 LINE",
"388 1254 LINE"
);
},
{
closed = 1;
nodes = (
"932 842 OFFCURVE",
"786 1004 OFFCURVE",
"546 1004 CURVE SMOOTH",
"220 1004 OFFCURVE",
"60 708 OFFCURVE",
"60 450 CURVE SMOOTH",
"60 210 OFFCURVE",
"208 -24 OFFCURVE",
"470 -24 CURVE SMOOTH",
"708 -24 OFFCURVE",
"850 160 OFFCURVE",
"922 342 CURVE",
"892 354 LINE",
"862 270 OFFCURVE",
"742 202 OFFCURVE",
"606 202 CURVE SMOOTH",
"450 202 OFFCURVE",
"312 310 OFFCURVE",
"290 568 CURVE",
"932 568 LINE"
);
},
{
closed = 1;
nodes = (
"286 642 LINE SMOOTH",
"286 762 OFFCURVE",
"348 944 OFFCURVE",
"500 944 CURVE SMOOTH",
"588 944 OFFCURVE",
"674 860 OFFCURVE",
"674 646 CURVE SMOOTH",
"674 638 OFFCURVE",
"674 628 OFFCURVE",
"672 620 CURVE",
"286 620 LINE"
);
}
);
width = 992;
},
{
layerId = "02ADBE8D-B3BB-4EC7-92FE-8DBAAB138109";
paths = (
{
closed = 1;
nodes = (
"530 1092 LINE",
"670 1254 LINE",
"530 1414 LINE",
"388 1254 LINE"
);
},
{
closed = 1;
nodes = (
"932 842 OFFCURVE",
"786 1004 OFFCURVE",
"546 1004 CURVE SMOOTH",
"220 1004 OFFCURVE",
"60 708 OFFCURVE",
"60 450 CURVE SMOOTH",
"60 210 OFFCURVE",
"208 -24 OFFCURVE",
"470 -24 CURVE SMOOTH",
"708 -24 OFFCURVE",
"850 160 OFFCURVE",
"922 342 CURVE",
"892 354 LINE",
"862 270 OFFCURVE",
"742 202 OFFCURVE",
"606 202 CURVE SMOOTH",
"450 202 OFFCURVE",
"312 310 OFFCURVE",
"290 568 CURVE",
"932 568 LINE"
);
},
{
closed = 1;
nodes = (
"286 642 LINE SMOOTH",
"286 762 OFFCURVE",
"348 944 OFFCURVE",
"500 944 CURVE SMOOTH",
"588 944 OFFCURVE",
"674 860 OFFCURVE",
"674 646 CURVE SMOOTH",
"674 638 OFFCURVE",
"674 628 OFFCURVE",
"672 620 CURVE",
"286 620 LINE"
);
}
);
width = 992;
}
);
unicode = 0117;
},
{
glyphname = egrave;
layers = (
{
layerId = master01;
paths = (
{
closed = 1;
nodes = (
"564 1100 LINE",
"528 1358 LINE",
"276 1358 LINE",
"534 1100 LINE"
);
},
{
closed = 1;
nodes = (
"934 566 LINE",
"932 570 LINE",
"930 840 OFFCURVE",
"784 1000 OFFCURVE",
"546 1000 CURVE SMOOTH",
"220 1000 OFFCURVE",
"60 704 OFFCURVE",
"60 446 CURVE SMOOTH",
"60 206 OFFCURVE",
"208 -28 OFFCURVE",
"470 -28 CURVE SMOOTH",
"708 -28 OFFCURVE",
"850 156 OFFCURVE",
"922 338 CURVE",
"892 350 LINE",
"862 266 OFFCURVE",
"742 198 OFFCURVE",
"606 198 CURVE SMOOTH",
"450 198 OFFCURVE",
"312 306 OFFCURVE",
"290 564 CURVE",
"932 564 LINE",
"932 566 LINE"
);
},
{
closed = 1;
nodes = (
"286 624 LINE",
"286 638 LINE SMOOTH",
"286 758 OFFCURVE",
"348 940 OFFCURVE",
"500 940 CURVE SMOOTH",
"588 940 OFFCURVE",
"674 856 OFFCURVE",
"674 642 CURVE SMOOTH",
"674 624 LINE"
);
}
);
width = 994;
},
{
layerId = "F16CA8CE-DA8C-4EBD-81D6-AE00C3431B7F";
paths = (
{
closed = 1;
nodes = (
"564 1100 LINE",
"528 1358 LINE",
"276 1358 LINE",
"534 1100 LINE"
);
},
{
closed = 1;
nodes = (
"934 566 LINE",
"932 570 LINE",
"930 840 OFFCURVE",
"784 1000 OFFCURVE",
"546 1000 CURVE SMOOTH",
"220 1000 OFFCURVE",
"60 704 OFFCURVE",
"60 446 CURVE SMOOTH",
"60 206 OFFCURVE",
"208 -28 OFFCURVE",
"470 -28 CURVE SMOOTH",
"708 -28 OFFCURVE",
"850 156 OFFCURVE",
"922 338 CURVE",
"892 350 LINE",
"862 266 OFFCURVE",
"742 198 OFFCURVE",
"606 198 CURVE SMOOTH",
"450 198 OFFCURVE",
"312 306 OFFCURVE",
"290 564 CURVE",
"932 564 LINE",
"932 566 LINE"
);
},
{
closed = 1;
nodes = (
"286 624 LINE",
"286 638 LINE SMOOTH",
"286 758 OFFCURVE",
"348 940 OFFCURVE",
"500 940 CURVE SMOOTH",
"588 940 OFFCURVE",
"674 856 OFFCURVE",
"674 642 CURVE SMOOTH",
"674 624 LINE"
);
}
);
width = 994;
},
{
layerId = "02ADBE8D-B3BB-4EC7-92FE-8DBAAB138109";
paths = (
{
closed = 1;
nodes = (
"564 1100 LINE",
"528 1358 LINE",
"276 1358 LINE",
"534 1100 LINE"
);
},
{
closed = 1;
nodes = (
"934 566 LINE",
"932 570 LINE",
"930 840 OFFCURVE",
"784 1000 OFFCURVE",
"546 1000 CURVE SMOOTH",
"220 1000 OFFCURVE",
"60 704 OFFCURVE",
"60 446 CURVE SMOOTH",
"60 206 OFFCURVE",
"208 -28 OFFCURVE",
"470 -28 CURVE SMOOTH",
"708 -28 OFFCURVE",
"850 156 OFFCURVE",
"922 338 CURVE",
"892 350 LINE",
"862 266 OFFCURVE",
"742 198 OFFCURVE",
"606 198 CURVE SMOOTH",
"450 198 OFFCURVE",
"312 306 OFFCURVE",
"290 564 CURVE",
"932 564 LINE",
"932 566 LINE"
);
},
{
closed = 1;
nodes = (
"286 624 LINE",
"286 638 LINE SMOOTH",
"286 758 OFFCURVE",
"348 940 OFFCURVE",
"500 940 CURVE SMOOTH",
"588 940 OFFCURVE",
"674 856 OFFCURVE",
"674 642 CURVE SMOOTH",
"674 624 LINE"
);
}
);
width = 994;
}
);
unicode = 00E8;
},
{
color = 7;
glyphname = f;
layers = (
{
layerId = master01;
paths = (
{
closed = 1;
nodes = (
"416 4 OFFCURVE",
"558 -8 OFFCURVE",
"594 -8 OFFCURVE",
"594 26 OFFCURVE",
"496 94 OFFCURVE",
"422 154 OFFCURVE",
"414 190 OFFCURVE",
"410 564 OFFCURVE",
"420 848 OFFCURVE",
"442 878 OFFCURVE",
"600 882 OFFCURVE",
"728 872 OFFCURVE",
"760 872 OFFCURVE",
"776 890 OFFCURVE",
"800 948 OFFCURVE",
"800 978 OFFCURVE",
"770 984 OFFCURVE",
"588 970 OFFCURVE",
"448 976 OFFCURVE",
"420 980 OFFCURVE",
"404 1008 OFFCURVE",
"380 1160 OFFCURVE",
"384 1242 OFFCURVE",
"464 1320 OFFCURVE",
"604 1320 OFFCURVE",
"748 1226 OFFCURVE",
"832 1084 OFFCURVE",
"864 1084 OFFCURVE",
"864 1124 OFFCURVE",
"850 1260 OFFCURVE",
"856 1360 OFFCURVE",
"856 1390 OFFCURVE",
"820 1392 OFFCURVE",
"756 1380 OFFCURVE",
"668 1384 OFFCURVE",
"614 1388 QCURVE SMOOTH",
"496 1396 OFFCURVE",
"248 1246 OFFCURVE",
"188 1012 OFFCURVE",
"180 976 OFFCURVE",
"136 974 OFFCURVE",
"84 980 OFFCURVE",
"54 976 OFFCURVE",
"58 948 OFFCURVE",
"124 912 OFFCURVE",
"172 860 OFFCURVE",
"180 832 OFFCURVE",
"186 564 OFFCURVE",
"176 178 OFFCURVE",
"170 146 OFFCURVE",
"124 90 OFFCURVE",
"30 18 OFFCURVE",
"28 -16 OFFCURVE",
"76 -16 OFFCURVE",
"198 4 OFFCURVE",
"304 4 QCURVE SMOOTH"
);
}
);
userData = {
com.schriftgestaltung.Glyphs.lastChange = "2020-04-17 19:36:31 +0000";
};
width = 774;
},
{
layerId = "F16CA8CE-DA8C-4EBD-81D6-AE00C3431B7F";
paths = (
{
closed = 1;
nodes = (
"416 4 OFFCURVE",
"558 -8 OFFCURVE",
"594 -8 OFFCURVE",
"594 26 OFFCURVE",
"496 94 OFFCURVE",
"422 154 OFFCURVE",
"414 190 OFFCURVE",
"410 564 OFFCURVE",
"420 848 OFFCURVE",
"442 878 OFFCURVE",
"600 882 OFFCURVE",
"728 872 OFFCURVE",
"760 872 OFFCURVE",
"776 890 OFFCURVE",
"800 948 OFFCURVE",
"800 978 OFFCURVE",
"770 984 OFFCURVE",
"588 970 OFFCURVE",
"448 976 OFFCURVE",
"420 980 OFFCURVE",
"404 1008 OFFCURVE",
"380 1160 OFFCURVE",
"384 1242 OFFCURVE",
"464 1320 OFFCURVE",
"604 1320 OFFCURVE",
"748 1226 OFFCURVE",
"832 1084 OFFCURVE",
"864 1084 OFFCURVE",
"864 1124 OFFCURVE",
"850 1260 OFFCURVE",
"856 1360 OFFCURVE",
"856 1390 OFFCURVE",
"820 1392 OFFCURVE",
"756 1380 OFFCURVE",
"668 1384 OFFCURVE",
"614 1388 QCURVE SMOOTH",
"496 1396 OFFCURVE",
"248 1246 OFFCURVE",
"188 1012 OFFCURVE",
"180 976 OFFCURVE",
"136 974 OFFCURVE",
"84 980 OFFCURVE",
"54 976 OFFCURVE",
"58 948 OFFCURVE",
"124 912 OFFCURVE",
"172 860 OFFCURVE",
"180 832 OFFCURVE",
"186 564 OFFCURVE",
"176 178 OFFCURVE",
"170 146 OFFCURVE",
"124 90 OFFCURVE",
"30 18 OFFCURVE",
"28 -16 OFFCURVE",
"76 -16 OFFCURVE",
"198 4 OFFCURVE",
"304 4 QCURVE SMOOTH"
);
}
);
userData = {
com.schriftgestaltung.Glyphs.lastChange = "2020-04-17 19:36:31 +0000";
};
width = 774;
},
{
layerId = "02ADBE8D-B3BB-4EC7-92FE-8DBAAB138109";
paths = (
{
closed = 1;
nodes = (
"416 4 OFFCURVE",
"558 -8 OFFCURVE",
"594 -8 OFFCURVE",
"594 26 OFFCURVE",
"496 94 OFFCURVE",
"422 154 OFFCURVE",
"414 190 OFFCURVE",
"410 564 OFFCURVE",
"420 848 OFFCURVE",
"442 878 OFFCURVE",
"600 882 OFFCURVE",
"728 872 OFFCURVE",
"760 872 OFFCURVE",
"776 890 OFFCURVE",
"800 948 OFFCURVE",
"800 978 OFFCURVE",
"770 984 OFFCURVE",
"588 970 OFFCURVE",
"448 976 OFFCURVE",
"420 980 OFFCURVE",
"404 1008 OFFCURVE",
"380 1160 OFFCURVE",
"384 1242 OFFCURVE",
"464 1320 OFFCURVE",
"604 1320 OFFCURVE",
"748 1226 OFFCURVE",
"832 1084 OFFCURVE",
"864 1084 OFFCURVE",
"864 1124 OFFCURVE",
"850 1260 OFFCURVE",
"856 1360 OFFCURVE",
"856 1390 OFFCURVE",
"820 1392 OFFCURVE",
"756 1380 OFFCURVE",
"668 1384 OFFCURVE",
"614 1388 QCURVE SMOOTH",
"496 1396 OFFCURVE",
"248 1246 OFFCURVE",
"188 1012 OFFCURVE",
"180 976 OFFCURVE",
"136 974 OFFCURVE",
"84 980 OFFCURVE",
"54 976 OFFCURVE",
"58 948 OFFCURVE",
"124 912 OFFCURVE",
"172 860 OFFCURVE",
"180 832 OFFCURVE",
"186 564 OFFCURVE",
"176 178 OFFCURVE",
"170 146 OFFCURVE",
"124 90 OFFCURVE",
"30 18 OFFCURVE",
"28 -16 OFFCURVE",
"76 -16 OFFCURVE",
"198 4 OFFCURVE",
"304 4 QCURVE SMOOTH"
);
}
);
userData = {
com.schriftgestaltung.Glyphs.lastChange = "2020-04-17 19:36:31 +0000";
};
width = 774;
}
);
unicode = 0066;
},
